<svg id="_1176" data-name="1176" xmlns="http://www.w3.org/2000/svg" xmlns:xlink="http://www.w3.org/1999/xlink" width="43.664" height="43.664" viewBox="0 0 43.664 43.664">
  <defs>
    <linearGradient id="linear-gradient" x1="0.613" y1="1" x2="0.5" y2="0.111" gradientUnits="objectBoundingBox">
      <stop offset="0" stop-color="#e1fd84"/>
      <stop offset="1" stop-color="#a4d500"/>
    </linearGradient>
  </defs>
  <path id="Path_92" data-name="Path 92" d="M21.831,0A21.832,21.832,0,1,0,43.664,21.831,21.832,21.832,0,0,0,21.831,0Zm4.545,33.835q-1.686.665-2.689,1.013a7.094,7.094,0,0,1-2.332.349,4.649,4.649,0,0,1-3.173-1,3.215,3.215,0,0,1-1.129-2.527,9.177,9.177,0,0,1,.083-1.218c.057-.414.148-.88.272-1.4l1.406-4.968c.124-.477.231-.93.316-1.351a5.991,5.991,0,0,0,.126-1.17,1.8,1.8,0,0,0-.392-1.325,2.226,2.226,0,0,0-1.5-.371,3.943,3.943,0,0,0-1.118.166c-.379.116-.708.222-.978.325l.371-1.53q1.381-.563,2.643-.963a7.808,7.808,0,0,1,2.384-.4,4.562,4.562,0,0,1,3.127.98,3.254,3.254,0,0,1,1.1,2.543q0,.324-.076,1.14a7.631,7.631,0,0,1-.281,1.5l-1.4,4.953c-.115.4-.216.852-.309,1.36a7.193,7.193,0,0,0-.135,1.157,1.662,1.662,0,0,0,.442,1.345,2.473,2.473,0,0,0,1.528.359,4.433,4.433,0,0,0,1.157-.179,6.578,6.578,0,0,0,.935-.314Zm-.248-20.1a3.339,3.339,0,0,1-2.356.909,3.374,3.374,0,0,1-2.366-.909,2.9,2.9,0,0,1-.985-2.2,2.932,2.932,0,0,1,.985-2.21A3.35,3.35,0,0,1,23.772,8.4a3.312,3.312,0,0,1,2.356.919,2.978,2.978,0,0,1,0,4.415Z" fill="url(#linear-gradient)"/>
</svg>
