<svg xmlns="http://www.w3.org/2000/svg" xmlns:xlink="http://www.w3.org/1999/xlink" width="30.777" height="36.595" viewBox="0 0 30.777 36.595">
  <defs>
    <linearGradient id="linear-gradient" x1="0.11" y1="0.135" x2="1" y2="1.249" gradientUnits="objectBoundingBox">
      <stop offset="0" stop-color="#041168"/>
      <stop offset="1" stop-color="#cecece"/>
    </linearGradient>
  </defs>
  <g id="_865882" transform="translate(-30.274 0)">
    <g id="Group_110" transform="translate(30.274 0)">
      <g id="Group_109" transform="translate(0 0)">
        <path id="Path_141" d="M59.482,32.336a.546.546,0,0,0-.394-.238h-.073A17.2,17.2,0,0,1,48.875,1a.546.546,0,0,0-.307-1l0,0a18.3,18.3,0,1,0,10.762,33.09A.546.546,0,0,0,59.482,32.336Z" transform="translate(-30.274 0)" fill="#3f4468"/>
      </g>
    </g>
    <g id="Group_112" transform="translate(47.483 19.439)">
      <g id="Group_111" transform="translate(0)">
        <path id="Path_142" d="M215.488,204.322a.546.546,0,0,0-.226-.115l0-.008-1.476-.354-.792-1.284a.546.546,0,0,0-.934,0l-.8,1.284-1.453.354a.546.546,0,0,0-.311.892l.984,1.153-.115,1.514a.546.546,0,0,0,.769.546l1.407-.577,1.376.565a.546.546,0,0,0,.769-.534l-.115-1.514.984-1.153A.546.546,0,0,0,215.488,204.322Z" transform="translate(-209.362 -202.299)" fill="#c4ccfe"/>
      </g>
    </g>
    <g id="Group_114" transform="translate(46.655 4.357)">
      <g id="Group_113" transform="translate(0)">
        <path d="M210.079,48.515a.546.546,0,0,0-.226-.115l.008.019-2.521-.615-1.361-2.2a.546.546,0,0,0-.934,0l-1.364,2.21-2.5.611a.546.546,0,0,0-.319.861l1.68,1.979-.2,2.591a.546.546,0,0,0,.769.546l2.4-.984,2.372.972a.546.546,0,0,0,.769-.534l-.2-2.591,1.68-1.979A.546.546,0,0,0,210.079,48.515Z" data-name="Path 143"
            fill="url(#linear-gradient)"
            id="Path_143" transform="translate(-200.753 -45.339)" />
      </g>
    </g>
    <g id="Group_116" transform="translate(55.763 14.715)">
      <g id="Group_115">
        <path id="Path_144" d="M300.629,154.793a.546.546,0,0,0-.226-.115l-.015-.008-1.153-.277-.611-.992a.546.546,0,0,0-.934,0l-.6,1.011-1.115.273a.546.546,0,0,0-.315.88l.769.9-.088,1.153a.546.546,0,0,0,.769.546l1.084-.446,1.053.43a.546.546,0,0,0,.769-.534l-.088-1.153.769-.9A.546.546,0,0,0,300.629,154.793Z" transform="translate(-295.533 -153.139)" fill="#8d9bf8"/>
      </g>
    </g>
  </g>
</svg>
