<svg xmlns="http://www.w3.org/2000/svg" xmlns:xlink="http://www.w3.org/1999/xlink" width="27.549" height="40.104" viewBox="0 0 27.549 40.104">
  <defs>
    <linearGradient id="linear-gradient" x1="0.5" x2="0.5" y2="1" gradientUnits="objectBoundingBox">
      <stop offset="0" stop-color="#ffb300"/>
      <stop offset="1" stop-color="#ffdd8c"/>
    </linearGradient>
  </defs>
  <g id="Group_42" data-name="Group 42" transform="translate(-859.808 -132.6)">
    <path id="Path_91" data-name="Path 91" d="M863.559,132.6H883.6a1.528,1.528,0,0,0,.218.076,4.2,4.2,0,0,1,3.453,3.66,30.743,30.743,0,0,1,.077,3.2q.008,13.445,0,26.891c0,1.407.036,2.822-.091,4.221a2.1,2.1,0,0,1-3.452,1.568,6.458,6.458,0,0,1-.921-.785q-4.489-4.477-8.968-8.967c-.107-.107-.219-.208-.4-.376a4.059,4.059,0,0,1-.31.4q-4.494,4.5-9,8.99a5.308,5.308,0,0,1-1.27.96,1.966,1.966,0,0,1-2.88-1.155,5.268,5.268,0,0,1-.241-1.65q-.024-12.036-.014-24.072c0-2.844,0-5.689.006-8.533a4.138,4.138,0,0,1,1.861-3.635A10.752,10.752,0,0,1,863.559,132.6Z" fill="url(#linear-gradient)"/>
  </g>
</svg>
