<svg xmlns="http://www.w3.org/2000/svg" width="44" height="44" viewBox="0 0 44 44">
  <g id="Group_68" data-name="Group 68" transform="translate(0.138 0.386)">
    <rect id="Rectangle_48" data-name="Rectangle 48" width="44" height="44" rx="8" transform="translate(-0.138 -0.386)" fill="#f80" opacity="0.13"/>
    <g id="Group_42" data-name="Group 42" transform="translate(14.862 10.614)">
      <path id="Path_91" data-name="Path 91" d="M861.8,132.6h10.654a.816.816,0,0,0,.116.04,2.23,2.23,0,0,1,1.835,1.945,16.346,16.346,0,0,1,.041,1.7q0,7.146,0,14.292c0,.748.019,1.5-.048,2.243a1.114,1.114,0,0,1-1.835.833,3.426,3.426,0,0,1-.489-.417q-2.386-2.38-4.766-4.766c-.057-.057-.117-.111-.211-.2a2.147,2.147,0,0,1-.165.215q-2.388,2.392-4.784,4.778a2.817,2.817,0,0,1-.675.51,1.045,1.045,0,0,1-1.531-.614,2.8,2.8,0,0,1-.128-.877q-.013-6.4-.008-12.794c0-1.512,0-3.023,0-4.535a2.2,2.2,0,0,1,.989-1.932A5.711,5.711,0,0,1,861.8,132.6Z" transform="translate(-859.808 -132.6)" fill="#f80"/>
    </g>
  </g>
</svg>
