<svg xmlns="http://www.w3.org/2000/svg" width="44" height="44" viewBox="0 0 44 44">
  <g id="Group_72" data-name="Group 72" transform="translate(0.29 -0.104)">
    <rect id="Rectangle_48" data-name="Rectangle 48" width="44" height="44" rx="8" transform="translate(-0.29 0.104)" fill="#036ee9" opacity="0.08"/>
    <g id="Group_70" data-name="Group 70" transform="translate(11.71 8.104)">
      <path id="Path_101" data-name="Path 101" d="M204.317,386.864a3.411,3.411,0,0,0,.04-4.531h2.255c.7,0,.852-.153.852-.848q0-1.186,0-2.372c0-.5-.183-.736-.557-.742s-.572.239-.573.725c0,.684,0,1.367,0,2.078H195.007q0-.948,0-1.9c0-.13.008-.26-.005-.389a.547.547,0,0,0-.566-.518.5.5,0,0,0-.545.5q-.035,1.486,0,2.972c.007.322.271.493.661.494,1.144,0,2.289,0,3.433,0h.4v4.533h-5.529a2.277,2.277,0,0,1-2.38-2.382c0-1.652-.006-3.3,0-4.955a5.666,5.666,0,0,1,6.17-5.672,4.279,4.279,0,0,0,3.459,3.958c0,.315,0,.679,0,1.042.007.4.21.635.552.642s.571-.232.576-.651c0-.353,0-.705,0-1.042a4.241,4.241,0,0,0,3.452-3.963,5.659,5.659,0,0,1,5.123,2.38,5.429,5.429,0,0,1,1.051,3.279q0,2.513,0,5.026a2.264,2.264,0,0,1-2.315,2.337C207.155,386.869,205.764,386.864,204.317,386.864Z" transform="translate(-190.472 -363.078)" fill="#036ee9"/>
      <path id="Path_102" data-name="Path 102" d="M240.1,527.985q0-.41,0-.82c0-1,0-2,0-3.027H226.5v.268q0,1.789,0,3.578Z" transform="translate(-223.102 -499.196)" fill="#036ee9"/>
      <path id="Path_103" data-name="Path 103" d="M256.485,314.02h7.884c.363,2.627-.943,4.453-3.02,4.974a3.962,3.962,0,0,1-4.862-3.676C256.473,314.9,256.485,314.473,256.485,314.02Z" transform="translate(-250.25 -308.911)" fill="#036ee9"/>
      <path id="Path_104" data-name="Path 104" d="M256.671,263.836a3.947,3.947,0,0,1,7.894,0Z" transform="translate(-250.42 -259.894)" fill="#036ee9"/>
      <path id="Path_105" data-name="Path 105" d="M286.754,463.826c.837,0,1.652-.04,2.46.01a2.245,2.245,0,0,1,2.042,2.091,2.188,2.188,0,0,1-1.838,2.329,19.194,19.194,0,0,1-2.664.024Z" transform="translate(-277.666 -444.563)" fill="#036ee9"/>
      <path id="Path_106" data-name="Path 106" d="M274.047,371.085a2.816,2.816,0,0,1-4.135,2.738,2.593,2.593,0,0,1-1.48-2.738A5.136,5.136,0,0,0,274.047,371.085Z" transform="translate(-261.047 -360.59)" fill="#036ee9"/>
    </g>
  </g>
</svg>
