<svg xmlns="http://www.w3.org/2000/svg" width="52.316" height="44.873" viewBox="0 0 52.316 44.873">
  <g id="Group_169" data-name="Group 169" transform="translate(-179.142 -413.6)">
    <g id="_84646" data-name="84646" transform="translate(179.142 362.676)">
      <path id="Path_190" data-name="Path 190" d="M52.217,76.382,42.182,59.925a.669.669,0,0,0-.814-.275l-1.2.467L40,59.841a.986.986,0,0,0-1.2-.405L26.157,64.361,13.514,59.435a.985.985,0,0,0-1.2.405l-.168.276-1.2-.467a.669.669,0,0,0-.814.275L.1,76.382a.669.669,0,0,0,.325.97l14.312,5.672-1.865,12a.669.669,0,0,0,.661.772H15.2a.669.669,0,0,0,.379-.117l10.578-7.266,10.578,7.266a.669.669,0,0,0,.379.117h1.671a.669.669,0,0,0,.661-.772l-1.865-12,14.312-5.672a.669.669,0,0,0,.325-.97ZM26.693,81.426V72.863a.535.535,0,1,0-1.07,0v8.563L6.164,73.714l7.4-12.142L25.8,66.338a.986.986,0,0,0,.716,0l12.232-4.766,7.4,12.142Z" transform="translate(0)" fill="#97bb1e"/>
      <path id="Path_191" data-name="Path 191" d="M226.48,104.721a.535.535,0,0,0-.693-.3l-7.894,3.077a.535.535,0,1,0,.389,1l7.894-3.077A.535.535,0,0,0,226.48,104.721Z" transform="translate(-188.444 -38.989)" fill="#97bb1e"/>
      <path id="Path_192" data-name="Path 192" d="M227.621,129.478a.535.535,0,1,0,.389,1L235.9,127.4a.535.535,0,0,0-.389-1Z" transform="translate(-196.871 -58.032)" fill="#97bb1e"/>
      <path id="Path_193" data-name="Path 193" d="M237.825,154.187a.535.535,0,0,0,.693.3l7.894-3.077a.535.535,0,0,0-.389-1l-7.894,3.077A.535.535,0,0,0,237.825,154.187Z" transform="translate(-205.972 -78.834)" fill="#97bb1e"/>
      <path id="Path_194" data-name="Path 194" d="M115.07,107.5l-7.894-3.077a.535.535,0,0,0-.389,1l7.894,3.077a.535.535,0,1,0,.389-1Z" transform="translate(-92.204 -38.99)" fill="#97bb1e"/>
      <path id="Path_195" data-name="Path 195" d="M105.342,129.479,97.448,126.4a.535.535,0,1,0-.389,1l7.894,3.077a.535.535,0,0,0,.389-1Z" transform="translate(-83.778 -58.033)" fill="#97bb1e"/>
      <path id="Path_196" data-name="Path 196" d="M94.834,153.5l-7.894-3.077a.535.535,0,0,0-.389,1l7.894,3.077a.535.535,0,0,0,.389-1Z" transform="translate(-74.676 -78.836)" fill="#97bb1e"/>
    </g>
    <g id="_599503" data-name="599503" transform="translate(201.106 413.6)">
      <path id="SVGCleanerId_0" d="M172.239,55.383a4.583,4.583,0,0,1-.64-.163,3.924,3.924,0,0,1-2.6-3.272.135.135,0,0,0-.266,0,3.9,3.9,0,0,1-3.23,3.438.135.135,0,0,0,0,.265,3.907,3.907,0,0,1,3.23,3.417.135.135,0,0,0,.266,0,4.1,4.1,0,0,1,1.872-2.924,4.184,4.184,0,0,1,1.366-.494.135.135,0,0,0,0-.265Z" transform="translate(-162.076 -51.527)" fill="#fd9434"/>
      <g id="Group_5" data-name="Group 5" transform="translate(3.319 0.309)">
        <path id="SVGCleanerId_0_1_" d="M172.239,55.383a4.583,4.583,0,0,1-.64-.163,3.924,3.924,0,0,1-2.6-3.272.135.135,0,0,0-.266,0,3.9,3.9,0,0,1-3.23,3.438.135.135,0,0,0,0,.265,3.907,3.907,0,0,1,3.23,3.417.135.135,0,0,0,.266,0,4.1,4.1,0,0,1,1.872-2.924,4.184,4.184,0,0,1,1.366-.494.135.135,0,0,0,0-.265Z" transform="translate(-165.395 -51.836)" fill="#ffb300"/>
      </g>
      <path id="Path_71" data-name="Path 71" d="M166.914,202.507a4.135,4.135,0,0,1-1.41.526.135.135,0,0,0,0,.265,3.907,3.907,0,0,1,3.23,3.417.135.135,0,0,0,.266,0,4.813,4.813,0,0,1,.626-1.7A3.727,3.727,0,0,0,166.914,202.507Z" transform="translate(-162.076 -199.175)" fill="#f7af07"/>
      <path id="Path_72" data-name="Path 72" d="M92.417,344.365a1.6,1.6,0,0,1-1.041-1.106.135.135,0,0,0-.258,0,1.623,1.623,0,0,1-1.041,1.106.135.135,0,0,0,0,.255,1.622,1.622,0,0,1,1.041,1.106.135.135,0,0,0,.258,0,1.654,1.654,0,0,1,.64-.907h0c.331-.227.493-.161.493-.325A.135.135,0,0,0,92.417,344.365Z" transform="translate(-88.18 -337.009)" fill="#ffb300"/>
      <path id="Path_73" data-name="Path 73" d="M90.616,388.188l-.011,0a1.6,1.6,0,0,1-.527.3.135.135,0,0,0,0,.255,1.622,1.622,0,0,1,1.041,1.106.136.136,0,0,0,.129.095c.19,0,.089-.227.406-.652A1.619,1.619,0,0,0,90.616,388.188Z" transform="translate(-88.181 -381.125)" fill="#f7af07"/>
      <path id="Path_74" data-name="Path 74" d="M2.443,37.643A1.6,1.6,0,0,1,1.4,36.537a.135.135,0,0,0-.258,0A1.623,1.623,0,0,1,.1,37.643a.135.135,0,0,0,0,.255A1.622,1.622,0,0,1,1.144,39,.135.135,0,0,0,1.4,39a1.616,1.616,0,0,1,.64-.907c.33-.226.493-.162.493-.325A.135.135,0,0,0,2.443,37.643Z" transform="translate(-0.012 -36.442)" fill="#ffb300"/>
      <path id="Path_75" data-name="Path 75" d="M.577,83.146c-.372.3-.577.214-.577.391a.135.135,0,0,0,.091.128,1.622,1.622,0,0,1,1.041,1.106.136.136,0,0,0,.129.095c.18,0,.094-.211.38-.618A1.632,1.632,0,0,0,.577,83.146Z" transform="translate(0 -82.209)" fill="#f7af07"/>
    </g>
  </g>
</svg>
