<svg xmlns="http://www.w3.org/2000/svg" xmlns:xlink="http://www.w3.org/1999/xlink" width="47.677" height="49.762" viewBox="0 0 47.677 49.762">
  <defs>
    <linearGradient id="linear-gradient" x1="27.811" y1="-24.513" x2="24.189" y2="38.388" gradientUnits="objectBoundingBox">
      <stop offset="0" stop-color="#75c3ff"/>
      <stop offset="1" stop-color="#082236"/>
    </linearGradient>
  </defs>
  <g id="Group_118" transform="translate(-61.383 -162.747)">
    <g id="_84660" transform="translate(61.383 174.832)">
      <path id="Path_145" d="M18.095,2.655a1.469,1.469,0,0,0-.182.163l-.019.029a2.356,2.356,0,0,0-.134-.526Z" transform="translate(-0.782 -0.137)" fill="url(#linear-gradient)"/>
      <path id="Path_146" d="M31.976,2.61a1.529,1.529,0,0,0-.048.2.253.253,0,0,0-.048-.057Z" transform="translate(-1.404 -0.15)" fill="url(#linear-gradient)"/>
      <path id="Path_147" d="M47.578,25.353a123.6,123.6,0,0,1-1.5-12.877c.019-2.008-.507-3.336-1.616-3.986a2.936,2.936,0,0,0-2.963.182,4.241,4.241,0,0,0-.918.784c-.086-.153-.172-.3-.268-.44l-.229-.382c-.7-1.128-1.405-2.294-2.189-3.4l-.3-.411A20.286,20.286,0,0,0,34.453.948,3.5,3.5,0,0,0,30.791.3a2.875,2.875,0,0,0-.813.564,3.84,3.84,0,0,0-3.164.44,3,3,0,0,0-1.2,2.2,3.979,3.979,0,0,0-1.243,1.338,5.107,5.107,0,0,0-.535,1.644A5.107,5.107,0,0,0,23.3,4.81,4.146,4.146,0,0,0,22.063,3.5a3.039,3.039,0,0,0-1.252-2.227A3.739,3.739,0,0,0,17.695.862a2.906,2.906,0,0,0-.86-.583A3.481,3.481,0,0,0,13.2.958a20.446,20.446,0,0,0-3.107,3.833l-.315.43C9,6.34,8.279,7.506,7.581,8.653c-.163.268-.325.526-.488.793a4.283,4.283,0,0,0-.9-.765A2.949,2.949,0,0,0,3.174,8.51c-1.071.631-1.606,1.96-1.577,3.91A124.361,124.361,0,0,1,.105,25.344a6.511,6.511,0,0,0,.249,3.288c.65,1.864,2.963,5.5,4.8,8.221l.4.593,2.323-1.558-.44-.6a48.083,48.083,0,0,1-4.455-7.562,3.668,3.668,0,0,1-.143-1.9,128.114,128.114,0,0,0,1.53-13.364,3.868,3.868,0,0,1,.191-1.491c.038.019.1.038.153.067A2.779,2.779,0,0,1,5.6,12.611,33.793,33.793,0,0,1,6.548,23.6l-.076.946.927-.191c1.912-.392,3.814,1.262,4.77,2.285L13.24,25.7c-.746-.908-2.581-2.858-4.742-3.183a34.757,34.757,0,0,0-.258-9.655l.793-1.291c.3-.468.593-.946.908-1.463.669-1.09,1.367-2.218,2.113-3.279l.325-.468a19.115,19.115,0,0,1,2.638-3.3.827.827,0,0,1,.65-.239,4.019,4.019,0,0,1-.134,1.539c-.765,3.4-2.705,6.567-4.589,9.626l-.707,1.147,1.195.793c.382-.526.813-1.08,1.252-1.663,2.352-3.059,5.248-6.854,5.65-10.678l.057-.029a1.054,1.054,0,0,1,.851.01.211.211,0,0,1,.057.182l-.01.1a1.316,1.316,0,0,1-.038.249v.019a45.265,45.265,0,0,1-4.407,11.2l1.224.746A48.63,48.63,0,0,0,20.954,6.32a2.8,2.8,0,0,1-.029,1.855l-.019.1a54.441,54.441,0,0,1-3.1,8.3l1.262.669a57.892,57.892,0,0,0,3.155-6.128,2.4,2.4,0,0,1,.048.354c.057,1.138-.287,3.786-3.1,8.8-1.042,1.864-.229,3.355.449,4.579a7.449,7.449,0,0,1,.985,2.629c.268,1.912-.832,5.334-2.6,8.154l-.382.6,2.352,1.482.373-.612c2.151-3.413,3.365-7.437,3.011-10.018a10.045,10.045,0,0,0-1.319-3.594c-.65-1.176-.7-1.405-.449-1.855a31.666,31.666,0,0,0,2.246-4.7,31.115,31.115,0,0,0,2.246,4.694c.249.459.2.688-.43,1.835A10.383,10.383,0,0,0,24.319,27.1c-.354,2.562.86,6.587,3.011,10l.382.612,2.342-1.482-.382-.6c-1.769-2.82-2.858-6.242-2.6-8.126a7.4,7.4,0,0,1,1-2.686c.66-1.195,1.472-2.686.43-4.55-2.925-5.22-3.145-7.9-3.1-8.776.01-.124.029-.249.048-.373a57.749,57.749,0,0,0,3.155,6.118l1.271-.669A53.64,53.64,0,0,1,26.776,8.29l-.019-.115a2.8,2.8,0,0,1-.029-1.855,48.668,48.668,0,0,0,4.894,9.741l1.233-.717C30.963,11.674,28.573,5.317,28.382,3.72a.371.371,0,0,1,0-.105v-.01a1.031,1.031,0,0,1,.918-.038.209.209,0,0,1,.048.029c.392,3.824,3.3,7.609,5.64,10.668.449.583.879,1.147,1.262,1.663l1.195-.793c-.335-.545-.688-1.109-1.052-1.692-2.084-3.288-4.436-7.017-4.417-10.611a.82.82,0,0,1,.688.22,19.945,19.945,0,0,1,2.648,3.327l.306.449c.736,1.032,1.415,2.151,2.113,3.279l.105.172c.258.421.535.86.8,1.291l.8,1.291a34.4,34.4,0,0,0-.268,9.655c-2.151.325-4,2.275-4.742,3.183l1.071.946c.966-1.023,2.858-2.677,4.77-2.285l.937.191-.076-.956a33.386,33.386,0,0,1,.956-11.032,2.643,2.643,0,0,1,.87-1.53c.057-.029.105-.048.143-.067a3.993,3.993,0,0,1,.2,1.568,126.774,126.774,0,0,0,1.539,13.288,3.909,3.909,0,0,1-.115,1.835,49.283,49.283,0,0,1-4.493,7.629l-.44.6,2.333,1.558.392-.593c1.5-2.227,4.111-6.252,4.8-8.221A6.593,6.593,0,0,0,47.578,25.353ZM17.131,2.717l-.019.029a2.356,2.356,0,0,0-.134-.526l.335.335A1.469,1.469,0,0,0,17.131,2.717Zm6.711,5.411a.168.168,0,0,1-.038-.048,1.765,1.765,0,0,1,.038-.22c.01.076.019.153.029.22C23.861,8.1,23.851,8.108,23.841,8.127ZM30.524,2.7a.253.253,0,0,0-.048-.057l.1-.143A1.528,1.528,0,0,0,30.524,2.7Z" transform="translate(0.001 -0.036)" fill="url(#linear-gradient)"/>
    </g>
    <g id="_599503" transform="translate(80.927 162.747)">
      <path id="SVGCleanerId_0" d="M172.6,55.571a4.827,4.827,0,0,1-.674-.172,4.133,4.133,0,0,1-2.737-3.446.142.142,0,0,0-.28,0,4.109,4.109,0,0,1-3.4,3.621.142.142,0,0,0,0,.279,4.114,4.114,0,0,1,3.4,3.6.142.142,0,0,0,.28,0,4.314,4.314,0,0,1,1.972-3.08,4.406,4.406,0,0,1,1.439-.521.142.142,0,0,0,0-.28Z" transform="translate(-161.899 -51.511)" fill="#fd9434"/>
      <g id="Group_5" transform="translate(3.495 0.325)">
        <path id="SVGCleanerId_0_1_" d="M172.6,55.571a4.827,4.827,0,0,1-.674-.172,4.133,4.133,0,0,1-2.737-3.446.142.142,0,0,0-.28,0,4.109,4.109,0,0,1-3.4,3.621.142.142,0,0,0,0,.279,4.114,4.114,0,0,1,3.4,3.6.142.142,0,0,0,.28,0,4.314,4.314,0,0,1,1.972-3.08,4.406,4.406,0,0,1,1.439-.521.142.142,0,0,0,0-.28Z" transform="translate(-165.395 -51.836)" fill="#ffb300"/>
      </g>
      <path id="Path_71" d="M167,202.507a4.355,4.355,0,0,1-1.485.553.142.142,0,0,0,0,.279,4.114,4.114,0,0,1,3.4,3.6.142.142,0,0,0,.28,0,5.068,5.068,0,0,1,.659-1.792A3.925,3.925,0,0,0,167,202.507Z" transform="translate(-161.899 -198.998)" fill="#f7af07"/>
      <path id="Path_72" d="M92.546,344.429a1.688,1.688,0,0,1-1.1-1.165.142.142,0,0,0-.271,0,1.709,1.709,0,0,1-1.1,1.164.142.142,0,0,0,0,.269,1.708,1.708,0,0,1,1.1,1.165.142.142,0,0,0,.271,0,1.741,1.741,0,0,1,.674-.956h0c.349-.239.52-.169.519-.342A.142.142,0,0,0,92.546,344.429Z" transform="translate(-88.084 -336.682)" fill="#ffb300"/>
      <path id="Path_73" d="M90.649,388.188l-.011,0a1.68,1.68,0,0,1-.555.313.142.142,0,0,0,0,.269,1.708,1.708,0,0,1,1.1,1.165.143.143,0,0,0,.136.1c.2,0,.094-.239.427-.687A1.705,1.705,0,0,0,90.649,388.188Z" transform="translate(-88.085 -380.75)" fill="#f7af07"/>
      <path id="Path_74" d="M2.572,37.707a1.687,1.687,0,0,1-1.1-1.165.142.142,0,0,0-.271,0,1.709,1.709,0,0,1-1.1,1.164.142.142,0,0,0,0,.269A1.708,1.708,0,0,1,1.2,39.14a.142.142,0,0,0,.271,0,1.7,1.7,0,0,1,.674-.956c.348-.238.52-.17.519-.342A.142.142,0,0,0,2.572,37.707Z" transform="translate(-0.012 -36.442)" fill="#ffb300"/>
      <path id="Path_75" d="M.608,83.146c-.392.313-.608.226-.608.412a.142.142,0,0,0,.1.134,1.708,1.708,0,0,1,1.1,1.165.143.143,0,0,0,.136.1c.19,0,.1-.222.4-.651A1.719,1.719,0,0,0,.608,83.146Z" transform="translate(0 -82.159)" fill="#f7af07"/>
    </g>
  </g>
</svg>
