<svg xmlns="http://www.w3.org/2000/svg" width="50.964" height="72.845" viewBox="0 0 50.964 72.845">
    <path id="Path_91"
        d="M866.34,132.6h34.9a2.65,2.65,0,0,0,.38.132,7.306,7.306,0,0,1,6.012,6.373,53.468,53.468,0,0,1,.134,5.578q.014,23.41,0,46.821c0,2.451.063,4.914-.158,7.349-.293,3.224-3.332,4.547-6.011,2.729a11.233,11.233,0,0,1-1.6-1.366q-7.816-7.8-15.614-15.613c-.186-.186-.382-.363-.69-.654a7.083,7.083,0,0,1-.54.7q-7.825,7.837-15.671,15.653a9.24,9.24,0,0,1-2.21,1.671,3.423,3.423,0,0,1-5.015-2.011,9.179,9.179,0,0,1-.42-2.872q-.042-20.957-.025-41.913c0-4.952-.006-9.9.011-14.857a7.2,7.2,0,0,1,3.241-6.328A18.721,18.721,0,0,1,866.34,132.6Z"
        transform="translate(-858.309 -131.1)" fill="none" stroke="#ffb300" stroke-width="3" />
</svg>
