<svg xmlns="http://www.w3.org/2000/svg" xmlns:xlink="http://www.w3.org/1999/xlink" width="35.387" height="49.211" viewBox="0 0 35.387 49.211">
  <defs>
    <linearGradient id="linear-gradient" x1="0.252" y1="0.204" x2="0.61" y2="0.804" gradientUnits="objectBoundingBox">
      <stop offset="0" stop-color="#2799f2"/>
      <stop offset="1" stop-color="#0072cb"/>
    </linearGradient>
  </defs>
  <g id="Group_120" transform="translate(-345.059 -35.888)">
    <path id="Path_163" d="M376.29,86.36h-.013V83.415c-.162-.929-.349-.937-1.676-.937q-2.887,0-5.774,0c-1.149,0-1.393.113-1.514,1.078v2.337h0v.95c0,2.3-.024,4.595.025,6.891a1.275,1.275,0,0,0,.566,1,1.373,1.373,0,0,0,1.156-.311c.937-.884,1.791-1.857,2.75-2.873.92.98,1.785,1.874,2.616,2.8.371.411.837.725,1.289.4a1.658,1.658,0,0,0,.549-1.177c.051-2.275.025-4.55.025-6.825Z" transform="translate(-4.671 -9.782)" fill="#fa0"/>
    <path id="Path_164" d="M380.437,43.788a3.1,3.1,0,0,0-2.5-3.353,5.213,5.213,0,0,1-.54-.153c0-.543.023-1.067,0-1.587a2.556,2.556,0,0,0-1.551-2.434,5.1,5.1,0,0,0-1.878-.352q-11.588-.033-23.177,0a5.726,5.726,0,0,0-5.7,5.516q-.057,14.512,0,29.023a5.6,5.6,0,0,0,5.326,5.621c2.919.127,5.848.054,8.773.066,1.082,0,2.169,0,3.292,0V74.218c-.149.012-.3.027-.45.027-3.646,0-7.292.008-10.938-.007a5.541,5.541,0,0,1-1.4-.19,1.184,1.184,0,0,1-.914-1.424,1.412,1.412,0,0,1,1.371-1.32c1.474-.025,2.948-.029,4.423-.028q9.972.011,19.944.027a2.82,2.82,0,0,0,2.916-2.931q-.008-9.86-.036-19.718c0-2.1,0-4.19,0-6.343.862-.033,1.186.295,1.194,1.2.017,2.047.007,4.094.007,6.141q0,11.51,0,23.019c0,1.238-.319,1.57-1.526,1.57-1.725,0-3.448-.008-5.173-.015a.139.139,0,0,1-.065-.021v1.925c1.808,0,3.515,0,5.218,0,2.305-.007,3.4-1.1,3.4-3.394C380.431,63.089,380.375,53.438,380.437,43.788Zm-14.221,4.237c-.062-.161.073-.4.117-.6.2.055.408.108.61.165.021.006.036.033.056.049,1.388,1.1,1.383,1.088,2.88.263a2.812,2.812,0,0,1,.789-.172,2.751,2.751,0,0,1-.088.821c-.634,1.443-.57,1.686.744,2.761a.946.946,0,0,1,.333.634c0,.111-.358.224-.393.245a3.1,3.1,0,0,1-.359,0c-1.915-.42-1.794.209-2.425,1.529a3.3,3.3,0,0,1-.426.552c-.141-.178-.384-.344-.406-.536a1.985,1.985,0,0,0-2.441-1.982c-.171.015-.36-.194-.541-.3.111-.177.183-.457.34-.516C366.452,50.384,366.744,49.394,366.217,48.025Zm3.859,11.438a9.378,9.378,0,0,1-8.031,3.722c-5.567.031-10.127-5.6-8.728-11.54a9.4,9.4,0,0,1,11.285-7.1c.2.043.351.322.525.491-.216.119-.434.348-.645.34a7.2,7.2,0,0,0-5.41,2.114,7.467,7.467,0,0,0-.736,9.524,7.361,7.361,0,0,0,9.619,2.023,6.694,6.694,0,0,0,2.858-3.061c.065-.134.081-.318.183-.4a3.408,3.408,0,0,1,.588-.331c.056.2.189.408.156.59A8.084,8.084,0,0,1,370.076,59.463Z" transform="translate(0 0)" fill="url(#linear-gradient)"/>
  </g>
</svg>
