<svg xmlns="http://www.w3.org/2000/svg" width="84.101" height="104.028" viewBox="0 0 84.101 104.028">
  <g id="Group_170" data-name="Group 170" transform="translate(-169 -375.366)">
    <g id="_3699572" data-name="3699572" transform="translate(125.6 394.286)">
      <g id="Group_149" data-name="Group 149" transform="translate(75.449 0)">
        <g id="Ellipse_20" data-name="Ellipse 20" fill="#fffbe1" stroke="#ffc144" stroke-width="4">
          <circle cx="4.991" cy="4.991" r="4.991" stroke="none"/>
          <circle cx="4.991" cy="4.991" r="6.991" fill="none"/>
        </g>
      </g>
      <g id="Group_151" data-name="Group 151" transform="translate(47.4 15.005)">
        <g id="Group_150" data-name="Group 150" transform="translate(0)">
          <g id="Path_222" data-name="Path 222" transform="translate(-167.969 -266.436)" fill="#fffbe1">
            <path d="M 185.4730529785156 314.4617004394531 L 188.9349365234375 308.2641906738281 L 194.7702941894531 297.8176879882812 L 196.0604248046875 295.5080871582031 L 197.9307861328125 297.3790283203125 L 202.5170593261719 301.9667358398438 L 204.3815307617188 303.831787109375 L 202.0827178955078 305.1241149902344 L 191.6610870361328 310.9829406738281 L 185.4730529785156 314.4617004394531 Z" stroke="none"/>
            <path d="M 190.6809997558594 309.2395324707031 L 201.1026306152344 303.3807373046875 L 196.516357421875 298.7930297851562 L 190.6809997558594 309.2395324707031 M 180.2651062011719 319.6838684082031 L 187.1888885498047 307.2888488769531 L 193.0242462158203 296.8423461914062 L 195.6044921875 292.22314453125 L 199.3452301025391 295.9650268554688 L 203.9315032958984 300.552734375 L 207.6604309082031 304.2828369140625 L 203.0628204345703 306.8675231933594 L 192.6411895751953 312.726318359375 L 180.2651062011719 319.6838684082031 Z" stroke="none" fill="#ffc144"/>
          </g>
          <g id="Path_223" data-name="Path 223" transform="translate(-217.916 -216.248)" fill="#fffbe1">
            <path d="M 255.0740966796875 252.9034118652344 L 253.2184753417969 251.0471496582031 L 248.6225433349609 246.4496307373047 L 246.7511444091797 244.5775756835938 L 249.0632019042969 243.2887573242188 L 259.6197509765625 237.4040832519531 L 265.8683776855469 233.9208374023438 L 262.3320922851562 240.1396179199219 L 256.3715209960938 250.6217956542969 L 255.0740966796875 252.9034118652344 Z" stroke="none"/>
            <path d="M 254.6329345703125 249.6331787109375 L 260.5935363769531 239.1510009765625 L 250.0370025634766 245.0356597900391 L 254.6329345703125 249.6331787109375 M 255.5152435302734 256.1736450195312 L 251.8040161132812 252.4611206054688 L 247.2080841064453 247.8636016845703 L 243.4653015136719 244.1195068359375 L 248.0894012451172 241.5418243408203 L 258.6459350585938 235.6571655273438 L 271.1431884765625 228.6906585693359 L 264.0706787109375 241.1282501220703 L 258.1100769042969 251.6104278564453 L 255.5152435302734 256.1736450195312 Z" stroke="none" fill="#ffc144"/>
          </g>
          <g id="Path_224" data-name="Path 224" transform="translate(-47.4 -94.663)" fill="#fffbe1">
            <path d="M 80.4405517578125 162.7658233642578 C 61.11912155151367 162.7658233642578 45.39999008178711 147.0418548583984 45.39999008178711 127.714485168457 C 45.39999008178711 108.3870315551758 61.11912155151367 92.66300201416016 80.4405517578125 92.66300201416016 C 99.76197814941406 92.66300201416016 115.4811096191406 108.3870315551758 115.4811096191406 127.714485168457 C 115.4811096191406 147.0418548583984 99.76197814941406 162.7658233642578 80.4405517578125 162.7658233642578 Z M 74.92164611816406 122.6022033691406 C 74.91812896728516 122.6079483032227 74.91512298583984 122.6130905151367 74.91230010986328 122.6181259155273 L 63.07764053344727 143.8042755126953 C 62.96335220336914 144.0088043212891 62.99939346313477 144.2669525146484 63.1651611328125 144.4322662353516 C 63.29903030395508 144.5657806396484 63.45558166503906 144.585693359375 63.53699111938477 144.585693359375 C 63.62769317626953 144.585693359375 63.7141227722168 144.5629730224609 63.79388046264648 144.5181427001953 L 84.93140411376953 132.6351776123047 C 84.93132781982422 132.6352233886719 84.93128967285156 132.6352386474609 84.93128967285156 132.6352386474609 C 84.93126678466797 132.6352386474609 84.93668365478516 132.6320953369141 84.94855499267578 132.6245574951172 L 84.96703338623047 132.6119384765625 C 84.97787475585938 132.6045989990234 84.98722839355469 132.59765625 84.99732971191406 132.5896453857422 L 85.00785064697266 132.5812225341797 C 85.02476501464844 132.5670928955078 85.03504943847656 132.5580139160156 85.04061889648438 132.552978515625 C 85.04360198974609 132.5499420166016 85.04660034179688 132.5469055175781 85.04961395263672 132.5438842773438 C 85.04951477050781 132.5439910888672 85.04946899414062 132.5440368652344 85.04946136474609 132.5440368652344 C 85.04942321777344 132.5440368652344 85.05772399902344 132.5353088378906 85.07498168945312 132.5146331787109 L 85.07978820800781 132.5088958740234 L 85.08463287353516 132.503173828125 C 85.09382629394531 132.4916076660156 85.10020446777344 132.483154296875 85.10443878173828 132.4773406982422 L 85.11362457275391 132.4627075195312 L 85.12284851074219 132.4481353759766 L 85.13689422607422 132.4258575439453 L 97.19416809082031 111.2221374511719 C 97.31024932861328 111.0179672241211 97.27579498291016 110.7586517333984 97.11029815673828 110.5915908813477 C 96.9769287109375 110.4570999145508 96.81919860839844 110.4368896484375 96.73712921142578 110.4368896484375 C 96.6470947265625 110.4368896484375 96.56123352050781 110.4592971801758 96.48194122314453 110.5034790039062 L 75.11629486083984 122.4135818481445 C 75.11249542236328 122.4156875610352 75.10836791992188 122.4180450439453 75.10366058349609 122.4208450317383 C 75.09782409667969 122.4249496459961 75.09205627441406 122.4289627075195 75.08628845214844 122.4329376220703 L 75.08005523681641 122.4372482299805 L 75.07376861572266 122.4415054321289 C 75.06587982177734 122.4468612670898 75.05753326416016 122.4530181884766 75.04894256591797 122.4598159790039 L 75.03671264648438 122.4696884155273 C 75.01734924316406 122.4858779907227 75.00698852539062 122.4951400756836 75.00243377685547 122.4993133544922 L 75.00135803222656 122.5003890991211 C 75.00131988525391 122.5004272460938 74.99172973632812 122.5102996826172 74.96889495849609 122.53759765625 L 74.96620178222656 122.5408096313477 L 74.95735168457031 122.551872253418 C 74.95207977294922 122.5585021972656 74.94556427001953 122.5674362182617 74.93859100341797 122.5776519775391 C 74.93372344970703 122.5848236083984 74.92788696289062 122.59326171875 74.92164611816406 122.6022033691406 Z" stroke="none"/>
            <path d="M 80.4405517578125 94.66299438476562 C 62.22196197509766 94.66299438476562 47.39998626708984 109.4898834228516 47.39998626708984 127.7144927978516 C 47.39998626708984 145.9390869140625 62.22196197509766 160.7658233642578 80.4405517578125 160.7658233642578 C 98.65914916992188 160.7658233642578 113.4811096191406 145.9389495849609 113.4811096191406 127.7144927978516 C 113.4811096191406 109.4900360107422 98.65914916992188 94.66299438476562 80.4405517578125 94.66299438476562 M 98.9327392578125 112.2107696533203 L 98.9327392578125 112.2107543945312 L 86.86906433105469 133.4257354736328 C 86.84877777099609 133.4613952636719 86.82659149169922 133.4959564208984 86.80471801757812 133.530517578125 C 86.79330444335938 133.548583984375 86.78220367431641 133.5668182373047 86.77031707763672 133.5845642089844 C 86.73290252685547 133.6401977539062 86.69295501708984 133.6939392089844 86.65142822265625 133.7462463378906 C 86.63795471191406 133.7632141113281 86.62416076660156 133.7799987792969 86.61005401611328 133.7966613769531 C 86.56425476074219 133.8515014648438 86.51683807373047 133.9047698974609 86.46659851074219 133.955322265625 C 86.46406555175781 133.9578704833984 86.46199798583984 133.9607238769531 86.45946502685547 133.9632568359375 C 86.45882415771484 133.9638977050781 86.45819854736328 133.96435546875 86.45756530761719 133.96484375 C 86.40446472167969 134.0177917480469 86.34819030761719 134.0675659179688 86.29050445556641 134.1157531738281 C 86.27384948730469 134.1296997070312 86.25688934326172 134.143310546875 86.23992919921875 134.1567993164062 C 86.19174194335938 134.1950073242188 86.14211273193359 134.2315979003906 86.09107971191406 134.2661743164062 C 86.07524108886719 134.2769470214844 86.05937957763672 134.2880554199219 86.04337310791016 134.2983551025391 C 86.00026702880859 134.3262481689453 85.95651245117188 134.3532104492188 85.91149139404297 134.3785705566406 L 64.77371215820312 146.2616882324219 C 64.38615417480469 146.4794921875 63.95989990234375 146.585693359375 63.5369873046875 146.585693359375 C 62.88422393798828 146.585693359375 62.23876190185547 146.3330230712891 61.75291442871094 145.8484497070312 C 60.95211791992188 145.0498657226562 60.77996063232422 143.8161315917969 61.33158874511719 142.8289184570312 L 73.16731262207031 121.6408843994141 C 73.19474029541016 121.5919036865234 73.2237548828125 121.5440368652344 73.25417327880859 121.4972686767578 C 73.2646484375 121.4811096191406 73.27621459960938 121.465576171875 73.2869873046875 121.4497222900391 C 73.32044219970703 121.4007415771484 73.35531616210938 121.3531951904297 73.39208984375 121.3069000244141 C 73.40620422363281 121.2891540527344 73.42030334472656 121.2715606689453 73.43503570556641 121.2541198730469 C 73.48291778564453 121.1968994140625 73.53237915039062 121.1410980224609 73.58499908447266 121.0883178710938 C 73.58562469482422 121.0876770019531 73.58595275878906 121.0870513916016 73.58658599853516 121.0865631103516 L 73.58689880371094 121.0862579345703 C 73.64016723632812 121.0329895019531 73.69675445556641 120.9830627441406 73.7547607421875 120.9345550537109 C 73.77204895019531 120.9201202392578 73.78932952880859 120.9061737060547 73.80691528320312 120.8922271728516 C 73.85352325439453 120.8553009033203 73.90155029296875 120.8199462890625 73.95085144042969 120.7864990234375 C 73.96463775634766 120.7769927978516 73.97811126708984 120.7666931152344 73.9920654296875 120.7574920654297 C 74.04105377197266 120.7256317138672 74.09112548828125 120.6952056884766 74.14248657226562 120.6666717529297 L 95.50836181640625 108.7564392089844 C 95.89402008056641 108.5415191650391 96.31723022460938 108.4369201660156 96.73712921142578 108.4368896484375 C 97.39469909667969 108.4368438720703 98.04441833496094 108.6932525634766 98.53121948242188 109.1840972900391 C 99.32838439941406 109.9888763427734 99.49259948730469 111.22607421875 98.9327392578125 112.2107696533203 M 80.4405517578125 90.66299438476562 C 100.8647918701172 90.66299438476562 117.4811096191406 107.2842407226562 117.4811096191406 127.7144927978516 C 117.4811096191406 148.1446685791016 100.8647918701172 164.7658233642578 80.4405517578125 164.7658233642578 C 60.01631164550781 164.7658233642578 43.39998626708984 148.1446685791016 43.39998626708984 127.7144927978516 C 43.39998626708984 107.2842407226562 60.01631164550781 90.66299438476562 80.4405517578125 90.66299438476562 Z M 83.59439849853516 131.0924377441406 L 92.84822082519531 114.8188171386719 L 76.45534515380859 123.9568939208984 L 67.37644195556641 140.2097473144531 L 83.59439849853516 131.0924377441406 Z" stroke="none" fill="#ffc144"/>
          </g>
        </g>
      </g>
    </g>
    <g id="Group_152" data-name="Group 152" transform="matrix(0.602, 0.799, -0.799, 0.602, -939.578, -1016.676)">
      <path id="Path_225" data-name="Path 225" d="M1837.229-88.45c-2.255,1.45-3.825.814-4.409-1.786a7.137,7.137,0,0,1,1.338-6.493,3.443,3.443,0,0,0-.211-4.478,3.136,3.136,0,0,0-3.929-.865,3.287,3.287,0,0,0-1.777,4.08c.4,1.735-.122,2.9-1.443,3.234s-2.419-.483-2.883-2.133a7.823,7.823,0,0,1,3.126-8.734,7.882,7.882,0,0,1,9.279.444l1.049.829a7.992,7.992,0,0,1,2.394,7.093,6.868,6.868,0,0,1-.74,2.051c-1.045,1.585-1.775,3.173-1.125,5.149A1.425,1.425,0,0,1,1837.229-88.45Z" transform="translate(0)" fill="#ffb300"/>
      <path id="Path_226" data-name="Path 226" d="M1860.893-40.739a2.227,2.227,0,0,1-1.613-2.3,2.444,2.444,0,0,1,1.994-2.2c1.319-.327,2.092.476,2.684,1.427a1.97,1.97,0,0,1-.236,2.347A2.337,2.337,0,0,1,1860.893-40.739Z" transform="translate(-23.623 -40.792)" fill="#ffb300"/>
    </g>
    <g id="Group_153" data-name="Group 153" transform="matrix(0.985, -0.174, 0.174, 0.985, -1607.695, 808.098)">
      <path id="Path_225-2" data-name="Path 225" d="M1832.7-94.588c-1.506.968-2.554.544-2.944-1.193a4.766,4.766,0,0,1,.893-4.336,2.3,2.3,0,0,0-.141-2.99,2.094,2.094,0,0,0-2.624-.578,2.195,2.195,0,0,0-1.187,2.725c.267,1.159-.082,1.939-.964,2.159s-1.615-.322-1.925-1.424a5.224,5.224,0,0,1,2.088-5.833,5.264,5.264,0,0,1,6.2.3l.7.554a5.337,5.337,0,0,1,1.6,4.736,4.589,4.589,0,0,1-.494,1.37,3.771,3.771,0,0,0-.751,3.438A.951.951,0,0,1,1832.7-94.588Z" transform="translate(0)" fill="#ffb300"/>
      <path id="Path_226-2" data-name="Path 226" d="M1860.356-42.259a1.487,1.487,0,0,1-1.077-1.535,1.632,1.632,0,0,1,1.332-1.472c.881-.218,1.4.318,1.793.953a1.316,1.316,0,0,1-.158,1.568A1.56,1.56,0,0,1,1860.356-42.259Z" transform="translate(-27.628 -47.708)" fill="#ffb300"/>
    </g>
  </g>
</svg>
