<svg xmlns="http://www.w3.org/2000/svg" width="46" height="43" viewBox="0 0 46 43">
  <g id="Group_168" transform="translate(-144 -61)">
    <rect id="Rectangle_35" width="46" height="43" rx="8" transform="translate(144 61)" fill="#605959" opacity="0.12"/>
    <g id="Group_48" transform="translate(156.585 71.17)">
      <path id="Path_94" d="M1688.81,53.377c.464.232.641.5.591.886a.746.746,0,0,1-.755.68c-.827.01-1.654,0-2.48.006-.26,0-.521.006-.782,0a.787.787,0,0,1-.311-1.525.493.493,0,0,0,.07-.047Z" transform="translate(-1677.156 -53.377)" fill="#605959"/>
      <path id="Path_95" d="M1570.408,113.763a9.814,9.814,0,1,1,9.572,9.813A9.788,9.788,0,0,1,1570.408,113.763Zm10.592-.476V113c0-1.341,0-2.683,0-4.024a.773.773,0,0,0-.972-.783.79.79,0,0,0-.577.848q-.006,1.923,0,3.845c0,.417-.008.835.018,1.251a.725.725,0,0,0,.731.676q2.068.008,4.136,0a.718.718,0,0,0,.678-.466.765.765,0,0,0-.724-1.056c-1.006-.007-2.012,0-3.018,0Z" transform="translate(-1570.408 -100.68)" fill="#605959"/>
      <path id="Path_96" d="M1829.594,96.687a1.523,1.523,0,0,1,.432.232q1.093,1.056,2.154,2.145a.71.71,0,0,1-.024,1.039.77.77,0,0,1-1.12.039c-.7-.688-1.394-1.388-2.088-2.084a.82.82,0,0,1-.124-.158.78.78,0,0,1-.025-.827A.837.837,0,0,1,1829.594,96.687Z" transform="translate(-1811.948 -93.879)" fill="#605959"/>
    </g>
  </g>
</svg>
