<svg xmlns="http://www.w3.org/2000/svg" width="43" height="43" viewBox="0 0 43 43">
  <g id="Group_85" data-name="Group 85" transform="translate(0.447 0)">
    <rect id="Rectangle_36" data-name="Rectangle 36" width="43" height="43" rx="8" transform="translate(-0.447 0)" fill="#f2f2f2" opacity="0.12"/>
    <g id="Group_47" data-name="Group 47" transform="translate(11.179 11.339)">
      <path id="Path_93" data-name="Path 93" d="M789.491,110.089H786.7a.871.871,0,0,1-.488-.656c-.155-.676-.332-1.348-.489-2.024a.332.332,0,0,0-.237-.266q-.5-.188-.978-.41a.315.315,0,0,0-.337.024c-.505.311-1.015.613-1.525.916a.657.657,0,0,1-.935-.118q-.791-.787-1.578-1.578a.661.661,0,0,1-.11-.937c.307-.515.621-1.026.921-1.546a.362.362,0,0,0,.016-.274q-.2-.534-.441-1.054a.365.365,0,0,0-.2-.186c-.672-.175-1.345-.346-2.022-.5a.893.893,0,0,1-.7-.5V98.2a.857.857,0,0,1,.637-.483c.684-.158,1.363-.335,2.046-.5a.308.308,0,0,0,.255-.22c.1-.282.215-.56.34-.832a.338.338,0,0,0-.027-.357c-.349-.57-.689-1.146-1.031-1.721a.664.664,0,0,1,.119-.953q.774-.777,1.551-1.551a.662.662,0,0,1,.967-.12c.563.335,1.123.676,1.69,1a.36.36,0,0,0,.275.018c.368-.143.725-.313,1.094-.455a.3.3,0,0,0,.208-.242q.259-1.073.528-2.143a.629.629,0,0,1,.7-.549q1.138,0,2.276,0a.635.635,0,0,1,.719.553q.27,1.07.528,2.143a.3.3,0,0,0,.211.239c.332.123.658.262.981.408a.3.3,0,0,0,.319-.014c.529-.326,1.064-.64,1.6-.958a.661.661,0,0,1,.966.115q.777.775,1.551,1.551a.656.656,0,0,1,.119.966c-.315.527-.627,1.056-.951,1.578a.331.331,0,0,0-.014.357q.218.473.4.961a.315.315,0,0,0,.254.223c.709.169,1.416.345,2.123.524a.64.64,0,0,1,.563.731q0,1.128,0,2.255a.634.634,0,0,1-.56.712q-1.07.269-2.143.529a.283.283,0,0,0-.227.2c-.124.331-.262.658-.408.98a.277.277,0,0,0,.013.3c.318.517.627,1.04.938,1.562a.673.673,0,0,1-.117,1q-.768.769-1.536,1.537a.672.672,0,0,1-.97.118c-.521-.311-1.044-.622-1.562-.938a.26.26,0,0,0-.279-.021c-.353.162-.71.314-1.072.454a.285.285,0,0,0-.2.228c-.161.669-.336,1.335-.487,2.006A.894.894,0,0,1,789.491,110.089Zm-5.7-10.543a4.3,4.3,0,1,0,4.349-4.252A4.3,4.3,0,0,0,783.793,99.546Z" transform="translate(-777.6 -89.095)" fill="#f2f2f2"/>
    </g>
  </g>
</svg>
