<svg xmlns="http://www.w3.org/2000/svg" xmlns:xlink="http://www.w3.org/1999/xlink" width="57.322" height="58.611" viewBox="0 0 57.322 58.611">
  <defs>
    <linearGradient id="linear-gradient" x1="0.5" x2="0.5" y2="1" gradientUnits="objectBoundingBox">
      <stop offset="0" stop-color="#2799f2"/>
      <stop offset="1" stop-color="#0072cb"/>
    </linearGradient>
    <linearGradient id="linear-gradient-2" x1="0.5" x2="0.5" y2="1" gradientUnits="objectBoundingBox">
      <stop offset="0" stop-color="#ffb300"/>
      <stop offset="1" stop-color="#f0a900"/>
    </linearGradient>
    <linearGradient id="linear-gradient-3" x1="0.5" x2="0.5" y2="1" gradientUnits="objectBoundingBox">
      <stop offset="0" stop-color="#2986ce"/>
      <stop offset="1" stop-color="#0069bb"/>
    </linearGradient>
  </defs>
  <g id="Group_39" data-name="Group 39" transform="translate(-326.269 -55.47)">
    <path id="Path_84" data-name="Path 84" d="M355.29,114.081c-1.084-.153-2.173-.275-3.251-.465a30.984,30.984,0,0,1-24.981-23.653,30.593,30.593,0,0,1,16.224-34.254c.086-.042.172-.087.26-.125a1.053,1.053,0,0,1,1.309.276,1.072,1.072,0,0,1,.011,1.384c-.543.749-1.131,1.468-1.642,2.238A27.251,27.251,0,0,0,338.535,75.6a28.009,28.009,0,0,0,21.75,26.673,26.773,26.773,0,0,0,15.973-.984,45.063,45.063,0,0,0,5.554-2.94c.813-.449,1.636-.229,1.769.6a1.594,1.594,0,0,1-.266,1.011,30.9,30.9,0,0,1-23.531,14.023,2.8,2.8,0,0,0-.439.1Z" transform="translate(0 0)" fill="url(#linear-gradient)"/>
    <path id="Path_85" data-name="Path 85" d="M376.053,90.839c1.4,0,2.749.006,4.1,0,.727,0,1.18-.369,1.231-.959.06-.689-.385-1.159-1.186-1.177-1.157-.026-2.315-.009-3.473-.011h-.664V86.555H384.6c.016.163.044.311.044.46,0,1.7.016,3.4-.014,5.093a1.02,1.02,0,0,1-.359.693,6.674,6.674,0,0,0-2.811,6.013,13.593,13.593,0,0,0,.515,3,4.246,4.246,0,0,0,2.327,2.668.642.642,0,0,1,.329.451c.018,3.489.014,6.978.014,10.581-.79-.258-1.521-.464-2.227-.734a24.485,24.485,0,0,1-6.03-3.256.937.937,0,0,1-.355-.636q-.028-9.839-.013-19.678C376.021,91.111,376.037,91.017,376.053,90.839Z" transform="translate(-24.927 -15.575)" fill="url(#linear-gradient-2)"/>
    <path id="Path_86" data-name="Path 86" d="M400.833,92.492c1.37,1.966,3.442,2.8,5.457,3.72.558.256,1.1.558,1.631.866,2.914,1.678,3.092,4.663,2.116,7.206a2.083,2.083,0,0,1-2.158,1.409c-4.591-.031-9.183-.013-13.774-.013-1.644,0-2.368-.51-2.735-2.124-.734-3.233.054-5.243,2.837-6.758.423-.23.857-.439,1.288-.653.207-.1.418-.2.631-.288A10.4,10.4,0,0,0,400.833,92.492Z" transform="translate(-32.487 -18.549)" fill="url(#linear-gradient-3)"/>
    <path id="Path_87" data-name="Path 87" d="M410.589,123.305c.01.208.025.377.026.546,0,3.048-.009,6.1.012,9.143a.626.626,0,0,1-.537.716,25.988,25.988,0,0,1-12.054.777,3.06,3.06,0,0,1-.356-.108V123.305ZM406.3,127.6h-.012c0,.327,0,.655,0,.982a1.311,1.311,0,0,0,.016.172,1.051,1.051,0,0,0,.979.966,1,1,0,0,0,1.1-.883,16.829,16.829,0,0,0,.007-2.478,1.051,1.051,0,0,0-2.089.087C406.277,126.826,406.3,127.213,406.3,127.6Zm-4.35.028h0c0-.385.02-.771,0-1.154a1.038,1.038,0,0,0-1.1-1.012.981.981,0,0,0-1,1.034c-.022.711-.02,1.424,0,2.135a1.035,1.035,0,0,0,1.028,1.086,1.07,1.07,0,0,0,1.083-1.108C401.966,128.281,401.954,127.953,401.954,127.627Z" transform="translate(-35.779 -33.987)" fill="url(#linear-gradient-2)"/>
    <path id="Path_88" data-name="Path 88" d="M378.09,64.193a8.817,8.817,0,0,0,3.328,2.338,11.914,11.914,0,0,1,1.879,1.124,4.043,4.043,0,0,1,.776,5,1.054,1.054,0,0,1-.956.527q-5.006-.021-10.011,0a1.163,1.163,0,0,1-1.117-.753,3.929,3.929,0,0,1,1.424-5.162,20.539,20.539,0,0,1,1.836-.972A7.534,7.534,0,0,0,378.09,64.193Z" transform="translate(-22.685 -4.371)" fill="url(#linear-gradient-3)"/>
    <path id="Path_89" data-name="Path 89" d="M403.245,68.948a3.758,3.758,0,0,1,2.322-3.432,1.135,1.135,0,0,1,1.622.478c.278.6.01,1.16-.727,1.513a1.546,1.546,0,0,0,.251,2.98,1.574,1.574,0,0,0,1.673-.865,1.094,1.094,0,0,1,1.542-.548,1.129,1.129,0,0,1,.36,1.606,3.747,3.747,0,0,1-4.254,1.888A3.789,3.789,0,0,1,403.245,68.948Z" transform="translate(-38.567 -4.961)" fill="#2986ce"/>
    <path id="Path_90" data-name="Path 90" d="M409.5,84.313a1.083,1.083,0,0,1,1.066,1.133,1.071,1.071,0,0,1-1.087,1.045A1.1,1.1,0,0,1,408.4,85.37,1.141,1.141,0,0,1,409.5,84.313Z" transform="translate(-41.149 -14.451)" fill="#2986ce"/>
  </g>
</svg>
