<svg xmlns="http://www.w3.org/2000/svg" xmlns:xlink="http://www.w3.org/1999/xlink" width="58.646" height="77.266" viewBox="0 0 58.646 77.266">
  <defs>
    <linearGradient id="linear-gradient" x1="1.423" y1="-3.52" x2="1.475" y2="9.136" gradientUnits="objectBoundingBox">
      <stop offset="0" stop-color="#86b90d"/>
      <stop offset="1" stop-color="#d4ffcf"/>
    </linearGradient>
  </defs>
  <g id="Group_8" data-name="Group 8" transform="translate(-63.316 -157)">
    <g id="_2759756" data-name="2759756" transform="translate(63.316 175.627)">
      <path id="Path_63" data-name="Path 63" d="M62.846,445.146l13.89-3.959-16.089-4.6V443.5a1.718,1.718,0,0,0,2.2,1.649Z" transform="translate(-53.659 -386.569)" fill="url(#linear-gradient)"/>
      <path id="Path_64" data-name="Path 64" d="M325.58,444.975a1.693,1.693,0,0,0,.687-1.374v-6.912l-16.09,4.6,13.89,3.958A1.692,1.692,0,0,0,325.58,444.975Z" transform="translate(-274.608 -386.673)" fill="url(#linear-gradient)"/>
      <path id="Path_65" data-name="Path 65" d="M288.181,1.749A1.718,1.718,0,0,0,285.92.119L271,5.091V35.135a11.219,11.219,0,0,1,4.258-2.6l12.923-4.307V1.749Z" transform="translate(-239.959 -0.029)" fill="url(#linear-gradient)"/>
      <path id="Path_66" data-name="Path 66" d="M108.181,35.136V5.091L93.261.118A1.718,1.718,0,0,0,91,1.749v26.48l12.923,4.308a11.212,11.212,0,0,1,4.258,2.6Z" transform="translate(-80.577 -0.029)" fill="url(#linear-gradient)"/>
      <path id="Path_67" data-name="Path 67" d="M56.309,60.1l-4.65,1.718V89.434a1.716,1.716,0,0,1-1.175,1.629L29.866,97.936a1.707,1.707,0,0,1-1.087,0L8.162,91.064a1.716,1.716,0,0,1-1.175-1.629V61.818L2.337,60.1a1.714,1.714,0,0,0-1.581.206A1.686,1.686,0,0,0,0,61.715V96.307a1.732,1.732,0,0,0,1.237,1.649c.824.234.323.09.1.026.649.186,5.472,1.536,27.984,7.98h0c2.861-.822,2.167-.588,28.086-8.007a1.732,1.732,0,0,0,1.237-1.649V61.715a1.686,1.686,0,0,0-.756-1.409,1.714,1.714,0,0,0-1.581-.206ZM1.293,97.969Z" transform="translate(0 -53.124)" fill="url(#linear-gradient)"/>
      <path id="Path_68" data-name="Path 68" d="M255.967,461.324Z" transform="translate(-226.647 -408.486)" fill="url(#linear-gradient)"/>
      <path id="Path_69" data-name="Path 69" d="M91,281.089l16.757,5.586a7.8,7.8,0,0,0-4.921-4.89L91,277.838Z" transform="translate(-80.577 -246.017)" fill="url(#linear-gradient)"/>
      <path id="Path_70" data-name="Path 70" d="M274.7,286.673l16.757-5.586v-3.251l-11.836,3.946A7.8,7.8,0,0,0,274.7,286.673Z" transform="translate(-243.239 -246.015)" fill="url(#linear-gradient)"/>
    </g>
    <g id="_599503" data-name="599503" transform="translate(83.805 157)">
      <path id="SVGCleanerId_0" d="M177.411,58.063a8.048,8.048,0,0,1-1.124-.287,6.89,6.89,0,0,1-4.563-5.745.237.237,0,0,0-.467,0c-.563,3.184-2.438,5.436-5.67,6.036a.237.237,0,0,0,0,.466,6.859,6.859,0,0,1,5.671,6,.237.237,0,0,0,.467,0,7.192,7.192,0,0,1,3.287-5.134,7.345,7.345,0,0,1,2.4-.868.237.237,0,0,0,0-.466Z" transform="translate(-159.568 -51.294)" fill="#fd9434"/>
      <g id="Group_5" data-name="Group 5" transform="translate(5.827 0.542)">
        <path id="SVGCleanerId_0_1_" d="M177.411,58.063a8.048,8.048,0,0,1-1.124-.287,6.89,6.89,0,0,1-4.563-5.745.237.237,0,0,0-.467,0c-.563,3.184-2.438,5.436-5.67,6.036a.237.237,0,0,0,0,.466,6.859,6.859,0,0,1,5.671,6,.237.237,0,0,0,.467,0,7.192,7.192,0,0,1,3.287-5.134,7.345,7.345,0,0,1,2.4-.868.237.237,0,0,0,0-.466Z" transform="translate(-165.395 -51.836)" fill="#ffb300"/>
      </g>
      <path id="Path_71" data-name="Path 71" d="M168.063,202.507a7.261,7.261,0,0,1-2.475.923.237.237,0,0,0,0,.466,6.859,6.859,0,0,1,5.671,6,.237.237,0,0,0,.467,0,8.449,8.449,0,0,1,1.1-2.987A6.543,6.543,0,0,0,168.063,202.507Z" transform="translate(-159.568 -196.657)" fill="#f7af07"/>
      <path id="Path_72" data-name="Path 72" d="M94.254,345.272a2.813,2.813,0,0,1-1.828-1.942.237.237,0,0,0-.452,0,2.849,2.849,0,0,1-1.828,1.941.237.237,0,0,0,0,.448,2.847,2.847,0,0,1,1.828,1.942.237.237,0,0,0,.452,0,2.9,2.9,0,0,1,1.124-1.593h0c.581-.4.866-.283.866-.571A.237.237,0,0,0,94.254,345.272Z" transform="translate(-86.816 -332.358)" fill="#ffb300"/>
      <path id="Path_73" data-name="Path 73" d="M91.091,388.191l-.019-.008a2.8,2.8,0,0,1-.925.521.237.237,0,0,0,0,.448,2.847,2.847,0,0,1,1.828,1.942.238.238,0,0,0,.226.166c.334,0,.156-.4.712-1.145A2.843,2.843,0,0,0,91.091,388.191Z" transform="translate(-86.817 -375.791)" fill="#f7af07"/>
      <path id="Path_74" data-name="Path 74" d="M4.28,38.551a2.813,2.813,0,0,1-1.828-1.942.237.237,0,0,0-.452,0A2.849,2.849,0,0,1,.172,38.55a.237.237,0,0,0,0,.448A2.848,2.848,0,0,1,2,40.94a.237.237,0,0,0,.452,0,2.836,2.836,0,0,1,1.124-1.593c.579-.4.866-.284.866-.571A.237.237,0,0,0,4.28,38.551Z" transform="translate(-0.012 -36.442)" fill="#ffb300"/>
      <path id="Path_75" data-name="Path 75" d="M1.013,83.146C.36,83.668,0,83.522,0,83.832a.237.237,0,0,0,.16.224A2.848,2.848,0,0,1,1.988,86a.238.238,0,0,0,.226.166c.317,0,.165-.371.667-1.085A2.865,2.865,0,0,0,1.013,83.146Z" transform="translate(0 -81.501)" fill="#f7af07"/>
    </g>
  </g>
</svg>
