<svg xmlns="http://www.w3.org/2000/svg" width="168.156" height="168.186" viewBox="0 0 168.156 168.186">
  <g id="Group_171" data-name="Group 171" transform="translate(-122.173 -346.252)">
    <g id="Group_1" data-name="Group 1" transform="translate(-676.99 -227.291)">
      <path id="Path_1" data-name="Path 1" d="M886.816,679.785A25.606,25.606,0,0,0,889.663,687a23.681,23.681,0,0,1,2.849,8.183,14.115,14.115,0,0,1-2.893,10.138c-3.59,4.96-8.473,8.426-13.766,11.251-4.483,2.394-9.183,4.385-13.82,6.48a1.634,1.634,0,0,0-1.157,1.6,14.366,14.366,0,0,0,2.456,8.916,6.013,6.013,0,0,0,8.179,2,33.784,33.784,0,0,0,9.776-8.261c3.428-4.023,6.734-8.165,10.37-11.994,4.4-4.627,10.006-7.5,15.805-10.012,4.663-2.023,9.292-4.13,13.932-6.208.31-.138.6-.327.818-.448-.516-3.152-1.145-6.229-1.5-9.337-.462-4.079-.033-8.056,2.245-11.63a6.178,6.178,0,0,1,7.271-2.775,5.743,5.743,0,0,1,3.12,2.912c3.864,6.3,3.711,12.65-.17,18.853a30.461,30.461,0,0,1-4.026,4.7c-.571.592-.547.919-.114,1.515,2.633,3.622,7.044,5.149,11.787,4.031a17.806,17.806,0,0,0,7.3-3.719,2.053,2.053,0,0,0,.83-1.987c-.469-4.27-.844-8.55-1.314-12.819q-1.054-9.545-2.2-19.082c-.709-5.82-1.5-11.631-2.239-17.449-.643-5.1-1.246-10.2-1.889-15.293-.739-5.858-1.513-11.71-2.253-17.566-.644-5.1-1.257-10.2-1.9-15.293a19.162,19.162,0,0,1-.425-3.062,11.583,11.583,0,0,1,1.806-5.923c2.848,3.614,6.524,12.146,7.111,16.509-1.558-.28-2.051-1.726-3.243-2.822.121,1.931.189,3.62.341,5.3.575,6.38,1.114,12.764,1.79,19.133.569,5.373,1.325,10.729,1.973,16.094.5,4.186.961,8.38,1.459,12.568.631,5.292,1.288,10.58,1.927,15.87.634,5.252,1.406,10.492,1.838,15.761a28.464,28.464,0,0,1-1.108,10.706,12.638,12.638,0,0,1-9.658,9.054,16.55,16.55,0,0,1-6.827.46c-3.632-.61-5.773-3.1-7.61-5.974-.617-.965-1.152-1.982-1.815-3.133-1.678.636-3.425,1.187-5.08,1.943-6.332,2.89-12.673,5.769-18.935,8.806a31.419,31.419,0,0,0-9.227,7.51c-4.447,4.869-8.663,9.961-13.3,14.644-5.086,5.14-11.675,4.432-16.158-1.32a18.027,18.027,0,0,1-3.223-8.014c-.176-.933-.327-1.87-.5-2.874-2.271.268-4.463.563-6.665.781a36.952,36.952,0,0,1-10.883-.3c-6.339-1.252-10.4-5.072-12.621-11a34.489,34.489,0,0,1-1.794-10.618c-.05-1.069-.008-2.141-.008-3.614a42.728,42.728,0,0,0-3.552,2.884c-4.707,4.774-10.962,2.1-14.126-1.723-3.811-4.6-4.327-9.816-2.868-15.289.983-3.682,2.453-7.234,3.706-10.844.088-.25.194-.494.224-.571-1.918-1.2-3.861-2.238-5.608-3.538-4.223-3.146-5.242-7.634-4.874-12.583.418-5.646,2.74-10.644,5.561-15.421a4.876,4.876,0,0,0,.671-4.323c-1.134-3.808-.233-7.5,1.434-11.028a61.531,61.531,0,0,1,6.935-10.544,2.145,2.145,0,0,0,.513-1.842c-.621-3.752.274-7.31,1.7-10.753a2.281,2.281,0,0,1,.986-.893,216.109,216.109,0,0,1,41.944-18.812c9.413-3.066,18.994-5.625,28.52-8.338,2.23-.634,4.533-1.258,6.884-.472,2.509.84,4.032,2.545,3.678,5.561-.435,3.706-2.226,6.824-4.174,9.866-2.954,4.606-6.762,8.513-10.4,12.562-1.709,1.9-3.34,3.877-5.166,6a14.544,14.544,0,0,1,2.529-5.922c2.092-2.784,4.333-5.461,6.586-8.12,2.009-2.368,4.156-4.618,6.157-6.992a4.808,4.808,0,0,0,1.113-2.326c.33-2.577-1.229-4.292-3.941-4.114a57.848,57.848,0,0,0-10.355,1.245c-5.661,1.434-11.243,3.237-16.771,5.143a321.829,321.829,0,0,0-39.112,15.876c-2.394,1.2-4.685,2.6-7.016,3.915a6.231,6.231,0,0,0-.691.537c3.646,2.547,7.219,5.049,10.8,7.543q10.749,7.486,21.506,14.963c1.541,1.072,3.069,2.162,4.63,3.2a1.258,1.258,0,0,0,1,.2,31.519,31.519,0,0,1,15.708-3.208,1.979,1.979,0,0,0,.421-.144c-.6-2.3-1.219-4.609-1.793-6.931-1.19-4.825-2.524-9.623-3.473-14.5-.7-3.579-.859-7.26.928-10.692.2-.392.439-.769.8-1.4l5.928,12.118-3.176-1.138c.309,2.306.522,4.421.887,6.509a37.233,37.233,0,0,0,3.861,11.367,25.793,25.793,0,0,0,8.553,8.842,2.611,2.611,0,0,1,1.036,1.255,13.246,13.246,0,0,1,.015,6.6,3.59,3.59,0,0,1-.335.707c-6.586-5.69-13.838-7.691-22.361-4.55,2.756,2.25,5.367,4.3,7.9,6.459,6.945,5.923,13.82,11.929,20.8,17.807a59.61,59.61,0,0,0,5.773,3.918,7.9,7.9,0,0,0,1.291.528c-.2-2.2-.344-4.224-.56-6.238-.492-4.613-.986-9.227-1.541-13.832-.6-4.987-1.284-9.964-1.909-14.947q-.795-6.334-1.534-12.673c-.362-3.123-.553-6.273-1.052-9.373-.357-2.22.571-3.921,1.59-5.864,3.251,5.187,6.25,10.3,7.334,16.511l-3.663-2.907c.394,3.556.727,6.862,1.133,10.158.64,5.213,1.335,10.42,2,15.63q1.149,9.014,2.276,18.031c.216,1.75.389,3.508.507,5.267a1.186,1.186,0,0,0,1.164,1.275c4.465.63,7.959-1.254,11-4.265a1.581,1.581,0,0,0,.274-1.16c-.559-4.954-1.127-9.906-1.746-14.851-.6-4.794-1.249-9.579-1.891-14.367-.75-5.582-1.531-11.162-2.271-16.745-.736-5.546-1.391-11.1-2.17-16.645-.736-5.236-1.6-10.453-2.379-15.684-.7-4.731-.808-4.839,1.176-9.635,2.86,5.336,6.367,10.23,7.533,16.549l-3.8-2.877c0,.622-.035,1.024.006,1.419.491,4.88.924,9.767,1.511,14.636.665,5.516,1.464,11.015,2.215,16.52.631,4.633,1.281,9.263,1.914,13.9q1.12,8.2,2.22,16.4a74.413,74.413,0,0,1,.928,7.987c.159,7.114-3.033,11.829-9.6,14.576a31.938,31.938,0,0,1-3.541,1.323c-.8.229-.984.613-.952,1.384.12,2.992.286,5.988.235,8.98a42.965,42.965,0,0,1-2.282,14.235c-.118.324-.256.639-.392.956a4.937,4.937,0,0,1-.289.439c0-1.918.1-3.634-.018-5.335-.383-5.432-.843-10.859-1.284-16.288a18.847,18.847,0,0,1-.266-2.627c.085-1.338-.594-1.808-1.734-2.247-4.931-1.9-8.806-5.326-12.568-8.907-5.719-5.446-11.325-11.019-17.7-15.725-1.078-.8-2.2-1.529-3.314-2.283a3.627,3.627,0,0,0-.68-.17,13.367,13.367,0,0,0,.851,1.2,34.784,34.784,0,0,1,7.184,10.726,18.388,18.388,0,0,1,.946,9.719,8.781,8.781,0,0,1-3.7,5.725,41.368,41.368,0,0,1-11.645,5.846c-5.27,1.841-10.573,3.622-15.735,5.734a29.7,29.7,0,0,0-12.208,9.145,2.583,2.583,0,0,0-.639,1.3c-.25,4.553.3,8.962,2.694,12.965,2.335,3.9,5.968,5.979,10.238,7.007a30.008,30.008,0,0,0,16.232-.63,2.179,2.179,0,0,0,1.54-1.484c1.391-3.685,2.881-7.333,4.279-11.016a1.472,1.472,0,0,0-.238-1.253,35.426,35.426,0,0,0-2.777-2.751,1.49,1.49,0,0,1-.3-2.218c.592-.843,1.17-1.7,1.8-2.51.584-.748,1.26-1.222,2.233-.5a.935.935,0,0,0,.864-.115c3.575-3.034,6.987-6.223,9.366-10.34-2.628-2.082-3.048-4.672-1.252-7.6,1.266-2.06,3.175-2.03,4.351.086a6.557,6.557,0,0,1,.5,4.592c-.248,1.261-.528,2.465.73,3.416a1.309,1.309,0,0,1,.428,1.013,7.391,7.391,0,0,1-.515,1.572,9.2,9.2,0,0,1-1.305-.763,7.426,7.426,0,0,1-.9-1.019l-10.532,10.316c.734.767,1.552,1.668,2.42,2.516a1.589,1.589,0,0,1,.233,2.262q-1.269,1.847-2.606,3.643A21.427,21.427,0,0,0,862,715.358a8.881,8.881,0,0,0-.008,1.249c1.614-.7,3.14-1.339,4.653-2.011A80.5,80.5,0,0,0,884.7,703.94c1.609-1.3,3.087-2.753,4.657-4.1a1.276,1.276,0,0,0,.366-1.711c-2.282-5.139-4.535-10.289-6.807-15.433-.618-1.4-1.188-2.833-1.923-4.173-1.291-2.362-.374-4.5.5-6.668a1.856,1.856,0,0,1,.4-.551,3.83,3.83,0,0,1,.521-.38l8.418,9.393C889.286,681.49,888.285,679.594,886.816,679.785Zm-36.4-34.734c-3.246,2.585-6.586,5.039-9.69,7.763-4.377,3.84-8.556,7.9-12.863,11.826a48.734,48.734,0,0,1-15.149,9.814,1.623,1.623,0,0,0-.778.736,45.052,45.052,0,0,0-4.179,11.638,16.264,16.264,0,0,0,.756,9.813c2.164,4.961,6.429,5.416,9.964,3.122a30.235,30.235,0,0,0,5.738-5.075,48.039,48.039,0,0,1,11.148-9.145c5.7-3.363,11.944-5.5,18.09-7.85,5.765-2.2,11.419-4.613,16.49-8.221.748-.531.939-1.039.54-1.762a74.688,74.688,0,0,0-4.3-7.563C861.969,654.254,856.278,649.84,850.419,645.051Zm-35.7-12.329.4.259a29.888,29.888,0,0,1-1.157,3.064,20.216,20.216,0,0,1-6.1,6.779,3.657,3.657,0,0,0-1.189,1.185c-1.387,3.109-2.813,6.208-4,9.393-1.279,3.433-1.8,7-.524,10.573a9.094,9.094,0,0,0,1.834,3.252,7.118,7.118,0,0,0,8.313,1.134,84.5,84.5,0,0,0,10.8-7.349c6.933-5.973,13.551-12.312,20.3-18.5.687-.631,1.37-1.27,2.1-1.953l-29.951-22.812c-2.275,3.193-4.672,6.2-5.947,9.884a10.215,10.215,0,0,0-.054,6.981,1.429,1.429,0,0,0,2.571.616c.418-.391.724-.9,1.135-1.295C813.709,633.493,814.227,633.122,814.719,632.722Zm111.6,63.935c2.147-1.526,4.179-2.928,6.15-4.41a2,2,0,0,0,.757-1.342,10.73,10.73,0,0,0-4.252-9.316,2.876,2.876,0,0,0-3.9.186,5.177,5.177,0,0,0-2.008,4.082C922.929,689.675,924.28,693.044,926.321,696.658Zm-50.653-13.51.394-.288a2.241,2.241,0,0,0-.9-2.481,1.294,1.294,0,0,0-1.042-.086c-.138.051-.244.7-.1.9A25.572,25.572,0,0,0,875.668,683.148Z" transform="translate(0 1.124)"/>
      <path id="Path_2" data-name="Path 2" d="M881.405,579.734c3.134,5.575,6.3,10.915,7.511,17.43l-3.828-3.359c1.7,11.725,3.358,23.124,5.014,34.525l.348.153c.731-1.076,1.485-2.139,2.168-3.246.106-.173-.064-.578-.2-.824-.5-.9-1.1-1.753-1.565-2.675a3.922,3.922,0,0,1,2.825-5.358,2.277,2.277,0,0,1,1.691.825,6.066,6.066,0,0,1,.8,5.479c-.35,1.391-.974,2.728-.706,4.227.027.151-.138.338-.245.578-.966-.7-1.5-.212-2.02.6a9.141,9.141,0,0,1-1.638,2.061c-1.263,1.086-1.366,2.328-1.131,3.882a54.282,54.282,0,0,1,.475,13.658,22.07,22.07,0,0,1-1.97,7.6c-.484-6.7-.631-13.43-2.465-19.96-2.681,1.776-5.276,3.5-7.873,5.219l-.238-.314c.748-.751,1.485-1.513,2.245-2.251,1.594-1.553,3.228-3.071,4.781-4.663a1.9,1.9,0,0,0,.463-1.375c-.886-7.537-1.708-15.086-2.775-22.6-1.093-7.7-2.482-15.352-3.647-23.039C879.065,583.941,880.045,581.855,881.405,579.734Zm12.529,42.693.453-.226a2.093,2.093,0,0,0-.483-2.544,1.129,1.129,0,0,0-1.007-.221,1.03,1.03,0,0,0-.356.951A19.448,19.448,0,0,0,893.934,622.427Z" transform="translate(40.71 3.183)"/>
      <path id="Path_3" data-name="Path 3" d="M908.643,678.905c-.286-3.861-.6-7.72-.853-11.584-.533-8.152-1.229-16.284-2.474-24.366-.966-6.286-1.729-12.6-2.61-18.9q-1.1-7.851-2.265-15.693c-.121-.818-.518-1.6-.6-2.413a8.222,8.222,0,0,1,.1-2.813,34.908,34.908,0,0,1,1.481-3.818c3.105,5.252,6.669,10.071,7.811,16.432l-3.717-2.983a13.876,13.876,0,0,0,.006,1.479c.565,4.68,1.1,9.363,1.728,14.035.914,6.833,1.912,13.655,2.845,20.487a143.133,143.133,0,0,1,1.194,21.469C911.244,673.379,910.051,676.1,908.643,678.905Z" transform="translate(51.718 13.249)"/>
      <path id="Path_4" data-name="Path 4" d="M898.544,635.286c-.73,1.216-1.272,2.185-1.884,3.107a8.5,8.5,0,0,1-1.134,1.278,1.128,1.128,0,0,1-1.788-.036c-1.5-1.366-3.054-2.669-4.653-4.054l-3.381,4.306a14.375,14.375,0,0,1-5.734-4.7,1.014,1.014,0,0,1-.011-.907c.83-1.5,1.714-2.977,2.732-4.719l6.153,4.851c.74-1.055,1.523-2.124,2.255-3.228,1.013-1.531,1.357-1.634,2.733-.392C895.449,632.251,896.989,633.8,898.544,635.286Z" transform="translate(41.483 28.796)"/>
      <path id="Path_5" data-name="Path 5" d="M822.854,589.431a7.781,7.781,0,0,1,3.877-3.992c7.894-3.74,16.138-6.576,24.305-9.617,1.923-.716,3.844-1.438,6.088-2.279a6.59,6.59,0,0,1-3.235,3.434c-8.017,3.223-16.052,6.4-24.076,9.605C827.547,587.486,825.3,588.429,822.854,589.431Z" transform="translate(12.179 0)" fill="#4d962d"/>
      <path id="Path_6" data-name="Path 6" d="M825.456,662.719c.533.812.975,1.426,1.35,2.079a2.949,2.949,0,0,1,.413,1.174,1.269,1.269,0,0,1-.292,1,1.178,1.178,0,0,1-1.026-.132c-2.357-1.538-2.624-3.411-1-5.991a5.9,5.9,0,0,1,2.527-2.055c7.307-3.219,14.656-6.342,21.993-9.493.139-.061.289-.092.663-.209-.153.5-.156.969-.391,1.207a11.323,11.323,0,0,1-2.836,2.553c-4.993,2.322-10.088,4.427-15.113,6.685C829.632,660.491,827.6,661.628,825.456,662.719Z" transform="translate(12.702 38.838)" fill="#ffb300"/>
      <path id="Path_7" data-name="Path 7" d="M878.54,680.908c.276-2.491.413-4.675.8-6.815a8.624,8.624,0,0,1,1.3-2.619c.43-.728,1.149-.674,1.841-.445,1.994.659,2.615,2.483,1.4,4.335a13.74,13.74,0,0,0-1.42-.922c-.58-.286-1.208-.474-1.817-.7a8.8,8.8,0,0,0-.649,1.936c-.226,2.4-.3,4.813-.54,7.208a6.118,6.118,0,0,1-1.039,2.566c-.486-1.064-.945-2.141-1.462-3.19-1.023-2.074-2.353-3.75-4.927-3.941-.916-.068-1.794-1.487-1.944-2.862a2.278,2.278,0,0,1,0-.689c.424-2.012.655-2.583,2.528-1.34a17.352,17.352,0,0,1,3.635,3.728A34.3,34.3,0,0,1,878.54,680.908Z" transform="translate(36.442 50.035)" fill="#7c9067"/>
      <path id="Path_8" data-name="Path 8" d="M839.321,616.547c-.618-1.178-1.1-2.212-1.687-3.187a15.307,15.307,0,0,0-1.944-2.812,3.882,3.882,0,0,0-2.091-1.028c-1.876-.289-2.645-1-2.7-2.845-.065-2.136.805-2.692,2.733-1.723,1.756.883,2.774,2.482,3.846,4.023.474.683.934,1.376,1.606,2.367.139-1.811.182-3.293.386-4.753a25.746,25.746,0,0,1,.86-3.891,4.407,4.407,0,0,1,1.075-1.6,1.873,1.873,0,0,1,2.831-.368,2.145,2.145,0,0,1,.831,2.707c-.142.392-.342.765-.565,1.249-.5-.439-.913-.86-1.382-1.21-1.095-.818-2.056-.522-2.235.818a54.338,54.338,0,0,0-.431,5.826C840.4,612.229,840.491,614.339,839.321,616.547Z" transform="translate(16.312 13.728)" fill="#ffb300"/>
      <path id="Path_9" data-name="Path 9" d="M839.756,662.453l-3.068-2.032c-.088.9-.214,1.567-.207,2.232.018,2.218.176,4.441.091,6.653a20.96,20.96,0,0,1-.843,3.662c-.906-1.5-1.578-2.691-2.321-3.833-.989-1.516-2.136-2.809-4.194-2.765a1.052,1.052,0,0,1-.793-.648,13.545,13.545,0,0,1,.076-3.024,1.913,1.913,0,0,1,1.49-.161,36.749,36.749,0,0,1,3.47,3.258,20.649,20.649,0,0,0,1.811,2.021c.047-.542.1-1.084.141-1.626.15-1.945.247-3.9.466-5.835.1-.9.337-1.935,1.376-2.189,1.288-.315,1.982.775,2.777,1.516.816.762.28,1.544-.026,2.312C839.944,662.135,839.858,662.264,839.756,662.453Z" transform="translate(15.015 43.473)" fill="#7c9067"/>
      <path id="Path_10" data-name="Path 10" d="M858.281,611.07c.279-1.829.433-3.473.807-5.064a9.449,9.449,0,0,1,1.249-2.8,1.965,1.965,0,0,1,1.419-.845,1.7,1.7,0,0,1,1.753,1.52,13.419,13.419,0,0,1-.094,2.177c-.668-.4-1.078-.656-1.5-.89-1.32-.727-2.074-.325-2.1,1.175-.035,2.07-.008,4.139-.006,6.211v3.163l-.28.1c-.8-1.085-1.546-2.223-2.427-3.239a15.615,15.615,0,0,0-2.577-2.4,3.919,3.919,0,0,0-1.944-.544,2.42,2.42,0,0,1-2.286-2.8c.129-.745.472-1.019,1.27-.807a12.246,12.246,0,0,1,6.171,4.365C857.88,610.556,858.014,610.734,858.281,611.07Z" transform="translate(26.268 14.813)" fill="#7c9067"/>
      <path id="Path_11" data-name="Path 11" d="M850.049,653.063c2.445.2,4.306.89,5.607,2.633,1.584,2.121.824,4.756-1.732,6.486a4.2,4.2,0,0,1-3.189.586,2.169,2.169,0,0,1-1.815-2.083C849.223,658.158,849.657,655.646,850.049,653.063Zm4.995,5.716c-1.061-1.6-2.288-2.863-4.612-2.972-.076,1.135-.153,2.214-.219,3.292-.061.955.5,1.276,1.346,1.3A5.074,5.074,0,0,0,855.044,658.779Z" transform="translate(25.574 40.877)" fill="#fd9434"/>
      <path id="Path_12" data-name="Path 12" d="M862.821,593.82c.335-1.723.686-3.443,1-5.169.123-.677.5-.946,1.125-.792a12.19,12.19,0,0,1,2.837.842,4.164,4.164,0,0,1,1.063,6.65,7.327,7.327,0,0,1-1.127.978c-1,.734-2.026,1.2-3.289.513A3.143,3.143,0,0,1,862.821,593.82Zm1.646-3.149a19.83,19.83,0,0,0-.221,2.671,1.655,1.655,0,0,0,.689,1.2,2.947,2.947,0,0,0,3.261-.992,1.655,1.655,0,0,0-.013-1.5A3.446,3.446,0,0,0,864.467,590.671Z" transform="translate(32.724 7.338)" fill="#7c9067"/>
      <path id="Path_13" data-name="Path 13" d="M879.478,651.711a2.452,2.452,0,0,1-1.457,2.471c-1.4.849-2.867,1.6-4.288,2.424-.682.4-1.314.877-1.991,1.279-.171.1-.432.048-.863.085.678-.861,1.22-1.59,1.809-2.28a.918.918,0,0,0,0-1.4,11.072,11.072,0,0,1-.707-.905c-1.322-1.762-1.3-2.373.292-3.927a8.211,8.211,0,0,1,2.009-1.5c1.2-.595,1.808-.165,1.849,1.161.012.374,0,.748,0,1.452l-1.831-.957a1.368,1.368,0,0,0-.436.2c-.422.334-1.211.836-1.145,1.039a2.507,2.507,0,0,0,1.157,1.519,6.77,6.77,0,0,0,2.562.185,7.093,7.093,0,0,0,1.549-.415C878.461,652.009,878.925,651.872,879.478,651.711Z" transform="translate(36.867 38.118)" fill="#fd9434"/>
      <path id="Path_14" data-name="Path 14" d="M868.827,611.42c-.2,1.629-.41,3.258-.6,4.889-.274,2.384.1,4.512,2.518,5.964l1.143-2.421c1.269,1.2,1.026,4.421-.259,5.264a2.2,2.2,0,0,1-2.842-.718,9.7,9.7,0,0,1-1.67-4.931,15.344,15.344,0,0,1,1.4-8.084Z" transform="translate(34.897 19.452)" fill="#36dc57"/>
      <path id="Path_15" data-name="Path 15" d="M826.573,603.627c.289,2.2-.907,3.741-2.638,3.466a2.558,2.558,0,0,1-2.136-2.4c-.581-4.038.63-7.743,2.124-11.38l.463.08c-.266,1.463-.592,2.918-.781,4.391a33.7,33.7,0,0,0-.262,4.1,2.963,2.963,0,0,0,.539,1.369c.778,1.317.8,1.305,2.173.574A5,5,0,0,1,826.573,603.627Z" transform="translate(11.56 10.162)" fill="#7c9067"/>
      <path id="Path_16" data-name="Path 16" d="M836.274,600.986a2.741,2.741,0,0,1-1.521,3.432,2.226,2.226,0,0,1-2.966-1.889,18.647,18.647,0,0,1,.03-5.552,59.914,59.914,0,0,1,1.768-6.445l.568.123c-.17,1.125-.367,2.247-.5,3.376a31.59,31.59,0,0,0-.474,5.08c.042.958.8,1.888,1.257,2.891Z" transform="translate(16.672 8.733)" fill="#7c9067"/>
      <path id="Path_17" data-name="Path 17" d="M891.708,629.818l1.313-2.042c.619,1.17-.03,3.835-1.046,4.472a2.021,2.021,0,0,1-2.84-1.635,17.936,17.936,0,0,1-.288-5.123,61.042,61.042,0,0,1,1.372-6.61,1.172,1.172,0,0,1,.642-.74,29.775,29.775,0,0,0-.578,3.232,33.21,33.21,0,0,0-.106,5.564C890.265,627.847,891.078,628.687,891.708,629.818Z" transform="translate(46.063 22.925)" fill="#7c9067"/>
      <path id="Path_18" data-name="Path 18" d="M861.344,629.785c.416,1.553-.365,3.549-1.609,4.026a1.861,1.861,0,0,1-1.575-.183,3.872,3.872,0,0,1-1.363-1.9c-.813-3.823.43-7.284,2.176-10.626-.338,1.717-.721,3.425-1,5.151a5.075,5.075,0,0,0,1.625,5.092Z" transform="translate(29.497 24.45)"/>
      <path id="Path_19" data-name="Path 19" d="M894.148,648.385c-.291,1.406-.628,2.806-.861,4.221a6.76,6.76,0,0,0,.725,5.1,6.1,6.1,0,0,0,1.225,1.058c.266-.431.534-.86.795-1.294.1-.156.173-.323.277-.521.792,1.456-.319,4.235-1.808,4.579a1.637,1.637,0,0,1-2.07-1.022,8.449,8.449,0,0,1-.556-2.89,25.715,25.715,0,0,1,1.83-8.819,3.505,3.505,0,0,1,.271-.465Z" transform="translate(47.659 38.443)" fill="#fd9434"/>
      <path id="Path_20" data-name="Path 20" d="M877.034,594.493c-.018,3.343-1.558,6.934,1.806,9.888l1.364-2.064a3.476,3.476,0,0,1-.073,3.42c-.678,1.39-2.055,1.691-3.025.483a7.138,7.138,0,0,1-1.4-3.055C875.15,600.151,876.019,597.3,877.034,594.493Z" transform="translate(39.26 10.769)"/>
      <path id="Path_21" data-name="Path 21" d="M888.08,675.029a5.4,5.4,0,0,1-1.126,4.251c-.38.468-1.164,1-1.637.9a2.46,2.46,0,0,1-1.62-1.352,10.942,10.942,0,0,1-.385-3.5A24.541,24.541,0,0,1,885,667.448l.332.036c-.089.705-.148,1.416-.274,2.115-.215,1.2-.506,2.392-.706,3.6a5.279,5.279,0,0,0,.935,3.917c.479.716.892.628,1.327.049C887.127,676.472,887.592,675.742,888.08,675.029Z" transform="translate(43.254 48.272)" fill="#fd9434"/>
      <path id="Path_22" data-name="Path 22" d="M867.415,681.933a6,6,0,0,1-1.684,4.919,1.61,1.61,0,0,1-2.4-.439,4.382,4.382,0,0,1-.7-1.911,23.408,23.408,0,0,1,1.628-9.991c.021-.055.109-.086.453-.341-.229,1.337-.413,2.424-.6,3.513-.174,1.016-.425,2.026-.5,3.048a4.059,4.059,0,0,0,.294,1.9,12.289,12.289,0,0,0,1.31,1.914c.475-.518.965-1.024,1.422-1.558C866.925,682.66,867.159,682.288,867.415,681.933Z" transform="translate(32.602 51.728)" fill="#fd9434"/>
      <path id="Path_23" data-name="Path 23" d="M909.141,618.871c-.171,1.611-.324,3.224-.515,4.831a8.86,8.86,0,0,0,.706,5.491,10.478,10.478,0,0,0,.924,1.223l1-1.052a2.65,2.65,0,0,1-.148,3.176,1.319,1.319,0,0,1-1.952.053,5.014,5.014,0,0,1-1.794-4.067c-.191-3.329.684-6.5,1.435-9.69Z" transform="translate(55.607 23.284)" fill="#7c9067"/>
      <path id="Path_24" data-name="Path 24" d="M834.029,675.469c.5,2.065-.677,4.223.539,6.194a9.829,9.829,0,0,0,1.175,1.307l1.676-1.541a4.242,4.242,0,0,1-1.266,3.923,2.267,2.267,0,0,1-3.06-1.393C832.069,681,832.814,678.2,834.029,675.469Z" transform="translate(17.194 52.395)" fill="#ffb300"/>
      <path id="Path_25" data-name="Path 25" d="M815.328,661.715c-.339,1.477-.686,2.954-1.007,4.436a2.746,2.746,0,0,0,.006.8c.151,1.732.922,2.139,2.878,1.531a2.7,2.7,0,0,1-1.518,3.358,2.132,2.132,0,0,1-2.5-1.967A9.808,9.808,0,0,1,815.328,661.715Z" transform="translate(7.126 45.325)" fill="#ffb300"/>
      <path id="Path_26" data-name="Path 26" d="M867.144,635.38a2.717,2.717,0,0,1,1.485-2.4c2.757-1.487,5.449-3.091,8.171-4.641a8.964,8.964,0,0,1,.968-.4,3.23,3.23,0,0,1-1.564,2.516c-2.861,1.534-5.678,3.151-8.515,4.73A4.115,4.115,0,0,1,867.144,635.38Z" transform="translate(34.946 27.963)" fill="#ffb300"/>
      <path id="Path_27" data-name="Path 27" d="M851.848,594.134l1.408-1.535c.807,1.331-.4,4.1-1.853,4.215a1.48,1.48,0,0,1-1.051-.66,7.413,7.413,0,0,1-1.178-4.937c.2-1.959.651-3.894.993-5.84l.38.036c0,.639.041,1.279-.012,1.914s-.224,1.279-.3,1.924c-.176,1.564-.43,3.158.914,4.406A5.983,5.983,0,0,0,851.848,594.134Z" transform="translate(25.686 6.083)" fill="#ffb300"/>
      <path id="Path_28" data-name="Path 28" d="M845.375,636.9c-1.045,1.57-1.779,2.88-2.715,4.026s-1.367,1.079-2.445.136c-1.435-1.258-2.884-2.5-4.426-3.832l-3.4,4.313a15.53,15.53,0,0,1-5.738-4.7.779.779,0,0,1-.124-.689c.892-1.594,1.826-3.166,2.877-4.964l6.123,4.861c.733-1.035,1.493-2.059,2.2-3.12,1.145-1.723,1.252-1.753,2.845-.433.235.2.463.4.689.606C842.612,634.351,843.964,635.6,845.375,636.9Z" transform="translate(14.049 29.634)"/>
      <path id="Path_29" data-name="Path 29" d="M826.016,639.434c-1.44,4.132-.5,8.291-2.112,11.788l-3.807-5.946a2.95,2.95,0,0,1-4.006-3.693c.362-1.34,1.323-1.788,2.36-.88a53.487,53.487,0,0,1,3.744,3.87,8.994,8.994,0,0,0,1.619,1.582c.1-1.2.112-2.416.321-3.6a39.749,39.749,0,0,1,1.1-4.651c.33-1.083,1.187-1.133,2.127-.69A2.624,2.624,0,0,1,829,640.445c-.076.335-.28.851-.5.89-.292.055-.7-.216-.979-.445C827.047,640.5,826.636,640.044,826.016,639.434Z" transform="translate(8.633 32.597)" fill="#7c9067"/>
      <path id="Path_30" data-name="Path 30" d="M812.841,643.9a36.977,36.977,0,0,0-1.1,4.645,14.26,14.26,0,0,0,.177,4.394c.256,1.245.866,1.275,1.708.309.3-.341.565-.7.887-1.105a3.638,3.638,0,0,1-.3,3.344,3.184,3.184,0,0,1-1.846,1.293,1.94,1.94,0,0,1-2.106-1.432,7.39,7.39,0,0,1-.447-2.342A17.41,17.41,0,0,1,812.841,643.9Z" transform="translate(5.478 36.167)" fill="#ffb300"/>
      <path id="Path_31" data-name="Path 31" d="M822.967,621.741a5.986,5.986,0,0,1-2.889-3.923,4.386,4.386,0,0,1,3.036-5.216,1.929,1.929,0,0,1,2.621,1.977c-.012,1.341-.2,2.681-.2,4.021a3.8,3.8,0,0,0,.553,1.5c.581,1.178,1.26,2.313,1.775,3.519.154.36-.1.9-.206,1.573l-3.071-2.9c-4.641,8.068-11.664,13.362-19,18.332C811.381,634.379,818.108,629,822.967,621.741Zm1.4-3.251c0-.818.155-1.356-.039-1.7a2.528,2.528,0,0,0-1.2-1.018c-.226-.089-.943.345-.937.527a1.934,1.934,0,0,0,.551,1.217A8.616,8.616,0,0,0,824.37,618.49Z" transform="translate(3.304 20.031)" fill="#7c9067"/>
    </g>
  </g>
</svg>
