<svg xmlns="http://www.w3.org/2000/svg" xmlns:xlink="http://www.w3.org/1999/xlink" width="49.143" height="34.341" viewBox="0 0 49.143 34.341">
  <defs>
    <linearGradient id="linear-gradient" x1="0.854" y1="1.595" x2="0.5" y2="0.5" gradientUnits="objectBoundingBox">
      <stop offset="0" stop-color="#455900"/>
      <stop offset="1" stop-color="#a4d500"/>
    </linearGradient>
  </defs>
  <path id="Path_140" d="M366.6,147.585a7.485,7.485,0,0,0-.679.327,1.588,1.588,0,0,0-1.018,1.441,2.391,2.391,0,0,1-3.352,2.128,1.783,1.783,0,0,0-2.009,1.329,2.411,2.411,0,0,1-1.8,2.529,2.561,2.561,0,0,1-1.49-.031,2.423,2.423,0,0,0-3.127,1.085,2.5,2.5,0,0,1-4.419-.141,3.058,3.058,0,0,0-2.533-.966,2.481,2.481,0,0,1-3.5-2.817,2.976,2.976,0,0,0-1.845-3.012,2.472,2.472,0,0,1-1.223-3.743,2.572,2.572,0,0,0,.577-1.925,4.536,4.536,0,0,0-.694-2.632,2.371,2.371,0,0,1,1.668-3.589,2.979,2.979,0,0,0,1.968-2.736,2.365,2.365,0,0,1,3.007-2.7c1.18.35,1.783-.532,2.651-.829.108-.036.162-.353.169-.542a2.5,2.5,0,0,1,3.97-1.727,2.034,2.034,0,0,0,2.658-.751,2.53,2.53,0,0,1,4.087-.768,1.666,1.666,0,0,0,2.691-.18,2.545,2.545,0,0,1,4.073.232c.172.256.321.64.561.717a9.079,9.079,0,0,0,1.77.3c.1.011.226-.141.325-.234a2.469,2.469,0,0,1,4.193.877,1.708,1.708,0,0,0,1.2,1.179,9.389,9.389,0,0,1,1.022.46,2.569,2.569,0,0,1,4.212,2.167c-.041.551,1.189,1.474,1.765,1.4,2.4-.312,3.625,1.074,3.049,3.445a1.872,1.872,0,0,0,1.2,1.686,2.59,2.59,0,0,1,2.421,1.873,2.529,2.529,0,0,1-1.012,2.734,1.576,1.576,0,0,0-.483.9,5.273,5.273,0,0,0,.142,2.992c.652,1.577-1.2,3.347-2.934,2.984a1.654,1.654,0,0,0-2.152,1.187,2.454,2.454,0,0,1-3.919,1.344,1.311,1.311,0,0,0-.936-.161,15.678,15.678,0,0,0-2.862.933,4.441,4.441,0,0,0-1.47,1.347,15.136,15.136,0,0,1-4.47,4.238,4.8,4.8,0,0,1-4.3.529,3.184,3.184,0,0,1-2.1-3,3.724,3.724,0,0,1,1.806-3.406,9.142,9.142,0,0,1,6.709-1.378c2.336.434,4.292-.418,6.338-1.051.346-.107.563-.982.633-1.529.065-.512-1-1.154-1.545-1.038a2.5,2.5,0,0,1-3.14-2.047,1.083,1.083,0,0,0-.686-.661,1.056,1.056,0,0,0-.931.264C369.727,148.539,368.372,148.874,366.6,147.585Zm-22.115-10.776c-.317.433-.607.826-.892,1.221-.033.045-.077.12-.06.157.161.357.36.7.5,1.065a2.384,2.384,0,0,1-1.43,3.019c-.668.258-.686.715-.643,1.227s-.129,1.045.621,1.338a2.328,2.328,0,0,1,1.049,3.745c-.538.689-.011,1.021.212,1.408a1.325,1.325,0,0,0,.962.611,2.471,2.471,0,0,1,2.827,2.5,1.142,1.142,0,0,0,.458.763c.335.225.618.1.93-.263a2.9,2.9,0,0,1,1.351-.83,2.573,2.573,0,0,1,2.848,1.2c.43-.472,1.3-.182,1.343-1.16a2.444,2.444,0,0,1,3.268-2.2A1.661,1.661,0,0,0,360.039,149a2.463,2.463,0,0,1,3.306-2.229,2.3,2.3,0,0,0,2.609-1.391,2.483,2.483,0,0,1,4.034-1.456,2.349,2.349,0,0,0,1.757.668c.309,0,.617.149.929.164a1.422,1.422,0,0,0,.8-.119,2.532,2.532,0,0,1,3.949,2.488c-.067.575,1.07,1.872,1.6,1.982.765.158,1.515.394,2.272.6.6.02.676-.372.626-.987a2.351,2.351,0,0,1,2.193-2.6c.25-.034.653-.255.672-.426.052-.455.409-.963-.211-1.391a2.476,2.476,0,0,1-.971-3.558,1.2,1.2,0,0,0-.965-1.428c-1.934.089-2.981-1.011-2.832-2.978a1.223,1.223,0,0,0-1.724-1.235,2.513,2.513,0,0,1-3.316-1.719,2.207,2.207,0,0,0-.413-1.1,3.238,3.238,0,0,0-1.238-.577.646.646,0,0,0-.511.174,2.491,2.491,0,0,1-4.081-1.168c-.183-.654-1.771-.913-2.153-.355a2.5,2.5,0,0,1-4.24-.23c-.305-.61-1.66-.458-1.977.17a2.528,2.528,0,0,1-4.113.671,1.528,1.528,0,0,0-2.18.609,2.45,2.45,0,0,1-2.836,1.932,8.051,8.051,0,0,1-1.508-.622,5.808,5.808,0,0,0-.85.521c-.231.2-.562.492-.547.726A2.645,2.645,0,0,1,344.482,136.809Z" transform="translate(-339.102 -126.421)" fill="url(#linear-gradient)"/>
</svg>
