<svg xmlns="http://www.w3.org/2000/svg" width="92.156" height="79.195" viewBox="0 0 92.156 79.195">
  <g id="_2599725" data-name="2599725" transform="translate(0 -36.004)">
    <g id="Group_103" data-name="Group 103" transform="translate(1.8 37.804)">
      <g id="Group_98" data-name="Group 98" transform="translate(0 0)">
        <path id="Path_130" data-name="Path 130" d="M289.091,56.8a5.4,5.4,0,0,0,5.4-5.359c0-.014,0-.027,0-.041a5.4,5.4,0,1,0-5.4,5.4Z" transform="translate(-234.43 -46.003)" fill="#fff" fill-rule="evenodd"/>
        <path id="Path_131" data-name="Path 131" d="M152.133,59.644a5.4,5.4,0,0,1-10.056,2.694l-11.8,3.162-20.191,5.41,14.09,52.583.817,3.051,5.284-1.416,20.125-5.393,30.225-8.1L165.721,56Z" transform="translate(-92.073 -54.203)" fill="#fffbe1" fill-rule="evenodd"/>
        <path id="Path_132" data-name="Path 132" d="M42.107,138.319,28.017,85.736l20.191-5.41-23.3-6.243L10,129.717Z" transform="translate(-10.003 -69.029)" fill="#fff7bf" fill-rule="evenodd"/>
        <path id="Path_133" data-name="Path 133" d="M242.39,410.094l-20.125,5.393,17.429,4.67Z" transform="translate(-184.06 -344.562)" fill="#fff7bf" fill-rule="evenodd"/>
      </g>
      <g id="Group_99" data-name="Group 99" transform="translate(31.886 22.353)">
        <path id="Path_134" data-name="Path 134" d="M188.958,183.113a1.8,1.8,0,0,1-.465-3.539l34.771-9.317a1.8,1.8,0,0,1,.932,3.477l-34.771,9.317A1.8,1.8,0,0,1,188.958,183.113Z" transform="translate(-187.159 -170.196)" fill="#fff2a0"/>
      </g>
      <g id="Group_100" transform="translate(33.982 30.177)">
        <path id="Path_135" d="M200.6,226.58a1.8,1.8,0,0,1-.465-3.539l34.77-9.317a1.8,1.8,0,1,1,.932,3.477l-34.77,9.317A1.8,1.8,0,0,1,200.6,226.58Z" transform="translate(-198.806 -213.662)" fill="#fff2a0"/>
      </g>
      <g id="Group_101" data-name="Group 101" transform="translate(36.079 38)">
        <path id="Path_136" data-name="Path 136" d="M212.252,270.046a1.8,1.8,0,0,1-.465-3.539l34.77-9.317a1.8,1.8,0,0,1,.932,3.477l-34.77,9.317A1.8,1.8,0,0,1,212.252,270.046Z" transform="translate(-210.453 -257.129)" fill="#fff2a0"/>
      </g>
      <g id="Group_102" data-name="Group 102" transform="translate(38.175 50.482)">
        <path id="Path_137" data-name="Path 137" d="M223.9,334.736a1.8,1.8,0,0,1-.465-3.539l17.385-4.659a1.8,1.8,0,0,1,.932,3.477l-17.385,4.658A1.794,1.794,0,0,1,223.9,334.736Z" transform="translate(-222.099 -326.477)" fill="#fff2a0"/>
      </g>
    </g>
    <path id="Path_138" data-name="Path 138" d="M92.093,94.772,77.186,39.138a1.8,1.8,0,0,0-2.2-1.273L63.311,40.992a7.2,7.2,0,0,0-13.89,3.722L40,47.237,17.173,41.119a1.8,1.8,0,0,0-2.2,1.273L.061,98.026a1.8,1.8,0,0,0,1.273,2.2l31.1,8.333.548,2.047a1.8,1.8,0,0,0,2.2,1.273L40,110.592l16.963,4.545a1.8,1.8,0,0,0,2.2-1.273l2.427-9.059,29.221-7.83a1.8,1.8,0,0,0,1.273-2.2ZM56.46,39.6a3.6,3.6,0,1,1-3.6,3.6A3.6,3.6,0,0,1,56.46,39.6ZM4,97.219,17.98,45.062,33.051,49.1l-13.7,3.672a1.8,1.8,0,0,0-1.273,2.2l13.283,49.572Zm52.157,13.975-9.2-2.466,10.626-2.847ZM35.994,107.94,22.018,55.783l29.073-7.79q.158.177.327.343L48.4,53.557a1.8,1.8,0,1,0,3.117,1.8l3.013-5.218a7.2,7.2,0,0,0,8.976-5.474l10.665-2.858L88.15,93.964Z" transform="translate(0)" fill="#ffc144"/>
  </g>
</svg>
