<svg xmlns="http://www.w3.org/2000/svg" width="40" height="40" viewBox="0 0 40 40">
    <defs>
        <filter id="Ellipse_16" width="40" height="40" x="0" y="0" filterUnits="userSpaceOnUse">
            <feOffset dy="3"/>
            <feGaussianBlur result="blur" stdDeviation="1.5"/>
            <feFlood flood-opacity=".051"/>
            <feComposite in2="blur" operator="in"/>
            <feComposite in="SourceGraphic"/>
        </filter>
        <style>
            .cls-1{fill:#95b93e}
        </style>
    </defs>
    <g id="Group_80" transform="translate(-172.55 -652.55)">
        <g id="Group_79" transform="translate(177.13 654.13)">
            <g id="Group_77" filter="url(#Ellipse_16)" transform="translate(-4.58 -1.58)">
                <circle id="Ellipse_16-2" cx="15.5" cy="15.5" r="15.5" class="cls-1" transform="translate(4.5 1.5)"/>
            </g>
            <g id="_483054" transform="translate(7.056 7.587)">
                <g id="Group_66">
                    <path id="Path_100" d="M8.216 0a8.216 8.216 0 1 0 8.216 8.216A8.225 8.225 0 0 0 8.216 0zm3.266 8.5l-4.793 3.084a.342.342 0 0 1-.528-.288V5.135a.342.342 0 0 1 .528-.288l4.792 3.081a.342.342 0 0 1 0 .576z" class="cls-1"/>
                </g>
            </g>
        </g>
        <path id="Polygon_1" fill="#fff" d="M4.152 1.357a1 1 0 0 1 1.7 0l3.2 5.113A1 1 0 0 1 8.2 8H1.8a1 1 0 0 1-.844-1.53z" transform="rotate(90 -233.5 431.55)"/>
    </g>
</svg>
