<svg xmlns="http://www.w3.org/2000/svg" width="29.095" height="44.281" viewBox="0 0 29.095 44.281">
  <g id="Group_119" transform="translate(-496.794 -503.803)">
    <path id="Path_158" d="M505.917,551.261v-4.7h.522q4.368,0,8.738,0a.965.965,0,0,0,1.082-.915.934.934,0,0,0-.989-.954c-1.074-.013-2.148-.005-3.221,0-2.148,0-4.3-.037-6.443.016a2.28,2.28,0,0,1-2.453-2.086,3.88,3.88,0,0,1-.077-.79q.027-7.523.069-15.046a10.257,10.257,0,0,1,.781-3.778,2.814,2.814,0,0,1,3.785-1.57c.688.295,1.373.6,2.038.945a5.546,5.546,0,0,1,3.1,4.476c.116.9.228,1.806.345,2.745a3.187,3.187,0,0,0,.407,0c1.7-.239,3.406-.475,5.106-.734a.418.418,0,0,1,.539.272c.607,1.27,1.236,2.53,1.885,3.848-.413.21-.79.432-1.189.6a20.542,20.542,0,0,1-7.247,1.727,6.541,6.541,0,0,1-2.73-.392,2.56,2.56,0,0,1-1.72-2.2c-.125-1.035-.289-2.067-.438-3.1a.96.96,0,1,0-1.881.282c.152,1.032.322,2.062.443,3.1a4.451,4.451,0,0,0,3.959,4.012,37.317,37.317,0,0,0,3.761.288l.035-.135c.042.1.091.208.128.315a3.712,3.712,0,0,0,2.265,2.373c2.053.8,4.1,1.622,6.169,2.366a5.865,5.865,0,0,1,3.905,6.56,2.775,2.775,0,0,1-2.89,2.482c-3.221.012-6.443.005-9.664.005h-8.121Z" transform="translate(-1.26 -3.677)" fill="#00cc29" stroke="rgba(0,0,0,0)" stroke-width="1"/>
    <path id="Path_159" d="M516.6,509.521a5.86,5.86,0,0,1-.136,3.544c-.323.831-.582,1.691-.826,2.55a1.92,1.92,0,0,1-2.206,1.448c-.375-.059-.748-.14-1.161-.219l-.382,1.31-3.523-1.4c.115-.435.224-.918.374-1.388a.477.477,0,0,0-.2-.632,1.184,1.184,0,0,1-.635-1.171.418.418,0,0,1,.184-.292q4.2-1.884,8.411-3.747A.322.322,0,0,1,516.6,509.521Z" transform="translate(-2.31 -1.134)" fill="#00cc29" stroke="rgba(0,0,0,0)" stroke-width="1"/>
    <path id="Path_160" d="M507.648,510.213a4.45,4.45,0,0,1,8.1-3.606Z" transform="translate(-2.203)" fill="#00cc29" stroke="rgba(0,0,0,0)" stroke-width="1"/>
    <path id="Path_161" d="M502.746,553.638V558.3c-.145.009-.284.024-.423.024q-1.962,0-3.924,0c-.853,0-1.221-.451-1.072-1.3a4.392,4.392,0,0,1,3.966-3.386C501.761,553.617,502.231,553.638,502.746,553.638Z" transform="translate(0 -10.749)" fill="#00cc29" stroke="rgba(0,0,0,0)" stroke-width="1"/>
    <path id="Path_162" d="M525.82,529.815l2.888-1.441a3.528,3.528,0,0,1-1.089,5.028Z" transform="translate(-6.218 -5.244)" fill="#00cc29" stroke="rgba(0,0,0,0)" stroke-width="1"/>
  </g>
</svg>
