<svg xmlns="http://www.w3.org/2000/svg" xmlns:xlink="http://www.w3.org/1999/xlink" width="36.559" height="42.63" viewBox="0 0 36.559 42.63">
  <defs>
    <linearGradient id="linear-gradient" x1="0.428" y1="0.185" x2="1.745" y2="2.37" gradientUnits="objectBoundingBox">
      <stop offset="0" stop-color="#919191"/>
      <stop offset="1"/>
    </linearGradient>
  </defs>
  <g id="_46036" transform="translate(-43.119)">
    <path id="Path_157" d="M66.431,23.584l3.1-6.916-6.916,3.1a4.633,4.633,0,0,0-5.344,5.344l-3.1,6.916,6.916-3.1a4.633,4.633,0,0,0,5.343-5.343Zm-3.474,1.87a1.561,1.561,0,1,1,0-2.207A1.563,1.563,0,0,1,62.957,25.454Zm-1.1,7.8,1.08,2.405H60.773Zm0-17.813-1.08-2.405h2.161Zm8.906,8.906,2.405-1.08v2.161Zm-17.813,0-2.405,1.08V23.263ZM66.153,6.586a4.7,4.7,0,1,0-8.6,0,18.28,18.28,0,1,0,8.6,0ZM60.027,4.7A1.827,1.827,0,1,1,63,6.11c-.379-.024-.76-.039-1.145-.039s-.766.016-1.145.039A1.816,1.816,0,0,1,60.027,4.7ZM61.854,37.64a13.29,13.29,0,1,1,13.29-13.29A13.305,13.305,0,0,1,61.854,37.64Z" transform="translate(-0.455)" fill="url(#linear-gradient)"/>
  </g>
</svg>
