<svg xmlns="http://www.w3.org/2000/svg" xmlns:xlink="http://www.w3.org/1999/xlink" width="51.518" height="62.726" viewBox="0 0 51.518 62.726">
  <defs>
    <linearGradient id="linear-gradient" x1="0.5" x2="0.839" y2="2.711" gradientUnits="objectBoundingBox">
      <stop offset="0" stop-color="#8bc852"/>
      <stop offset="1" stop-color="#4fc600"/>
    </linearGradient>
    <linearGradient id="linear-gradient-2" x1="0.5" x2="0.5" y2="1" gradientUnits="objectBoundingBox">
      <stop offset="0" stop-color="#5fa812"/>
      <stop offset="1" stop-color="#7bce3c"/>
    </linearGradient>
    <linearGradient id="linear-gradient-3" x1="0.304" x2="0.887" y2="1.362" gradientUnits="objectBoundingBox">
      <stop offset="0" stop-color="#fff"/>
      <stop offset="1" stop-color="#f3f3f3"/>
    </linearGradient>
    <linearGradient id="linear-gradient-4" x1="0.171" y1="1" x2="1" y2="2.728" gradientUnits="objectBoundingBox">
      <stop offset="0" stop-color="#6ea533"/>
      <stop offset="1" stop-color="#6eb70e"/>
    </linearGradient>
    <radialGradient id="radial-gradient" cx="0.106" cy="0.256" r="1.109" gradientTransform="translate(0 -0.04) scale(1 1.156)" gradientUnits="objectBoundingBox">
      <stop offset="0" stop-color="#f6e266"/>
      <stop offset="1" stop-color="#cab20e"/>
    </radialGradient>
    <radialGradient id="radial-gradient-2" cx="0.106" cy="0.256" r="1.811" gradientTransform="translate(0 -0.111) scale(1 1.435)" xlink:href="#radial-gradient"/>
  </defs>
  <g id="_2230267" data-name="2230267" transform="translate(-45.74 0)">
    <path id="Path_76" data-name="Path 76" d="M97.258,0V53.734l-45.9,4-5.623.491V4.843A4.843,4.843,0,0,1,50.583,0Z" transform="translate(0)" fill="url(#linear-gradient)"/>
    <path id="Path_77" data-name="Path 77" d="M51.363,0V57.739l-5.623.491V4.843A4.843,4.843,0,0,1,50.583,0Z" transform="translate(0 0)" fill="url(#linear-gradient-2)"/>
    <path id="Path_78" data-name="Path 78" d="M97.258,438.61V447.6H50.236a4.5,4.5,0,1,1,0-8.991Z" transform="translate(0 -384.876)" fill="url(#linear-gradient-3)"/>
    <path id="Path_79" data-name="Path 79" d="M98.017,483.258v3.521H50.995a4.5,4.5,0,0,1-4.39-3.521Z" transform="translate(-0.759 -424.054)" fill="url(#linear-gradient-4)"/>
    <path id="Path_80" data-name="Path 80" d="M160.568,47.2V78.85a6,6,0,0,0-5.995,5.995H129.637a6,6,0,0,0-5.995-5.995V47.2a6,6,0,0,0,5.995-5.995h24.936A6,6,0,0,0,160.568,47.2Z" transform="translate(-68.358 -36.159)" fill="#7c9067"/>
    <g id="Group_7" data-name="Group 7" transform="translate(59.815 14.191)">
      <path id="Path_81" data-name="Path 81" d="M186.608,132.425l.116-.115a1.086,1.086,0,0,1,1.812,1.062,14.213,14.213,0,1,1-17.5-17.5,1.086,1.086,0,0,1,1.058,1.819l-.032.032a10.34,10.34,0,0,0,14.547,14.7Z" transform="translate(-160.625 -115.833)" fill="url(#radial-gradient)"/>
      <path id="Path_82" data-name="Path 82" d="M278.246,127.205l1.219,2.47a1.024,1.024,0,0,0,.771.56l2.726.4a1.024,1.024,0,0,1,.567,1.747l-1.973,1.923a1.024,1.024,0,0,0-.295.906l.466,2.715A1.024,1.024,0,0,1,280.242,139l-2.438-1.282a1.024,1.024,0,0,0-.953,0L274.413,139a1.024,1.024,0,0,1-1.486-1.079l.466-2.715a1.024,1.024,0,0,0-.295-.906l-1.973-1.923a1.024,1.024,0,0,1,.567-1.747l2.726-.4a1.024,1.024,0,0,0,.771-.56l1.219-2.47A1.024,1.024,0,0,1,278.246,127.205Z" transform="translate(-257.315 -125.311)" fill="url(#radial-gradient-2)"/>
    </g>
  </g>
</svg>
