<svg xmlns="http://www.w3.org/2000/svg" width="28.432" height="47.605" viewBox="0 0 28.432 47.605">
  <path id="_90724" d="M89.318.122,88.932,0l-.386.122C87.981.3,74.716,4.6,74.716,14.278V47.605h28.432V14.278C103.148,4.6,89.883.3,89.318.122Zm10.841,11.662a7.793,7.793,0,0,1,.234.823h-.234Zm-.642-.622v1.446H97.713l-1.276-1.276,1.625-1.625Zm-3.4,7.506,1.49,1.49-1.625,1.625-1.277-1.276V18.694Q95.422,18.677,96.117,18.667Zm-1.411-.615v-1.8l1.276-1.276L97.608,16.6l-1.421,1.421Q95.458,18.034,94.706,18.053Zm2.42,5.781-2.741,2.741-2.741-2.741,2.741-2.741ZM96.117,29q-.7-.01-1.411-.027V27.161l1.276-1.276,1.625,1.625Zm.07.643,1.421,1.421L95.982,32.69l-1.276-1.276v-1.8Q95.457,29.633,96.187,29.644ZM85.53,36.337l1.277-1.276h1.805v1.446l-1.456,1.456ZM86.7,38.416l-1.456,1.456H83.8V38.067l1.276-1.276Zm.1-4L85.53,33.143l1.625-1.625,1.456,1.456v1.446Zm.8-6.909,1.323-1.323,1.323,1.323-1.323,1.323Zm.87,1.777-1.323,1.323-1.323-1.323,1.323-1.323Zm-.87-9.129,1.323-1.323,1.323,1.323-1.323,1.323Zm3.1,7.806,1.323,1.323L90.709,30.61l-1.323-1.323ZM89.253,25.6V24.155h1.8l1.277,1.277-1.626,1.626Zm0-2.088V22.067l1.456-1.456,1.626,1.626-1.277,1.276h-1.8Zm1.91-3.356L92.618,18.7h1.446v1.805l-1.276,1.276Zm-.454-.454-1.323-1.323,1.323-1.323,1.323,1.323Zm-1.777-1.777L87.609,16.6l1.323-1.323L90.255,16.6Zm-.454.454L87.155,19.7l-1.323-1.323,1.323-1.323Zm.133,3.687v1.445H86.806L85.53,22.237l1.625-1.625Zm0,2.087V25.6l-1.456,1.456L85.53,25.431l1.277-1.277h1.805ZM86.7,27.51l-1.456,1.456H83.8V27.161l1.276-1.276Zm-1.456,2.1L86.7,31.064,85.076,32.69,83.8,31.414V29.608h1.446Zm2.363,1.456,1.323-1.323,1.323,1.323-1.323,1.323Zm1.644,4h1.8l1.277,1.276-1.626,1.626-1.456-1.456Zm0-.642V32.973l1.456-1.456,1.626,1.626-1.277,1.276Zm1.91-3.356,1.456-1.456h1.446v1.806L92.788,32.69Zm1.456-2.1L91.163,27.51l1.626-1.626,1.276,1.276v1.805H92.618ZM94.064,18.06H92.618L91.162,16.6l1.626-1.626,1.276,1.276V18.06ZM90.709,16.15l-1.456-1.456V13.248h1.8l1.277,1.276Zm-1.456-3.544V11.161L90.709,9.7l1.626,1.626-1.277,1.276h-1.8Zm1.91-3.356L92.618,7.8h1.446V9.6l-1.276,1.276ZM90.709,8.8,89.386,7.475l1.323-1.323,1.323,1.323Zm-.454.454-1.323,1.323L87.609,9.251l1.323-1.323Zm-3.1-.453L85.832,7.475l1.323-1.323,1.323,1.323Zm1.456,2.363v1.446H86.806L85.53,11.331l1.625-1.625Zm0,2.087v1.446L87.155,16.15,85.53,14.525l1.277-1.276ZM86.7,16.6,85.245,18.06H83.8V16.255l1.276-1.276Zm-1.456,2.1L86.7,20.158l-1.625,1.625L83.8,20.507V18.7h1.446Zm.975,5.132-2.741,2.741-2.741-2.741,2.741-2.741ZM81.748,29l-1.473-1.473c.548-.527,1.093-1.07,1.615-1.636l1.268,1.268v1.813Q82.463,28.992,81.748,29Zm1.41.613v1.8L81.89,32.681c-.522-.566-1.067-1.11-1.615-1.636l1.4-1.4Q82.428,29.635,83.158,29.616ZM81.89,21.775c-.522-.566-1.067-1.11-1.615-1.636l1.473-1.473q.716.01,1.41.028v1.813Zm1.268-3.723q-.73-.019-1.483-.029l-1.4-1.4c.548-.527,1.093-1.07,1.615-1.636l1.268,1.268v1.8Zm-2.033.329L79.8,19.7l-1.323-1.323L79.8,17.058Zm-1.3,2.211c.55.528,1.1,1.071,1.616,1.635l-1.287,1.286H78.346V22.067Zm.33,3.563,1.286,1.286c-.519.564-1.067,1.107-1.616,1.635L78.346,25.6V24.155h1.805Zm.974,5.132L79.8,30.61l-1.323-1.323L79.8,27.964Zm-1.3,2.211c.55.528,1.1,1.071,1.616,1.635l-1.286,1.286H78.346V32.973Zm.33,3.563,1.286,1.286c-.519.564-1.067,1.107-1.616,1.635l-1.475-1.475V35.061h1.805Zm.974,5.132L79.8,41.516l-1.323-1.323L79.8,38.87Zm.623.285q.716.01,1.41.028v1.813L81.89,43.587c-.522-.566-1.067-1.109-1.615-1.636Zm-.073-.642-1.4-1.4c.548-.527,1.093-1.07,1.615-1.636l1.268,1.268v1.8Q82.428,39.846,81.675,39.836Zm-.937-5.1L83.479,32l2.741,2.74-2.741,2.74ZM83.8,40.514h1.446L86.7,41.97,85.076,43.6,83.8,42.319V40.514Zm2.032-.321,1.323-1.323,1.323,1.323-1.323,1.323Zm1.777-1.777,1.323-1.323,1.323,1.323L88.932,39.74Zm3.1.454,1.323,1.323-1.323,1.323-1.323-1.323Zm1.91,1.644h1.446v1.805L92.788,43.6,91.163,41.97Zm0-.642-1.456-1.456,1.626-1.626,1.276,1.276v1.805H92.618Zm-.974-5.132L94.385,32l2.741,2.74-2.741,2.74Zm4.338,2.051,1.626,1.626-1.421,1.421q-.73.01-1.481.028v-1.8Zm-1.276,3.716q.716-.017,1.412-.027l1.49,1.49L95.983,43.6l-1.277-1.276Zm2.032-.314,1.323-1.323,1.323,1.323-1.323,1.323Zm1.323-2.23-1.626-1.625,1.277-1.276h1.805v1.446Zm-.349-3.543-1.277-1.276,1.625-1.626,1.456,1.456v1.446Zm-.974-5.132,1.323-1.323,1.323,1.323L98.061,30.61Zm1.323-2.23-1.625-1.625,1.277-1.277h1.805V25.6Zm-.349-3.544-1.277-1.276,1.625-1.625,1.456,1.456v1.445Zm-.974-5.132,1.323-1.323,1.323,1.323L98.062,19.7Zm1.323-2.23-1.626-1.625,1.277-1.276h1.805v1.446ZM98.668,9.1a10.6,10.6,0,0,1,.687.993l-.84-.84ZM96.94,7.273A14.392,14.392,0,0,1,98.259,8.6l-.2.2L96.738,7.475Zm-2.233-1.7A20.349,20.349,0,0,1,96.45,6.855l-.228.228c-.51,0-1.013.018-1.516.049V5.576Zm0,2.2c.456-.029.913-.044,1.377-.049l1.525,1.525-1.625,1.625L94.706,9.6Zm2.42,5.153-2.741,2.74-2.741-2.74,2.741-2.74ZM93.616,4.9l.448.448V7.154H92.618L91.162,5.7l1.389-1.389C92.9,4.492,93.255,4.689,93.616,4.9Zm-4.364-2.08c.616.232,1.583.626,2.7,1.181L90.709,5.244,89.253,3.788Zm1,2.877L88.932,7.021,87.609,5.7l1.323-1.323ZM88.611,2.821v.967L87.155,5.244,85.913,4C87.029,3.447,88,3.053,88.611,2.821ZM83.8,5.349l.448-.448c.361-.211.719-.409,1.065-.592L86.7,5.7,85.245,7.154H83.8Zm0,2.447h1.446L86.7,9.252l-1.625,1.626L83.8,9.6Zm2.42,5.132-2.741,2.74-2.741-2.74,2.741-2.74Zm-4.328-2.061c-.521-.564-1.067-1.107-1.617-1.635l1.437-1.437c.318.007.638.012.958.012.163,0,.325,0,.487-.007V9.6Zm1.266-5.29V7.158c-.481.008-.965,0-1.448-.006l-.3-.3A20.342,20.342,0,0,1,83.158,5.576Zm-2.234,1.7.2.2L79.8,8.8l-.2-.2A14.372,14.372,0,0,1,80.924,7.274ZM79.2,9.1l.153.153-.839.839A10.584,10.584,0,0,1,79.2,9.1Zm-.85,2.062,1.475-1.475c.551.53,1.1,1.073,1.616,1.635l-1.286,1.286H78.346Zm0,2.088h1.805l1.286,1.286c-.519.564-1.067,1.107-1.616,1.635l-1.475-1.475V13.248ZM77.7,11.784v.823h-.234A7.8,7.8,0,0,1,77.7,11.784Zm-.423,2.495a7.518,7.518,0,0,1,.071-1.03H77.7v1.446l-.423.423Zm0,1.746.743-.743L79.349,16.6l-1.323,1.323-.744-.744Zm0,2.067.29.29-.29.29Zm0,1.487.744-.744,1.323,1.323-1.323,1.323-.743-.743Zm0,2.067.423.423v1.446h-.423Zm0,2.51H77.7V25.6l-.423.423Zm0,2.776.743-.743,1.323,1.323-1.323,1.323-.744-.744Zm0,2.067.29.29-.29.29Zm0,1.487.744-.744,1.323,1.323-1.323,1.323-.743-.743Zm0,2.067.423.423v1.446h-.423Zm0,2.51H77.7v1.446l-.423.423Zm0,2.776.743-.743,1.323,1.323L78.026,39.74,77.282,39Zm0,2.067.29.29-.29.29Zm.423,5.136h-.423V43.457l.423.423Zm-.423-2.489V41.39l.744-.744,1.323,1.323-1.323,1.323Zm1.064,2.489V43.88L79.822,42.4c.55.528,1.1,1.071,1.616,1.635l-1,1H78.346Zm3,0,2.134-2.134,2.134,2.134Zm7.266,0H86.52l-.99-.99,1.625-1.625,1.456,1.456Zm-1-3.069,1.323-1.323,1.323,1.323-1.323,1.323Zm1.644,3.069V43.88l1.456-1.456,1.626,1.626-.99.99Zm3,0,2.134-2.134,2.134,2.134Zm7.266,0H97.426l-.99-.99,1.625-1.625,1.456,1.456v1.159Zm1.064,0h-.423V43.88l.423-.423Zm0-2.49-.744.744L98.515,41.97l1.323-1.323.744.744Zm0-2.066-.29-.29.29-.29Zm0-1.487-.744.744-1.323-1.323,1.323-1.323.744.744V39Zm0-2.066-.423-.423V35.061h.423Zm0-2.51h-.423V32.973l.423-.423Zm0-2.776-.744.744-1.323-1.323,1.323-1.323.744.744v1.159Zm0-2.066-.29-.29.29-.29Zm0-1.487-.744.744L98.515,27.51l1.323-1.323.744.744V28.09Zm0-2.066-.423-.423V24.155h.423Zm0-2.51h-.423V22.067l.423-.423Zm0-2.776-.744.744-1.323-1.323,1.323-1.323.744.744Zm0-2.066-.29-.29.29-.29Zm0-1.487-.744.744L98.515,16.6l1.323-1.323.744.744v1.159Zm0-2.066-.423-.423V13.248h.351a7.54,7.54,0,0,1,.071,1.03Z" transform="translate(-74.716)" fill="#e8b933"/>
</svg>
