<svg xmlns="http://www.w3.org/2000/svg" xmlns:xlink="http://www.w3.org/1999/xlink" width="412" height="870" viewBox="0 0 412 870">
  <defs>
    <clipPath id="clip-path">
      <rect id="Rectangle_70" data-name="Rectangle 70" width="412" height="870" fill="#fff" stroke="#707070" stroke-width="1"/>
    </clipPath>
  </defs>
  <g id="Mask_Group_3" data-name="Mask Group 3" clip-path="url(#clip-path)">
    <g id="Group_171" data-name="Group 171">
      <g id="Group_2" data-name="Group 2" transform="translate(-290.81 -131.519)" opacity="0.03">
        <path id="Path_32" data-name="Path 32" d="M774.305,379.3c1.566,8.9,5.6,16.414,9.459,23.981,4.41,8.637,8.383,17.326,9.473,27.2,1.4,12.666-2.36,23.67-9.619,33.7-11.935,16.486-28.165,28-45.759,37.4-14.9,7.955-30.522,14.574-45.935,21.539-2.632,1.19-3.765,2.638-3.846,5.326-.328,10.724,1.956,20.716,8.165,29.637,6.589,9.469,17.094,11.988,27.184,6.63,12.825-6.81,23.169-16.506,32.5-27.457,11.393-13.375,22.384-27.143,34.467-39.867C805,482,823.653,472.461,842.927,464.1c15.5-6.724,30.885-13.73,46.311-20.63,1.034-.462,1.995-1.09,2.718-1.491-1.715-10.48-3.805-20.707-4.976-31.038-1.537-13.556-.112-26.778,7.461-38.655,5.528-8.67,14.469-12.052,24.171-9.225,5.036,1.468,7.865,5.586,10.372,9.676,12.842,20.957,12.336,42.048-.567,62.666-3.6,5.751-8.632,10.666-13.381,15.605-1.9,1.972-1.816,3.058-.374,5.042,8.751,12.038,23.408,17.113,39.179,13.395A59.132,59.132,0,0,0,978.1,457.086a6.818,6.818,0,0,0,2.753-6.6c-1.555-14.193-2.8-28.42-4.367-42.611q-3.5-31.73-7.321-63.424c-2.354-19.35-5-38.664-7.442-58-2.142-16.939-4.145-33.9-6.283-50.837-2.457-19.467-5.028-38.92-7.487-58.387-2.14-16.94-4.178-33.893-6.3-50.836-.427-3.4-1.55-6.808-1.416-10.176a49.812,49.812,0,0,1,2.168-11.8c.792-2.72,2.479-5.18,3.835-7.894,9.469,12.015,21.687,40.372,23.642,54.88-5.178-.931-6.819-5.74-10.781-9.382.4,6.414.63,12.031,1.134,17.623,1.912,21.207,3.7,42.427,5.947,63.6,1.895,17.862,4.4,35.659,6.555,53.5,1.681,13.917,3.2,27.855,4.856,41.775,2.1,17.59,4.28,35.17,6.4,52.757,2.108,17.456,4.674,34.875,6.111,52.386a94.662,94.662,0,0,1-3.683,35.588c-4.943,16.13-15.782,26.044-32.1,30.1-7.481,1.858-14.982,2.828-22.693,1.53-12.075-2.031-19.191-10.311-25.3-19.862-2.051-3.207-3.829-6.589-6.032-10.413-5.579,2.113-11.385,3.949-16.883,6.458-21.05,9.608-42.125,19.176-62.943,29.272-12.071,5.854-21.7,15.139-30.669,24.96-14.778,16.185-28.794,33.11-44.193,48.674C728.7,587.047,706.8,584.7,691.9,565.573c-6.138-7.877-8.91-17.052-10.715-26.638-.584-3.1-1.09-6.215-1.671-9.552-7.549.894-14.84,1.873-22.156,2.6-12.088,1.2-24.135,1.392-36.172-.984-21.073-4.159-34.567-16.859-41.956-36.578-4.259-11.362-5.392-23.294-5.96-35.292-.168-3.551-.026-7.118-.026-12.011-4.507,3.621-8.516,6.25-11.807,9.587-15.649,15.868-36.438,6.965-46.955-5.73-12.667-15.291-14.381-32.626-9.53-50.817,3.264-12.24,8.151-24.047,12.32-36.044.289-.833.642-1.642.743-1.9-6.374-3.983-12.832-7.436-18.639-11.762-14.037-10.458-17.425-25.375-16.2-41.825,1.394-18.768,9.114-35.378,18.487-51.26,2.8-4.736,3.932-8.647,2.228-14.367-3.77-12.655-.774-24.925,4.769-36.659,6.036-12.775,14.612-23.863,23.05-35.045a7.137,7.137,0,0,0,1.7-6.129c-2.065-12.47.914-24.3,5.658-35.74.513-1.238,2.013-2.236,3.273-2.971A718.526,718.526,0,0,1,681.76,63.927c31.29-10.191,63.135-18.7,94.8-27.715,7.415-2.112,15.072-4.184,22.883-1.571,8.343,2.792,13.406,8.458,12.229,18.486-1.447,12.321-7.4,22.682-13.879,32.791-9.816,15.309-22.472,28.3-34.557,41.757-5.682,6.327-11.1,12.888-17.173,19.961,1.588-7.627,4.23-14.136,8.4-19.687,6.957-9.253,14.4-18.151,21.895-26.987,6.674-7.873,13.814-15.352,20.468-23.24a15.991,15.991,0,0,0,3.7-7.734c1.1-8.561-4.088-14.264-13.1-13.67-11.529.761-23.3,1.316-34.415,4.133-18.821,4.77-37.376,10.763-55.748,17.1C653,92.811,609.215,109.365,567.253,130.324c-7.956,3.974-15.569,8.637-23.324,13.012a21.169,21.169,0,0,0-2.294,1.786c12.12,8.467,24,16.787,35.894,25.074q35.732,24.884,71.485,49.738c5.121,3.563,10.2,7.186,15.391,10.648.9.6,2.508,1.076,3.337.675a104.754,104.754,0,0,1,52.212-10.663,6.6,6.6,0,0,0,1.4-.481c-1.979-7.636-4.049-15.317-5.954-23.037-3.958-16.037-8.391-31.986-11.546-48.181-2.318-11.9-2.855-24.131,3.086-35.54.679-1.3,1.458-2.557,2.661-4.656l19.7,40.28-10.562-3.787c1.027,7.665,1.737,14.7,2.949,21.64a123.788,123.788,0,0,0,12.836,37.783c6.715,12.442,16.947,21.512,28.428,29.39a8.692,8.692,0,0,1,3.443,4.174c2.082,7.259,1.669,14.626.049,21.94a11.83,11.83,0,0,1-1.109,2.351c-21.894-18.914-46-25.564-74.33-15.122,9.158,7.475,17.843,14.307,26.244,21.47,23.087,19.687,45.94,39.65,69.15,59.189,5.885,4.954,12.733,8.77,19.193,13.025a26.012,26.012,0,0,0,4.289,1.753c-.648-7.318-1.142-14.038-1.858-20.734-1.64-15.333-3.279-30.669-5.123-45.978-2-16.576-4.269-33.118-6.347-49.683q-2.64-21.05-5.1-42.123c-1.2-10.382-1.837-20.85-3.5-31.155-1.19-7.379,1.894-13.036,5.282-19.493,10.8,17.242,20.774,34.228,24.38,54.88l-12.175-9.663c1.309,11.821,2.416,22.809,3.763,33.765,2.132,17.328,4.44,34.634,6.645,51.952q3.817,29.962,7.563,59.935c.719,5.819,1.292,11.662,1.684,17.51.18,2.671,1.331,3.875,3.873,4.234,14.839,2.1,26.458-4.166,36.558-14.177.806-.8,1.052-2.6.91-3.855-1.857-16.465-3.747-32.926-5.8-49.368-1.99-15.93-4.152-31.84-6.289-47.751-2.492-18.557-5.087-37.1-7.548-55.663-2.445-18.437-4.623-36.911-7.21-55.328-2.445-17.405-5.333-34.746-7.908-52.134C829.356,52.229,829,51.871,835.6,35.93c9.5,17.733,21.161,34,25.034,55.006L848,81.373c0,2.07-.115,3.405.017,4.715,1.633,16.222,3.071,32.469,5.022,48.652,2.21,18.334,4.871,36.613,7.365,54.912,2.1,15.4,4.256,30.792,6.359,46.192q3.723,27.257,7.38,54.522c1.169,8.836,2.887,17.678,3.085,26.546.528,23.65-10.077,39.321-31.9,48.453a107.056,107.056,0,0,1-11.773,4.4c-2.656.759-3.267,2.04-3.165,4.6.4,9.945.95,19.9.78,29.847-.275,16.1-1.97,32.043-7.583,47.32-.394,1.073-.85,2.123-1.306,3.172a14.766,14.766,0,0,1-.959,1.459c0-6.372.336-12.077-.062-17.73-1.271-18.059-2.8-36.1-4.265-54.144-.237-2.92-1.068-5.851-.886-8.731.281-4.452-1.974-6.011-5.763-7.469-16.395-6.311-29.273-17.7-41.774-29.607-19.01-18.1-37.647-36.629-58.839-52.271-3.586-2.647-7.33-5.08-11.017-7.588a11.791,11.791,0,0,0-2.258-.566,44.85,44.85,0,0,0,2.825,3.993c9.782,10.668,18.559,22.008,23.881,35.653a61.1,61.1,0,0,1,3.146,32.3c-1.3,8.293-6,14.222-12.316,19.028-11.668,8.877-24.937,14.621-38.707,19.432-17.519,6.121-35.143,12.037-52.3,19.059a98.752,98.752,0,0,0-40.577,30.4,8.617,8.617,0,0,0-2.123,4.326c-.831,15.136.98,29.79,8.952,43.1,7.76,12.954,19.841,19.87,34.032,23.288a99.745,99.745,0,0,0,53.952-2.094,7.232,7.232,0,0,0,5.119-4.929c4.628-12.249,9.579-24.377,14.226-36.62a4.9,4.9,0,0,0-.792-4.165,118.259,118.259,0,0,0-9.231-9.146c-2.533-2.284-2.911-4.628-.982-7.37,1.971-2.8,3.89-5.652,6-8.348,1.944-2.484,4.185-4.06,7.423-1.664a3.1,3.1,0,0,0,2.872-.384c11.884-10.086,23.226-20.682,31.134-34.369-8.738-6.92-10.133-15.529-4.162-25.25,4.209-6.851,10.554-6.753,14.461.285,2.679,4.825,2.694,10.044,1.668,15.262-.824,4.194-1.754,8.194,2.427,11.357a4.348,4.348,0,0,1,1.423,3.368c-.192,1.781-1.1,3.484-1.71,5.219a30.82,30.82,0,0,1-4.338-2.532,24.7,24.7,0,0,1-3-3.391l-35.007,34.287c2.44,2.553,5.157,5.547,8.041,8.368,2.421,2.369,2.589,4.877.773,7.518q-4.217,6.132-8.663,12.107a71.246,71.246,0,0,0-13.089,31.4,30.158,30.158,0,0,0-.024,4.157c5.367-2.316,10.438-4.45,15.467-6.683,21.375-9.492,41.753-20.705,60.03-35.422,5.349-4.307,10.262-9.152,15.477-13.633,1.97-1.693,2.261-3.35,1.221-5.69-7.586-17.08-15.076-34.2-22.627-51.3-2.057-4.657-3.954-9.413-6.392-13.867-4.3-7.853-1.243-14.965,1.657-22.163a6.216,6.216,0,0,1,1.342-1.833,12.917,12.917,0,0,1,1.73-1.265l27.98,31.225C782.509,384.967,779.183,378.667,774.305,379.3ZM653.319,263.844c-10.8,8.592-21.895,16.75-32.211,25.8-14.55,12.766-28.442,26.278-42.758,39.314-14.973,13.635-31.3,25.244-50.359,32.621a5.372,5.372,0,0,0-2.585,2.445c-6.144,12.346-11.3,25.069-13.892,38.686-2.1,11.074-2.129,21.975,2.512,32.615,7.192,16.493,21.367,18,33.121,10.381,7.053-4.574,13.375-10.617,19.071-16.869a159.671,159.671,0,0,1,37.057-30.4c18.958-11.178,39.7-18.293,60.131-26.1,19.166-7.322,37.957-15.331,54.809-27.325,2.486-1.769,3.123-3.453,1.8-5.859-4.654-8.448-8.714-17.34-14.292-25.139C691.713,294.431,672.795,279.764,653.319,263.844ZM534.65,222.861l1.33.862c-1.262,3.405-2.224,6.961-3.842,10.188-4.679,9.328-12.125,16.251-20.264,22.528-1.474,1.136-3.239,2.354-3.949,3.944-4.61,10.331-9.351,20.632-13.3,31.222-4.255,11.408-5.989,23.276-1.746,35.141,1.382,3.863,3.3,7.929,6.1,10.812,6.735,6.943,19.428,8.858,27.637,3.768,12.3-7.627,24.987-15.04,35.886-24.427,23.048-19.854,45.046-40.927,67.473-61.5,2.289-2.1,4.555-4.224,7-6.491l-99.557-75.828c-7.564,10.611-15.531,20.6-19.771,32.852a33.977,33.977,0,0,0-.181,23.207c1.585,4.419,5.107,5.268,8.546,2.048,1.387-1.3,2.405-2.986,3.776-4.3C531.294,225.425,533.018,224.191,534.65,222.861Zm370.967,212.52c7.133-5.071,13.886-9.731,20.442-14.657a6.673,6.673,0,0,0,2.517-4.46c.276-12.541-3.944-23.251-14.136-30.968-4.41-3.339-8.6-2.8-12.95.619a17.2,17.2,0,0,0-6.677,13.571C894.34,412.171,898.833,423.368,905.617,435.381ZM737.246,390.475l1.307-.958c.716-3.339-.14-6.246-2.991-8.245a4.3,4.3,0,0,0-3.466-.285c-.457.167-.809,2.338-.346,2.992C733.381,386.287,735.384,388.331,737.246,390.475Z" transform="translate(0 -3.759)" fill="#8c8c8c"/>
        <path id="Path_33" data-name="Path 33" d="M1027.834,60.464c10.418,18.528,20.934,36.278,24.965,57.934L1040.08,107.23c5.66,38.975,11.162,76.868,16.664,114.76l1.162.509c2.429-3.58,4.938-7.11,7.2-10.789.352-.572-.21-1.924-.666-2.738-1.676-3-3.669-5.83-5.205-8.893-3.46-6.9,1.725-16.977,9.392-17.809,1.795-.195,4.445,1.225,5.623,2.741,4.233,5.447,4.258,11.8,2.644,18.215-1.164,4.625-3.235,9.071-2.343,14.051.089.5-.459,1.121-.817,1.921-3.212-2.34-4.99-.7-6.713,1.993a30.545,30.545,0,0,1-5.448,6.852c-4.2,3.607-4.54,7.739-3.757,12.9a180.459,180.459,0,0,1,1.577,45.4c-.886,8.714-2.619,17.249-6.544,25.264-1.615-22.277-2.1-44.642-8.2-66.35l-26.171,17.348q-.393-.52-.786-1.04c2.484-2.5,4.935-5.029,7.459-7.485,5.3-5.163,10.732-10.2,15.9-15.5a6.336,6.336,0,0,0,1.54-4.569c-2.946-25.056-5.676-50.147-9.225-75.121-3.636-25.584-8.251-51.028-12.125-76.581C1020.055,74.45,1023.316,67.512,1027.834,60.464Zm41.647,141.907,1.5-.748c1.24-3.092,1.069-6.073-1.606-8.455a3.759,3.759,0,0,0-3.346-.734c-.786.429-1.558,2.445-1.182,3.159A63.226,63.226,0,0,0,1069.481,202.371Z" transform="translate(-136.2 -10.647)" fill="#8c8c8c"/>
        <path id="Path_34" data-name="Path 34" d="M1191.793,457.24c-.951-12.834-1.995-25.662-2.834-38.5-1.771-27.1-4.088-54.124-8.221-80.992-3.214-20.892-5.751-41.887-8.676-62.824q-3.646-26.1-7.532-52.167c-.4-2.714-1.721-5.31-1.987-8.023a27.264,27.264,0,0,1,.327-9.347c1.081-4.141,3.068-8.046,4.924-12.695,10.318,17.458,22.165,33.478,25.96,54.618l-12.354-9.913a46.024,46.024,0,0,0,.022,4.916c1.874,15.556,3.662,31.124,5.742,46.653,3.041,22.715,6.354,45.393,9.453,68.1a475.688,475.688,0,0,1,3.973,71.359C1200.439,438.872,1196.476,447.927,1191.793,457.24Z" transform="translate(-173.028 -44.324)" fill="#8c8c8c"/>
        <path id="Path_35" data-name="Path 35" d="M1089.956,415.949c-2.428,4.039-4.23,7.258-6.262,10.323a28.355,28.355,0,0,1-3.767,4.247c-1.974,1.962-3.814,1.825-5.945-.119-4.979-4.541-10.152-8.871-15.467-13.477l-11.24,14.311c-8.063-3.346-13.9-9.088-19.057-15.615a3.386,3.386,0,0,1-.036-3.014c2.758-5,5.7-9.9,9.081-15.687l20.454,16.123c2.458-3.509,5.061-7.062,7.49-10.73,3.369-5.09,4.514-5.43,9.088-1.3C1079.669,405.862,1084.786,411,1089.956,415.949Z" transform="translate(-138.784 -96.34)" fill="#8c8c8c"/>
        <path id="Path_36" data-name="Path 36" d="M642.918,71.472c3.016-6.345,6.954-10.463,12.889-13.273,26.242-12.431,53.648-21.858,80.793-31.967,6.391-2.38,12.775-4.78,20.238-7.572-2.9,5.514-5.927,9.468-10.759,11.411C719.432,40.787,692.722,51.348,666.049,62,658.522,65,651.046,68.139,642.918,71.472Z" transform="translate(-40.745)" fill="#8c8c8c"/>
        <path id="Path_37" data-name="Path 37" d="M655.056,574.113c1.77,2.694,3.241,4.737,4.488,6.908a9.825,9.825,0,0,1,1.376,3.9c.095,1.128-.211,2.825-.969,3.338-.732.494-2.506.156-3.417-.438-7.832-5.114-8.72-11.337-3.321-19.912a19.592,19.592,0,0,1,8.4-6.83c24.29-10.7,48.718-21.083,73.107-31.557.461-.2.959-.306,2.2-.693-.509,1.677-.52,3.223-1.3,4.01-2.983,3.019-5.753,6.78-9.427,8.489-16.6,7.718-33.534,14.712-50.234,22.218C668.937,566.7,662.19,570.484,655.056,574.113Z" transform="translate(-42.495 -129.936)" fill="#8c8c8c"/>
        <path id="Path_38" data-name="Path 38" d="M989.847,709.246c.914-8.283,1.376-15.544,2.66-22.657.554-3.068,2.675-5.907,4.329-8.705,1.429-2.419,3.823-2.241,6.121-1.481,6.627,2.192,8.694,8.255,4.64,14.412a45.377,45.377,0,0,0-4.719-3.064c-1.927-.954-4.019-1.576-6.039-2.343-.748,2.143-1.954,4.244-2.16,6.438-.749,7.973-.983,16-1.8,23.96a20.236,20.236,0,0,1-3.454,8.529c-1.614-3.536-3.141-7.116-4.859-10.6-3.4-6.9-7.823-12.467-16.377-13.1-3.044-.227-5.961-4.941-6.46-9.511a7.41,7.41,0,0,1,0-2.289c1.41-6.69,2.176-8.588,8.4-4.457,4.71,3.125,8.469,7.9,12.084,12.392C985.04,700.276,986.99,704.485,989.847,709.246Z" transform="translate(-121.921 -167.394)" fill="#8c8c8c"/>
        <path id="Path_39" data-name="Path 39" d="M725.225,253.158c-2.054-3.917-3.67-7.351-5.608-10.592s-3.867-6.65-6.462-9.347a12.925,12.925,0,0,0-6.949-3.42c-6.236-.96-8.791-3.317-8.979-9.454-.218-7.1,2.679-8.945,9.083-5.726,5.838,2.934,9.22,8.248,12.782,13.372,1.578,2.27,3.107,4.574,5.341,7.868.463-6.024.606-10.949,1.285-15.8a85.032,85.032,0,0,1,2.856-12.935,14.617,14.617,0,0,1,3.577-5.308c3.235-3.425,5.74-3.643,9.411-1.225,3.08,2.029,4.111,5.286,2.761,9-.474,1.3-1.14,2.537-1.877,4.152-1.656-1.464-3.037-2.862-4.594-4.025-3.638-2.716-6.834-1.736-7.431,2.717a181.205,181.205,0,0,0-1.432,19.368C728.81,238.807,729.112,245.819,725.225,253.158Z" transform="translate(-54.575 -45.926)" fill="#8c8c8c"/>
        <path id="Path_40" data-name="Path 40" d="M718.02,604.134l-10.2-6.752c-.292,3-.707,5.209-.689,7.419.06,7.373.585,14.758.3,22.114-.142,3.7-1.642,7.349-2.805,12.173-3.008-4.992-5.242-8.945-7.715-12.742-3.283-5.041-7.1-9.334-13.94-9.191A3.491,3.491,0,0,1,680.342,615a45.072,45.072,0,0,1,.25-10.05c.07-.469,3.984-1.314,4.953-.534a122.808,122.808,0,0,1,11.537,10.83c1.974,2.058,3.448,4.595,6.015,6.722.157-1.8.33-3.605.47-5.409.5-6.467.822-12.953,1.549-19.394.338-2.993,1.123-6.433,4.577-7.276,4.283-1.046,6.585,2.574,9.228,5.037,2.713,2.529.933,5.134-.087,7.682A16.845,16.845,0,0,1,718.02,604.134Z" transform="translate(-50.235 -145.441)" fill="#8c8c8c"/>
        <path id="Path_41" data-name="Path 41" d="M854.644,242.194c.927-6.079,1.441-11.541,2.684-16.832a31.428,31.428,0,0,1,4.152-9.313,6.55,6.55,0,0,1,4.716-2.808,5.66,5.66,0,0,1,5.829,5.055c.264,2.134-.159,4.353-.312,7.236-2.222-1.32-3.583-2.18-4.991-2.956-4.388-2.419-6.891-1.082-6.974,3.9-.114,6.879-.024,13.762-.022,20.643q0,5.259,0,10.517l-.929.314c-2.67-3.606-5.136-7.387-8.069-10.764a51.739,51.739,0,0,0-8.563-7.987c-1.709-1.238-4.252-1.647-6.463-1.805a8.041,8.041,0,0,1-7.6-9.3c.426-2.477,1.57-3.39,4.219-2.687,8.669,2.3,14.931,7.905,20.514,14.513C853.314,240.487,853.758,241.077,854.644,242.194Z" transform="translate(-87.881 -49.558)" fill="#8c8c8c"/>
        <path id="Path_42" data-name="Path 42" d="M822.655,555.613c8.128.68,14.315,2.96,18.638,8.752,5.263,7.05,2.737,15.809-5.759,21.559-3.332,2.255-6.882,2.553-10.6,1.952-3.223-.52-6.4-3.824-6.032-6.927C819.907,572.547,821.352,564.2,822.655,555.613Zm16.6,19c-3.526-5.313-7.605-9.52-15.328-9.881-.254,3.776-.509,7.358-.733,10.942-.2,3.175,1.653,4.241,4.477,4.315C832.36,580.112,835.8,577.609,839.259,574.614Z" transform="translate(-85.56 -136.758)" fill="#8c8c8c"/>
        <path id="Path_43" data-name="Path 43" d="M912.8,134.994c1.115-5.725,2.282-11.441,3.318-17.182.406-2.247,1.661-3.144,3.738-2.631,3.188.786,6.593,1.286,9.432,2.8,8.473,4.514,10.011,14.881,3.533,22.107a24.2,24.2,0,0,1-3.742,3.249c-3.326,2.442-6.735,4-10.934,1.706C914.052,142.81,912.948,139.389,912.8,134.994Zm5.472-10.466a65.752,65.752,0,0,0-.733,8.881,5.487,5.487,0,0,0,2.286,3.981c2.914,1.613,9.135-.244,10.842-3.295.73-1.3.809-3.963-.042-4.981C927.6,125.5,923.739,123.136,918.268,124.527Z" transform="translate(-109.481 -24.547)" fill="#8c8c8c"/>
        <path id="Path_44" data-name="Path 44" d="M995.8,532.72c.408,4.282-2.016,6.5-4.846,8.214-4.667,2.822-9.529,5.321-14.25,8.056-2.267,1.313-4.367,2.914-6.621,4.253-.564.335-1.431.162-2.868.283,2.258-2.862,4.06-5.286,6.015-7.579,1.4-1.637,1.506-3.065.009-4.668a35.643,35.643,0,0,1-2.349-3.009c-4.392-5.857-4.329-7.884.973-13.056a27.213,27.213,0,0,1,6.677-4.967c3.992-1.983,6.009-.551,6.148,3.858.039,1.242.006,2.486.006,4.828l-6.082-3.185a4.643,4.643,0,0,0-1.448.672c-1.4,1.112-4.027,2.775-3.807,3.452.634,1.952,2.107,4.4,3.847,5.045,2.569.956,5.661.732,8.514.613,1.732-.072,3.434-.887,5.147-1.377C992.414,533.71,993.962,533.254,995.8,532.72Z" transform="translate(-123.341 -127.528)" fill="#8c8c8c"/>
        <path id="Path_45" data-name="Path 45" d="M947.255,274.3c-.666,5.418-1.365,10.831-1.99,16.254-.913,7.926.341,15,8.367,19.821,1.269-2.688,2.5-5.283,3.8-8.044,4.217,3.981,3.414,14.691-.86,17.5-2.771,1.82-7.139.783-9.447-2.388-3.546-4.872-4.991-10.506-5.547-16.392a50.941,50.941,0,0,1,4.655-26.865Z" transform="translate(-116.75 -65.079)" fill="#8c8c8c"/>
        <path id="Path_46" data-name="Path 46" d="M651.156,186.435c.962,7.317-3.014,12.438-8.762,11.522-4.407-.7-6.536-4.024-7.106-7.984-1.93-13.422,2.1-25.739,7.063-37.827l1.541.268c-.885,4.862-1.969,9.7-2.6,14.595a112.545,112.545,0,0,0-.871,13.618c-.009,1.52.965,3.15,1.793,4.55,2.587,4.376,2.641,4.338,7.22,1.908A16.943,16.943,0,0,1,651.156,186.435Z" transform="translate(-38.677 -33.998)" fill="#8c8c8c"/>
        <path id="Path_47" data-name="Path 47" d="M717.492,168.125c1.38,5.063-.9,10.053-5.057,11.411a7.4,7.4,0,0,1-9.858-6.284,61.864,61.864,0,0,1,.1-18.452c1.2-7.268,3.851-14.3,5.875-21.428l1.891.411c-.564,3.739-1.219,7.467-1.671,11.22-.678,5.623-1.822,11.289-1.577,16.884.14,3.191,2.646,6.278,4.178,9.611Z" transform="translate(-55.777 -29.216)" fill="#8c8c8c"/>
        <path id="Path_48" data-name="Path 48" d="M1097.78,358.612l4.36-6.786c2.059,3.888-.1,12.746-3.477,14.867-3.321,2.085-8.52-.4-9.442-5.438a59.727,59.727,0,0,1-.956-17.032c.813-7.4,2.927-14.665,4.56-21.97a3.906,3.906,0,0,1,2.137-2.462c-.666,3.58-1.664,7.136-1.921,10.744-.44,6.156-.956,12.4-.356,18.5C1092.982,352.06,1095.687,354.854,1097.78,358.612Z" transform="translate(-154.106 -76.696)" fill="#8c8c8c"/>
        <path id="Path_49" data-name="Path 49" d="M886.363,368.671c1.386,5.163-1.211,11.8-5.351,13.382a6.181,6.181,0,0,1-5.232-.607c-1.948-1.623-4.027-3.949-4.528-6.3-2.705-12.7,1.427-24.211,7.229-35.316-1.12,5.7-2.4,11.384-3.316,17.12-1.014,6.322-.143,12.21,5.4,16.922Z" transform="translate(-98.684 -81.799)" fill="#8c8c8c"/>
        <path id="Path_50" data-name="Path 50" d="M1116.536,523.836c-.967,4.674-2.085,9.322-2.861,14.027-.966,5.861-1.086,11.742,2.41,16.94.966,1.436,2.694,2.36,4.072,3.519.882-1.432,1.775-2.859,2.644-4.3.315-.521.573-1.077.917-1.733,2.632,4.841-1.061,14.073-6.009,15.217-3.1.716-5.831-.418-6.877-3.4a27.973,27.973,0,0,1-1.846-9.609,85.327,85.327,0,0,1,6.083-29.314,11.078,11.078,0,0,1,.9-1.544Z" transform="translate(-159.448 -128.616)" fill="#8c8c8c"/>
        <path id="Path_51" data-name="Path 51" d="M1003.63,160.125c-.06,11.11-5.175,23.046,6,32.864l4.538-6.859c2.213,4.07,1.516,7.762-.245,11.371-2.252,4.619-6.828,5.618-10.056,1.6a23.744,23.744,0,0,1-4.638-10.155C997.371,178.931,1000.259,169.454,1003.63,160.125Z" transform="translate(-131.347 -36.03)" fill="#8c8c8c"/>
        <path id="Path_52" data-name="Path 52" d="M1066.991,677.946a17.955,17.955,0,0,1-3.744,14.133c-1.262,1.555-3.873,3.333-5.439,3-2.088-.448-4.777-2.538-5.387-4.491a36.425,36.425,0,0,1-1.279-11.621c.229-9.068,2.483-17.759,5.6-26.217l1.1.121c-.3,2.345-.49,4.707-.907,7.03-.719,4-1.683,7.953-2.348,11.959a17.541,17.541,0,0,0,3.112,13.02c1.591,2.379,2.966,2.09,4.407.161C1063.825,682.742,1065.37,680.316,1066.991,677.946Z" transform="translate(-144.712 -161.498)" fill="#8c8c8c"/>
        <path id="Path_53" data-name="Path 53" d="M927.255,723.95c.505,6.433-1.236,11.935-5.593,16.35-2.067,2.094-6.151,1.406-7.965-1.458a14.542,14.542,0,0,1-2.312-6.35c-.885-11.477,1.444-22.493,5.409-33.211.069-.186.364-.286,1.506-1.133-.759,4.441-1.373,8.058-2,11.674-.582,3.376-1.415,6.733-1.675,10.133a13.5,13.5,0,0,0,.979,6.327c1.034,2.307,2.866,4.256,4.353,6.36,1.581-1.722,3.206-3.405,4.725-5.181C925.626,726.363,926.4,725.125,927.255,723.95Z" transform="translate(-109.074 -173.06)" fill="#8c8c8c"/>
        <path id="Path_54" data-name="Path 54" d="M1219.381,324.624c-.566,5.353-1.075,10.712-1.71,16.057-.748,6.3-.8,12.5,2.346,18.257a35.037,35.037,0,0,0,3.07,4.065l3.326-3.5c2.219,3.37,1.948,7.946-.492,10.556-2.106,2.252-4.362,1.757-6.487.177-4.514-3.353-5.668-8.315-5.965-13.515-.632-11.067,2.278-21.612,4.769-32.208Z" transform="translate(-186.038 -77.899)" fill="#8c8c8c"/>
        <path id="Path_55" data-name="Path 55" d="M713.522,706.908c1.643,6.867-2.25,14.038,1.789,20.593a32.576,32.576,0,0,0,3.908,4.339l5.571-5.12c1.2,4.078-1.179,11.226-4.207,13.038-3.322,1.988-8.636-.2-10.173-4.631C707,725.29,709.479,715.981,713.522,706.908Z" transform="translate(-57.526 -175.292)" fill="#8c8c8c"/>
        <path id="Path_56" data-name="Path 56" d="M584.2,614.041c-1.125,4.911-2.28,9.818-3.348,14.742a9.174,9.174,0,0,0,.022,2.67c.5,5.755,3.064,7.111,9.568,5.087,1.573,4.311-1.014,10.027-5.05,11.16-3.588,1.006-7.467-1.76-8.3-6.536A32.6,32.6,0,0,1,584.2,614.041Z" transform="translate(-23.84 -151.639)" fill="#8c8c8c"/>
        <path id="Path_57" data-name="Path 57" d="M941.99,410.7c.417-3.879,1.713-6.253,4.935-7.991,9.163-4.942,18.113-10.278,27.163-15.429a30.165,30.165,0,0,1,3.215-1.311c-.856,3.869-1.9,6.593-5.2,8.365-9.509,5.1-18.872,10.469-28.3,15.719A13.878,13.878,0,0,1,941.99,410.7Z" transform="translate(-116.917 -93.552)" fill="#8c8c8c"/>
        <path id="Path_58" data-name="Path 58" d="M829.384,127.676l4.678-5.1c2.682,4.423-1.34,13.618-6.157,14.01-1.122.091-2.781-1.119-3.495-2.194a24.642,24.642,0,0,1-3.915-16.412c.677-6.514,2.166-12.943,3.3-19.409l1.262.121c0,2.12.136,4.251-.037,6.357-.177,2.145-.747,4.255-.986,6.4-.581,5.2-1.426,10.5,3.043,14.643A19.566,19.566,0,0,0,829.384,127.676Z" transform="translate(-85.936 -20.352)" fill="#8c8c8c"/>
        <path id="Path_59" data-name="Path 59" d="M730.253,426.912c-3.47,5.22-5.915,9.573-9.023,13.383s-4.546,3.588-8.127.452c-4.772-4.18-9.591-8.308-14.714-12.738L687.1,442.351c-7.938-3.419-13.765-9.222-19.072-15.633a2.6,2.6,0,0,1-.415-2.29c2.966-5.3,6.07-10.524,9.564-16.5l20.351,16.16c2.436-3.446,4.963-6.848,7.3-10.373,3.8-5.728,4.162-5.828,9.456-1.441.782.648,1.541,1.326,2.288,2.015C721.071,418.43,725.563,422.582,730.253,426.912Z" transform="translate(-47.002 -99.143)" fill="#8c8c8c"/>
        <path id="Path_60" data-name="Path 60" d="M629.777,455.084c-4.783,13.733-1.653,27.557-7.017,39.185L610.1,474.507c-7.855,3.378-15.757-3.25-13.313-12.277,1.205-4.452,4.4-5.946,7.845-2.924,4.472,3.92,8.379,8.493,12.447,12.861,1.608,1.728,3,3.661,5.381,5.264.331-3.993.369-8.036,1.064-11.964a131.938,131.938,0,0,1,3.652-15.461c1.1-3.6,3.945-3.767,7.069-2.294,4.672,2.2,6.57,5.763,5.44,10.733-.253,1.112-.93,2.826-1.654,2.96-.974.181-2.328-.724-3.258-1.482C633.206,458.644,631.841,457.112,629.777,455.084Z" transform="translate(-28.882 -109.055)" fill="#8c8c8c"/>
        <path id="Path_61" data-name="Path 61" d="M564.947,493.735c-1.27,5.141-3.069,10.223-3.656,15.441a47.438,47.438,0,0,0,.592,14.6c.847,4.139,2.878,4.238,5.675,1.027.983-1.129,1.878-2.334,2.948-3.674,1.439,4.042,1.148,7.917-.984,11.116a10.577,10.577,0,0,1-6.134,4.3c-3.216.587-5.884-1.667-7-4.763A24.622,24.622,0,0,1,554.9,524C554.746,515.2,559.308,501.034,564.947,493.735Z" transform="translate(-18.328 -120.998)" fill="#8c8c8c"/>
        <path id="Path_62" data-name="Path 62" d="M584.107,312.466c-5.115-3.2-8.368-7.362-9.6-13.037-1.674-7.678,2.834-15.508,10.09-17.34,4.987-1.26,8.76,1.457,8.713,6.573-.041,4.458-.68,8.913-.647,13.366.013,1.673,1.044,3.4,1.833,4.994,1.937,3.915,4.19,7.686,5.9,11.692.512,1.2-.345,2.983-.685,5.228L589.5,314.3c-15.427,26.818-38.774,44.414-63.157,60.935C545.6,354.475,567.958,336.594,584.107,312.466Zm4.663-10.8c0-2.717.514-4.509-.129-5.647a8.39,8.39,0,0,0-3.995-3.383c-.752-.3-3.138,1.149-3.118,1.75a6.459,6.459,0,0,0,1.831,4.05C584.615,299.657,586.424,300.315,588.77,301.662Z" transform="translate(-11.055 -67.016)" fill="#8c8c8c"/>
      </g>
      <g id="Group_167" data-name="Group 167" transform="translate(-924.81 257.481)" opacity="0.03">
        <path id="Path_32-2" data-name="Path 32" d="M774.305,379.3c1.566,8.9,5.6,16.414,9.459,23.981,4.41,8.637,8.383,17.326,9.473,27.2,1.4,12.666-2.36,23.67-9.619,33.7-11.935,16.486-28.165,28-45.759,37.4-14.9,7.955-30.522,14.574-45.935,21.539-2.632,1.19-3.765,2.638-3.846,5.326-.328,10.724,1.956,20.716,8.165,29.637,6.589,9.469,17.094,11.988,27.184,6.63,12.825-6.81,23.169-16.506,32.5-27.457,11.393-13.375,22.384-27.143,34.467-39.867C805,482,823.653,472.461,842.927,464.1c15.5-6.724,30.885-13.73,46.311-20.63,1.034-.462,1.995-1.09,2.718-1.491-1.715-10.48-3.805-20.707-4.976-31.038-1.537-13.556-.112-26.778,7.461-38.655,5.528-8.67,14.469-12.052,24.171-9.225,5.036,1.468,7.865,5.586,10.372,9.676,12.842,20.957,12.336,42.048-.567,62.666-3.6,5.751-8.632,10.666-13.381,15.605-1.9,1.972-1.816,3.058-.374,5.042,8.751,12.038,23.408,17.113,39.179,13.395A59.132,59.132,0,0,0,978.1,457.086a6.818,6.818,0,0,0,2.753-6.6c-1.555-14.193-2.8-28.42-4.367-42.611q-3.5-31.73-7.321-63.424c-2.354-19.35-5-38.664-7.442-58-2.142-16.939-4.145-33.9-6.283-50.837-2.457-19.467-5.028-38.92-7.487-58.387-2.14-16.94-4.178-33.893-6.3-50.836-.427-3.4-1.55-6.808-1.416-10.176a49.812,49.812,0,0,1,2.168-11.8c.792-2.72,2.479-5.18,3.835-7.894,9.469,12.015,21.687,40.372,23.642,54.88-5.178-.931-6.819-5.74-10.781-9.382.4,6.414.63,12.031,1.134,17.623,1.912,21.207,3.7,42.427,5.947,63.6,1.895,17.862,4.4,35.659,6.555,53.5,1.681,13.917,3.2,27.855,4.856,41.775,2.1,17.59,4.28,35.17,6.4,52.757,2.108,17.456,4.674,34.875,6.111,52.386a94.662,94.662,0,0,1-3.683,35.588c-4.943,16.13-15.782,26.044-32.1,30.1-7.481,1.858-14.982,2.828-22.693,1.53-12.075-2.031-19.191-10.311-25.3-19.862-2.051-3.207-3.829-6.589-6.032-10.413-5.579,2.113-11.385,3.949-16.883,6.458-21.05,9.608-42.125,19.176-62.943,29.272-12.071,5.854-21.7,15.139-30.669,24.96-14.778,16.185-28.794,33.11-44.193,48.674C728.7,587.047,706.8,584.7,691.9,565.573c-6.138-7.877-8.91-17.052-10.715-26.638-.584-3.1-1.09-6.215-1.671-9.552-7.549.894-14.84,1.873-22.156,2.6-12.088,1.2-24.135,1.392-36.172-.984-21.073-4.159-34.567-16.859-41.956-36.578-4.259-11.362-5.392-23.294-5.96-35.292-.168-3.551-.026-7.118-.026-12.011-4.507,3.621-8.516,6.25-11.807,9.587-15.649,15.868-36.438,6.965-46.955-5.73-12.667-15.291-14.381-32.626-9.53-50.817,3.264-12.24,8.151-24.047,12.32-36.044.289-.833.642-1.642.743-1.9-6.374-3.983-12.832-7.436-18.639-11.762-14.037-10.458-17.425-25.375-16.2-41.825,1.394-18.768,9.114-35.378,18.487-51.26,2.8-4.736,3.932-8.647,2.228-14.367-3.77-12.655-.774-24.925,4.769-36.659,6.036-12.775,14.612-23.863,23.05-35.045a7.137,7.137,0,0,0,1.7-6.129c-2.065-12.47.914-24.3,5.658-35.74.513-1.238,2.013-2.236,3.273-2.971A718.526,718.526,0,0,1,681.76,63.927c31.29-10.191,63.135-18.7,94.8-27.715,7.415-2.112,15.072-4.184,22.883-1.571,8.343,2.792,13.406,8.458,12.229,18.486-1.447,12.321-7.4,22.682-13.879,32.791-9.816,15.309-22.472,28.3-34.557,41.757-5.682,6.327-11.1,12.888-17.173,19.961,1.588-7.627,4.23-14.136,8.4-19.687,6.957-9.253,14.4-18.151,21.895-26.987,6.674-7.873,13.814-15.352,20.468-23.24a15.991,15.991,0,0,0,3.7-7.734c1.1-8.561-4.088-14.264-13.1-13.67-11.529.761-23.3,1.316-34.415,4.133-18.821,4.77-37.376,10.763-55.748,17.1C653,92.811,609.215,109.365,567.253,130.324c-7.956,3.974-15.569,8.637-23.324,13.012a21.169,21.169,0,0,0-2.294,1.786c12.12,8.467,24,16.787,35.894,25.074q35.732,24.884,71.485,49.738c5.121,3.563,10.2,7.186,15.391,10.648.9.6,2.508,1.076,3.337.675a104.754,104.754,0,0,1,52.212-10.663,6.6,6.6,0,0,0,1.4-.481c-1.979-7.636-4.049-15.317-5.954-23.037-3.958-16.037-8.391-31.986-11.546-48.181-2.318-11.9-2.855-24.131,3.086-35.54.679-1.3,1.458-2.557,2.661-4.656l19.7,40.28-10.562-3.787c1.027,7.665,1.737,14.7,2.949,21.64a123.788,123.788,0,0,0,12.836,37.783c6.715,12.442,16.947,21.512,28.428,29.39a8.692,8.692,0,0,1,3.443,4.174c2.082,7.259,1.669,14.626.049,21.94a11.83,11.83,0,0,1-1.109,2.351c-21.894-18.914-46-25.564-74.33-15.122,9.158,7.475,17.843,14.307,26.244,21.47,23.087,19.687,45.94,39.65,69.15,59.189,5.885,4.954,12.733,8.77,19.193,13.025a26.012,26.012,0,0,0,4.289,1.753c-.648-7.318-1.142-14.038-1.858-20.734-1.64-15.333-3.279-30.669-5.123-45.978-2-16.576-4.269-33.118-6.347-49.683q-2.64-21.05-5.1-42.123c-1.2-10.382-1.837-20.85-3.5-31.155-1.19-7.379,1.894-13.036,5.282-19.493,10.8,17.242,20.774,34.228,24.38,54.88l-12.175-9.663c1.309,11.821,2.416,22.809,3.763,33.765,2.132,17.328,4.44,34.634,6.645,51.952q3.817,29.962,7.563,59.935c.719,5.819,1.292,11.662,1.684,17.51.18,2.671,1.331,3.875,3.873,4.234,14.839,2.1,26.458-4.166,36.558-14.177.806-.8,1.052-2.6.91-3.855-1.857-16.465-3.747-32.926-5.8-49.368-1.99-15.93-4.152-31.84-6.289-47.751-2.492-18.557-5.087-37.1-7.548-55.663-2.445-18.437-4.623-36.911-7.21-55.328-2.445-17.405-5.333-34.746-7.908-52.134C829.356,52.229,829,51.871,835.6,35.93c9.5,17.733,21.161,34,25.034,55.006L848,81.373c0,2.07-.115,3.405.017,4.715,1.633,16.222,3.071,32.469,5.022,48.652,2.21,18.334,4.871,36.613,7.365,54.912,2.1,15.4,4.256,30.792,6.359,46.192q3.723,27.257,7.38,54.522c1.169,8.836,2.887,17.678,3.085,26.546.528,23.65-10.077,39.321-31.9,48.453a107.056,107.056,0,0,1-11.773,4.4c-2.656.759-3.267,2.04-3.165,4.6.4,9.945.95,19.9.78,29.847-.275,16.1-1.97,32.043-7.583,47.32-.394,1.073-.85,2.123-1.306,3.172a14.766,14.766,0,0,1-.959,1.459c0-6.372.336-12.077-.062-17.73-1.271-18.059-2.8-36.1-4.265-54.144-.237-2.92-1.068-5.851-.886-8.731.281-4.452-1.974-6.011-5.763-7.469-16.395-6.311-29.273-17.7-41.774-29.607-19.01-18.1-37.647-36.629-58.839-52.271-3.586-2.647-7.33-5.08-11.017-7.588a11.791,11.791,0,0,0-2.258-.566,44.85,44.85,0,0,0,2.825,3.993c9.782,10.668,18.559,22.008,23.881,35.653a61.1,61.1,0,0,1,3.146,32.3c-1.3,8.293-6,14.222-12.316,19.028-11.668,8.877-24.937,14.621-38.707,19.432-17.519,6.121-35.143,12.037-52.3,19.059a98.752,98.752,0,0,0-40.577,30.4,8.617,8.617,0,0,0-2.123,4.326c-.831,15.136.98,29.79,8.952,43.1,7.76,12.954,19.841,19.87,34.032,23.288a99.745,99.745,0,0,0,53.952-2.094,7.232,7.232,0,0,0,5.119-4.929c4.628-12.249,9.579-24.377,14.226-36.62a4.9,4.9,0,0,0-.792-4.165,118.259,118.259,0,0,0-9.231-9.146c-2.533-2.284-2.911-4.628-.982-7.37,1.971-2.8,3.89-5.652,6-8.348,1.944-2.484,4.185-4.06,7.423-1.664a3.1,3.1,0,0,0,2.872-.384c11.884-10.086,23.226-20.682,31.134-34.369-8.738-6.92-10.133-15.529-4.162-25.25,4.209-6.851,10.554-6.753,14.461.285,2.679,4.825,2.694,10.044,1.668,15.262-.824,4.194-1.754,8.194,2.427,11.357a4.348,4.348,0,0,1,1.423,3.368c-.192,1.781-1.1,3.484-1.71,5.219a30.82,30.82,0,0,1-4.338-2.532,24.7,24.7,0,0,1-3-3.391l-35.007,34.287c2.44,2.553,5.157,5.547,8.041,8.368,2.421,2.369,2.589,4.877.773,7.518q-4.217,6.132-8.663,12.107a71.246,71.246,0,0,0-13.089,31.4,30.158,30.158,0,0,0-.024,4.157c5.367-2.316,10.438-4.45,15.467-6.683,21.375-9.492,41.753-20.705,60.03-35.422,5.349-4.307,10.262-9.152,15.477-13.633,1.97-1.693,2.261-3.35,1.221-5.69-7.586-17.08-15.076-34.2-22.627-51.3-2.057-4.657-3.954-9.413-6.392-13.867-4.3-7.853-1.243-14.965,1.657-22.163a6.216,6.216,0,0,1,1.342-1.833,12.917,12.917,0,0,1,1.73-1.265l27.98,31.225C782.509,384.967,779.183,378.667,774.305,379.3ZM653.319,263.844c-10.8,8.592-21.895,16.75-32.211,25.8-14.55,12.766-28.442,26.278-42.758,39.314-14.973,13.635-31.3,25.244-50.359,32.621a5.372,5.372,0,0,0-2.585,2.445c-6.144,12.346-11.3,25.069-13.892,38.686-2.1,11.074-2.129,21.975,2.512,32.615,7.192,16.493,21.367,18,33.121,10.381,7.053-4.574,13.375-10.617,19.071-16.869a159.671,159.671,0,0,1,37.057-30.4c18.958-11.178,39.7-18.293,60.131-26.1,19.166-7.322,37.957-15.331,54.809-27.325,2.486-1.769,3.123-3.453,1.8-5.859-4.654-8.448-8.714-17.34-14.292-25.139C691.713,294.431,672.795,279.764,653.319,263.844ZM534.65,222.861l1.33.862c-1.262,3.405-2.224,6.961-3.842,10.188-4.679,9.328-12.125,16.251-20.264,22.528-1.474,1.136-3.239,2.354-3.949,3.944-4.61,10.331-9.351,20.632-13.3,31.222-4.255,11.408-5.989,23.276-1.746,35.141,1.382,3.863,3.3,7.929,6.1,10.812,6.735,6.943,19.428,8.858,27.637,3.768,12.3-7.627,24.987-15.04,35.886-24.427,23.048-19.854,45.046-40.927,67.473-61.5,2.289-2.1,4.555-4.224,7-6.491l-99.557-75.828c-7.564,10.611-15.531,20.6-19.771,32.852a33.977,33.977,0,0,0-.181,23.207c1.585,4.419,5.107,5.268,8.546,2.048,1.387-1.3,2.405-2.986,3.776-4.3C531.294,225.425,533.018,224.191,534.65,222.861Zm370.967,212.52c7.133-5.071,13.886-9.731,20.442-14.657a6.673,6.673,0,0,0,2.517-4.46c.276-12.541-3.944-23.251-14.136-30.968-4.41-3.339-8.6-2.8-12.95.619a17.2,17.2,0,0,0-6.677,13.571C894.34,412.171,898.833,423.368,905.617,435.381ZM737.246,390.475l1.307-.958c.716-3.339-.14-6.246-2.991-8.245a4.3,4.3,0,0,0-3.466-.285c-.457.167-.809,2.338-.346,2.992C733.381,386.287,735.384,388.331,737.246,390.475Z" transform="translate(0 -3.759)" fill="#8c8c8c"/>
        <path id="Path_33-2" data-name="Path 33" d="M1027.834,60.464c10.418,18.528,20.934,36.278,24.965,57.934L1040.08,107.23c5.66,38.975,11.162,76.868,16.664,114.76l1.162.509c2.429-3.58,4.938-7.11,7.2-10.789.352-.572-.21-1.924-.666-2.738-1.676-3-3.669-5.83-5.205-8.893-3.46-6.9,1.725-16.977,9.392-17.809,1.795-.195,4.445,1.225,5.623,2.741,4.233,5.447,4.258,11.8,2.644,18.215-1.164,4.625-3.235,9.071-2.343,14.051.089.5-.459,1.121-.817,1.921-3.212-2.34-4.99-.7-6.713,1.993a30.545,30.545,0,0,1-5.448,6.852c-4.2,3.607-4.54,7.739-3.757,12.9a180.459,180.459,0,0,1,1.577,45.4c-.886,8.714-2.619,17.249-6.544,25.264-1.615-22.277-2.1-44.642-8.2-66.35l-26.171,17.348q-.393-.52-.786-1.04c2.484-2.5,4.935-5.029,7.459-7.485,5.3-5.163,10.732-10.2,15.9-15.5a6.336,6.336,0,0,0,1.54-4.569c-2.946-25.056-5.676-50.147-9.225-75.121-3.636-25.584-8.251-51.028-12.125-76.581C1020.055,74.45,1023.316,67.512,1027.834,60.464Zm41.647,141.907,1.5-.748c1.24-3.092,1.069-6.073-1.606-8.455a3.759,3.759,0,0,0-3.346-.734c-.786.429-1.558,2.445-1.182,3.159A63.226,63.226,0,0,0,1069.481,202.371Z" transform="translate(-136.2 -10.647)" fill="#8c8c8c"/>
        <path id="Path_34-2" data-name="Path 34" d="M1191.793,457.24c-.951-12.834-1.995-25.662-2.834-38.5-1.771-27.1-4.088-54.124-8.221-80.992-3.214-20.892-5.751-41.887-8.676-62.824q-3.646-26.1-7.532-52.167c-.4-2.714-1.721-5.31-1.987-8.023a27.264,27.264,0,0,1,.327-9.347c1.081-4.141,3.068-8.046,4.924-12.695,10.318,17.458,22.165,33.478,25.96,54.618l-12.354-9.913a46.024,46.024,0,0,0,.022,4.916c1.874,15.556,3.662,31.124,5.742,46.653,3.041,22.715,6.354,45.393,9.453,68.1a475.688,475.688,0,0,1,3.973,71.359C1200.439,438.872,1196.476,447.927,1191.793,457.24Z" transform="translate(-173.028 -44.324)" fill="#8c8c8c"/>
        <path id="Path_35-2" data-name="Path 35" d="M1089.956,415.949c-2.428,4.039-4.23,7.258-6.262,10.323a28.355,28.355,0,0,1-3.767,4.247c-1.974,1.962-3.814,1.825-5.945-.119-4.979-4.541-10.152-8.871-15.467-13.477l-11.24,14.311c-8.063-3.346-13.9-9.088-19.057-15.615a3.386,3.386,0,0,1-.036-3.014c2.758-5,5.7-9.9,9.081-15.687l20.454,16.123c2.458-3.509,5.061-7.062,7.49-10.73,3.369-5.09,4.514-5.43,9.088-1.3C1079.669,405.862,1084.786,411,1089.956,415.949Z" transform="translate(-138.784 -96.34)" fill="#8c8c8c"/>
        <path id="Path_36-2" data-name="Path 36" d="M642.918,71.472c3.016-6.345,6.954-10.463,12.889-13.273,26.242-12.431,53.648-21.858,80.793-31.967,6.391-2.38,12.775-4.78,20.238-7.572-2.9,5.514-5.927,9.468-10.759,11.411C719.432,40.787,692.722,51.348,666.049,62,658.522,65,651.046,68.139,642.918,71.472Z" transform="translate(-40.745)" fill="#8c8c8c"/>
        <path id="Path_37-2" data-name="Path 37" d="M655.056,574.113c1.77,2.694,3.241,4.737,4.488,6.908a9.825,9.825,0,0,1,1.376,3.9c.095,1.128-.211,2.825-.969,3.338-.732.494-2.506.156-3.417-.438-7.832-5.114-8.72-11.337-3.321-19.912a19.592,19.592,0,0,1,8.4-6.83c24.29-10.7,48.718-21.083,73.107-31.557.461-.2.959-.306,2.2-.693-.509,1.677-.52,3.223-1.3,4.01-2.983,3.019-5.753,6.78-9.427,8.489-16.6,7.718-33.534,14.712-50.234,22.218C668.937,566.7,662.19,570.484,655.056,574.113Z" transform="translate(-42.495 -129.936)" fill="#8c8c8c"/>
        <path id="Path_38-2" data-name="Path 38" d="M989.847,709.246c.914-8.283,1.376-15.544,2.66-22.657.554-3.068,2.675-5.907,4.329-8.705,1.429-2.419,3.823-2.241,6.121-1.481,6.627,2.192,8.694,8.255,4.64,14.412a45.377,45.377,0,0,0-4.719-3.064c-1.927-.954-4.019-1.576-6.039-2.343-.748,2.143-1.954,4.244-2.16,6.438-.749,7.973-.983,16-1.8,23.96a20.236,20.236,0,0,1-3.454,8.529c-1.614-3.536-3.141-7.116-4.859-10.6-3.4-6.9-7.823-12.467-16.377-13.1-3.044-.227-5.961-4.941-6.46-9.511a7.41,7.41,0,0,1,0-2.289c1.41-6.69,2.176-8.588,8.4-4.457,4.71,3.125,8.469,7.9,12.084,12.392C985.04,700.276,986.99,704.485,989.847,709.246Z" transform="translate(-121.921 -167.394)" fill="#8c8c8c"/>
        <path id="Path_39-2" data-name="Path 39" d="M725.225,253.158c-2.054-3.917-3.67-7.351-5.608-10.592s-3.867-6.65-6.462-9.347a12.925,12.925,0,0,0-6.949-3.42c-6.236-.96-8.791-3.317-8.979-9.454-.218-7.1,2.679-8.945,9.083-5.726,5.838,2.934,9.22,8.248,12.782,13.372,1.578,2.27,3.107,4.574,5.341,7.868.463-6.024.606-10.949,1.285-15.8a85.032,85.032,0,0,1,2.856-12.935,14.617,14.617,0,0,1,3.577-5.308c3.235-3.425,5.74-3.643,9.411-1.225,3.08,2.029,4.111,5.286,2.761,9-.474,1.3-1.14,2.537-1.877,4.152-1.656-1.464-3.037-2.862-4.594-4.025-3.638-2.716-6.834-1.736-7.431,2.717a181.205,181.205,0,0,0-1.432,19.368C728.81,238.807,729.112,245.819,725.225,253.158Z" transform="translate(-54.575 -45.926)" fill="#8c8c8c"/>
        <path id="Path_40-2" data-name="Path 40" d="M718.02,604.134l-10.2-6.752c-.292,3-.707,5.209-.689,7.419.06,7.373.585,14.758.3,22.114-.142,3.7-1.642,7.349-2.805,12.173-3.008-4.992-5.242-8.945-7.715-12.742-3.283-5.041-7.1-9.334-13.94-9.191A3.491,3.491,0,0,1,680.342,615a45.072,45.072,0,0,1,.25-10.05c.07-.469,3.984-1.314,4.953-.534a122.808,122.808,0,0,1,11.537,10.83c1.974,2.058,3.448,4.595,6.015,6.722.157-1.8.33-3.605.47-5.409.5-6.467.822-12.953,1.549-19.394.338-2.993,1.123-6.433,4.577-7.276,4.283-1.046,6.585,2.574,9.228,5.037,2.713,2.529.933,5.134-.087,7.682A16.845,16.845,0,0,1,718.02,604.134Z" transform="translate(-50.235 -145.441)" fill="#8c8c8c"/>
        <path id="Path_41-2" data-name="Path 41" d="M854.644,242.194c.927-6.079,1.441-11.541,2.684-16.832a31.428,31.428,0,0,1,4.152-9.313,6.55,6.55,0,0,1,4.716-2.808,5.66,5.66,0,0,1,5.829,5.055c.264,2.134-.159,4.353-.312,7.236-2.222-1.32-3.583-2.18-4.991-2.956-4.388-2.419-6.891-1.082-6.974,3.9-.114,6.879-.024,13.762-.022,20.643q0,5.259,0,10.517l-.929.314c-2.67-3.606-5.136-7.387-8.069-10.764a51.739,51.739,0,0,0-8.563-7.987c-1.709-1.238-4.252-1.647-6.463-1.805a8.041,8.041,0,0,1-7.6-9.3c.426-2.477,1.57-3.39,4.219-2.687,8.669,2.3,14.931,7.905,20.514,14.513C853.314,240.487,853.758,241.077,854.644,242.194Z" transform="translate(-87.881 -49.558)" fill="#8c8c8c"/>
        <path id="Path_42-2" data-name="Path 42" d="M822.655,555.613c8.128.68,14.315,2.96,18.638,8.752,5.263,7.05,2.737,15.809-5.759,21.559-3.332,2.255-6.882,2.553-10.6,1.952-3.223-.52-6.4-3.824-6.032-6.927C819.907,572.547,821.352,564.2,822.655,555.613Zm16.6,19c-3.526-5.313-7.605-9.52-15.328-9.881-.254,3.776-.509,7.358-.733,10.942-.2,3.175,1.653,4.241,4.477,4.315C832.36,580.112,835.8,577.609,839.259,574.614Z" transform="translate(-85.56 -136.758)" fill="#8c8c8c"/>
        <path id="Path_43-2" data-name="Path 43" d="M912.8,134.994c1.115-5.725,2.282-11.441,3.318-17.182.406-2.247,1.661-3.144,3.738-2.631,3.188.786,6.593,1.286,9.432,2.8,8.473,4.514,10.011,14.881,3.533,22.107a24.2,24.2,0,0,1-3.742,3.249c-3.326,2.442-6.735,4-10.934,1.706C914.052,142.81,912.948,139.389,912.8,134.994Zm5.472-10.466a65.752,65.752,0,0,0-.733,8.881,5.487,5.487,0,0,0,2.286,3.981c2.914,1.613,9.135-.244,10.842-3.295.73-1.3.809-3.963-.042-4.981C927.6,125.5,923.739,123.136,918.268,124.527Z" transform="translate(-109.481 -24.547)" fill="#8c8c8c"/>
        <path id="Path_44-2" data-name="Path 44" d="M995.8,532.72c.408,4.282-2.016,6.5-4.846,8.214-4.667,2.822-9.529,5.321-14.25,8.056-2.267,1.313-4.367,2.914-6.621,4.253-.564.335-1.431.162-2.868.283,2.258-2.862,4.06-5.286,6.015-7.579,1.4-1.637,1.506-3.065.009-4.668a35.643,35.643,0,0,1-2.349-3.009c-4.392-5.857-4.329-7.884.973-13.056a27.213,27.213,0,0,1,6.677-4.967c3.992-1.983,6.009-.551,6.148,3.858.039,1.242.006,2.486.006,4.828l-6.082-3.185a4.643,4.643,0,0,0-1.448.672c-1.4,1.112-4.027,2.775-3.807,3.452.634,1.952,2.107,4.4,3.847,5.045,2.569.956,5.661.732,8.514.613,1.732-.072,3.434-.887,5.147-1.377C992.414,533.71,993.962,533.254,995.8,532.72Z" transform="translate(-123.341 -127.528)" fill="#8c8c8c"/>
        <path id="Path_45-2" data-name="Path 45" d="M947.255,274.3c-.666,5.418-1.365,10.831-1.99,16.254-.913,7.926.341,15,8.367,19.821,1.269-2.688,2.5-5.283,3.8-8.044,4.217,3.981,3.414,14.691-.86,17.5-2.771,1.82-7.139.783-9.447-2.388-3.546-4.872-4.991-10.506-5.547-16.392a50.941,50.941,0,0,1,4.655-26.865Z" transform="translate(-116.75 -65.079)" fill="#8c8c8c"/>
        <path id="Path_46-2" data-name="Path 46" d="M651.156,186.435c.962,7.317-3.014,12.438-8.762,11.522-4.407-.7-6.536-4.024-7.106-7.984-1.93-13.422,2.1-25.739,7.063-37.827l1.541.268c-.885,4.862-1.969,9.7-2.6,14.595a112.545,112.545,0,0,0-.871,13.618c-.009,1.52.965,3.15,1.793,4.55,2.587,4.376,2.641,4.338,7.22,1.908A16.943,16.943,0,0,1,651.156,186.435Z" transform="translate(-38.677 -33.998)" fill="#8c8c8c"/>
        <path id="Path_47-2" data-name="Path 47" d="M717.492,168.125c1.38,5.063-.9,10.053-5.057,11.411a7.4,7.4,0,0,1-9.858-6.284,61.864,61.864,0,0,1,.1-18.452c1.2-7.268,3.851-14.3,5.875-21.428l1.891.411c-.564,3.739-1.219,7.467-1.671,11.22-.678,5.623-1.822,11.289-1.577,16.884.14,3.191,2.646,6.278,4.178,9.611Z" transform="translate(-55.777 -29.216)" fill="#8c8c8c"/>
        <path id="Path_48-2" data-name="Path 48" d="M1097.78,358.612l4.36-6.786c2.059,3.888-.1,12.746-3.477,14.867-3.321,2.085-8.52-.4-9.442-5.438a59.727,59.727,0,0,1-.956-17.032c.813-7.4,2.927-14.665,4.56-21.97a3.906,3.906,0,0,1,2.137-2.462c-.666,3.58-1.664,7.136-1.921,10.744-.44,6.156-.956,12.4-.356,18.5C1092.982,352.06,1095.687,354.854,1097.78,358.612Z" transform="translate(-154.106 -76.696)" fill="#8c8c8c"/>
        <path id="Path_49-2" data-name="Path 49" d="M886.363,368.671c1.386,5.163-1.211,11.8-5.351,13.382a6.181,6.181,0,0,1-5.232-.607c-1.948-1.623-4.027-3.949-4.528-6.3-2.705-12.7,1.427-24.211,7.229-35.316-1.12,5.7-2.4,11.384-3.316,17.12-1.014,6.322-.143,12.21,5.4,16.922Z" transform="translate(-98.684 -81.799)" fill="#8c8c8c"/>
        <path id="Path_50-2" data-name="Path 50" d="M1116.536,523.836c-.967,4.674-2.085,9.322-2.861,14.027-.966,5.861-1.086,11.742,2.41,16.94.966,1.436,2.694,2.36,4.072,3.519.882-1.432,1.775-2.859,2.644-4.3.315-.521.573-1.077.917-1.733,2.632,4.841-1.061,14.073-6.009,15.217-3.1.716-5.831-.418-6.877-3.4a27.973,27.973,0,0,1-1.846-9.609,85.327,85.327,0,0,1,6.083-29.314,11.078,11.078,0,0,1,.9-1.544Z" transform="translate(-159.448 -128.616)" fill="#8c8c8c"/>
        <path id="Path_51-2" data-name="Path 51" d="M1003.63,160.125c-.06,11.11-5.175,23.046,6,32.864l4.538-6.859c2.213,4.07,1.516,7.762-.245,11.371-2.252,4.619-6.828,5.618-10.056,1.6a23.744,23.744,0,0,1-4.638-10.155C997.371,178.931,1000.259,169.454,1003.63,160.125Z" transform="translate(-131.347 -36.03)" fill="#8c8c8c"/>
        <path id="Path_52-2" data-name="Path 52" d="M1066.991,677.946a17.955,17.955,0,0,1-3.744,14.133c-1.262,1.555-3.873,3.333-5.439,3-2.088-.448-4.777-2.538-5.387-4.491a36.425,36.425,0,0,1-1.279-11.621c.229-9.068,2.483-17.759,5.6-26.217l1.1.121c-.3,2.345-.49,4.707-.907,7.03-.719,4-1.683,7.953-2.348,11.959a17.541,17.541,0,0,0,3.112,13.02c1.591,2.379,2.966,2.09,4.407.161C1063.825,682.742,1065.37,680.316,1066.991,677.946Z" transform="translate(-144.712 -161.498)" fill="#8c8c8c"/>
        <path id="Path_53-2" data-name="Path 53" d="M927.255,723.95c.505,6.433-1.236,11.935-5.593,16.35-2.067,2.094-6.151,1.406-7.965-1.458a14.542,14.542,0,0,1-2.312-6.35c-.885-11.477,1.444-22.493,5.409-33.211.069-.186.364-.286,1.506-1.133-.759,4.441-1.373,8.058-2,11.674-.582,3.376-1.415,6.733-1.675,10.133a13.5,13.5,0,0,0,.979,6.327c1.034,2.307,2.866,4.256,4.353,6.36,1.581-1.722,3.206-3.405,4.725-5.181C925.626,726.363,926.4,725.125,927.255,723.95Z" transform="translate(-109.074 -173.06)" fill="#8c8c8c"/>
        <path id="Path_54-2" data-name="Path 54" d="M1219.381,324.624c-.566,5.353-1.075,10.712-1.71,16.057-.748,6.3-.8,12.5,2.346,18.257a35.037,35.037,0,0,0,3.07,4.065l3.326-3.5c2.219,3.37,1.948,7.946-.492,10.556-2.106,2.252-4.362,1.757-6.487.177-4.514-3.353-5.668-8.315-5.965-13.515-.632-11.067,2.278-21.612,4.769-32.208Z" transform="translate(-186.038 -77.899)" fill="#8c8c8c"/>
        <path id="Path_55-2" data-name="Path 55" d="M713.522,706.908c1.643,6.867-2.25,14.038,1.789,20.593a32.576,32.576,0,0,0,3.908,4.339l5.571-5.12c1.2,4.078-1.179,11.226-4.207,13.038-3.322,1.988-8.636-.2-10.173-4.631C707,725.29,709.479,715.981,713.522,706.908Z" transform="translate(-57.526 -175.292)" fill="#8c8c8c"/>
        <path id="Path_56-2" data-name="Path 56" d="M584.2,614.041c-1.125,4.911-2.28,9.818-3.348,14.742a9.174,9.174,0,0,0,.022,2.67c.5,5.755,3.064,7.111,9.568,5.087,1.573,4.311-1.014,10.027-5.05,11.16-3.588,1.006-7.467-1.76-8.3-6.536A32.6,32.6,0,0,1,584.2,614.041Z" transform="translate(-23.84 -151.639)" fill="#8c8c8c"/>
        <path id="Path_57-2" data-name="Path 57" d="M941.99,410.7c.417-3.879,1.713-6.253,4.935-7.991,9.163-4.942,18.113-10.278,27.163-15.429a30.165,30.165,0,0,1,3.215-1.311c-.856,3.869-1.9,6.593-5.2,8.365-9.509,5.1-18.872,10.469-28.3,15.719A13.878,13.878,0,0,1,941.99,410.7Z" transform="translate(-116.917 -93.552)" fill="#8c8c8c"/>
        <path id="Path_58-2" data-name="Path 58" d="M829.384,127.676l4.678-5.1c2.682,4.423-1.34,13.618-6.157,14.01-1.122.091-2.781-1.119-3.495-2.194a24.642,24.642,0,0,1-3.915-16.412c.677-6.514,2.166-12.943,3.3-19.409l1.262.121c0,2.12.136,4.251-.037,6.357-.177,2.145-.747,4.255-.986,6.4-.581,5.2-1.426,10.5,3.043,14.643A19.566,19.566,0,0,0,829.384,127.676Z" transform="translate(-85.936 -20.352)" fill="#8c8c8c"/>
        <path id="Path_59-2" data-name="Path 59" d="M730.253,426.912c-3.47,5.22-5.915,9.573-9.023,13.383s-4.546,3.588-8.127.452c-4.772-4.18-9.591-8.308-14.714-12.738L687.1,442.351c-7.938-3.419-13.765-9.222-19.072-15.633a2.6,2.6,0,0,1-.415-2.29c2.966-5.3,6.07-10.524,9.564-16.5l20.351,16.16c2.436-3.446,4.963-6.848,7.3-10.373,3.8-5.728,4.162-5.828,9.456-1.441.782.648,1.541,1.326,2.288,2.015C721.071,418.43,725.563,422.582,730.253,426.912Z" transform="translate(-47.002 -99.143)" fill="#8c8c8c"/>
        <path id="Path_60-2" data-name="Path 60" d="M629.777,455.084c-4.783,13.733-1.653,27.557-7.017,39.185L610.1,474.507c-7.855,3.378-15.757-3.25-13.313-12.277,1.205-4.452,4.4-5.946,7.845-2.924,4.472,3.92,8.379,8.493,12.447,12.861,1.608,1.728,3,3.661,5.381,5.264.331-3.993.369-8.036,1.064-11.964a131.938,131.938,0,0,1,3.652-15.461c1.1-3.6,3.945-3.767,7.069-2.294,4.672,2.2,6.57,5.763,5.44,10.733-.253,1.112-.93,2.826-1.654,2.96-.974.181-2.328-.724-3.258-1.482C633.206,458.644,631.841,457.112,629.777,455.084Z" transform="translate(-28.882 -109.055)" fill="#8c8c8c"/>
        <path id="Path_61-2" data-name="Path 61" d="M564.947,493.735c-1.27,5.141-3.069,10.223-3.656,15.441a47.438,47.438,0,0,0,.592,14.6c.847,4.139,2.878,4.238,5.675,1.027.983-1.129,1.878-2.334,2.948-3.674,1.439,4.042,1.148,7.917-.984,11.116a10.577,10.577,0,0,1-6.134,4.3c-3.216.587-5.884-1.667-7-4.763A24.622,24.622,0,0,1,554.9,524C554.746,515.2,559.308,501.034,564.947,493.735Z" transform="translate(-18.328 -120.998)" fill="#8c8c8c"/>
        <path id="Path_62-2" data-name="Path 62" d="M584.107,312.466c-5.115-3.2-8.368-7.362-9.6-13.037-1.674-7.678,2.834-15.508,10.09-17.34,4.987-1.26,8.76,1.457,8.713,6.573-.041,4.458-.68,8.913-.647,13.366.013,1.673,1.044,3.4,1.833,4.994,1.937,3.915,4.19,7.686,5.9,11.692.512,1.2-.345,2.983-.685,5.228L589.5,314.3c-15.427,26.818-38.774,44.414-63.157,60.935C545.6,354.475,567.958,336.594,584.107,312.466Zm4.663-10.8c0-2.717.514-4.509-.129-5.647a8.39,8.39,0,0,0-3.995-3.383c-.752-.3-3.138,1.149-3.118,1.75a6.459,6.459,0,0,0,1.831,4.05C584.615,299.657,586.424,300.315,588.77,301.662Z" transform="translate(-11.055 -67.016)" fill="#8c8c8c"/>
      </g>
    </g>
  </g>
</svg>
