<svg id="Group_175" xmlns="http://www.w3.org/2000/svg" width="309.151"
    height="44.261" viewBox="0 0 309.151 44.261">
    <path id="Path_245" d="M584.465,389.634c-1.743-.183-3.506-.283-5.224-.563-7.1-1.159-12.877-4.061-17.174-8.826-.22-.244-.279-.584-.547-.789-1.411,1.724-2.743,3-5.031,2.6-2.341-.406-3.487-1.033-3.951-4.508-2.885.092-5.163-1.185-7.235-2.534a37.21,37.21,0,0,1-4.387-3.978,10.084,10.084,0,0,0-5.333-2.821,8.092,8.092,0,0,0,.28,1.213,2.794,2.794,0,0,1-2,3.617c-1.608.536-4.017-.43-4.439-1.81a1.86,1.86,0,0,0-1.885-1.574,2.543,2.543,0,0,1-2.136-2.42c-.017-1.023,1.211-1.8,2.685-2.4a1.834,1.834,0,0,0,.958-.761c.853-2.008,1.939-2.361,4.544-2.2a3.134,3.134,0,0,1,2.575,2.652,7.769,7.769,0,0,1-.891,2.212,16.423,16.423,0,0,0,2.16-.559c2.719-1.14,4.379-3.193,6.4-4.943,1.8-1.558,3.662-3.068,6.367-3.552.85-.152,1.731-.193,2.438-.267a28.551,28.551,0,0,1,.852-2.727c.606-1.445,3.233-2.375,4.885-1.673a10.021,10.021,0,0,1,2.5,1.617c.555.47.756.482,1.234-.052a25.663,25.663,0,0,1,7.657-5.779,28.377,28.377,0,0,1,11.866-3.176c6.481-.229,12.977-.242,19.466-.25q36.26-.044,72.52-.023,42.137,0,84.273.022,8.346,0,16.693-.016a38.024,38.024,0,0,1,11.518,1.711,26.186,26.186,0,0,1,11.485,7.132c.568.6,1.074.674,1.813.021a4.7,4.7,0,0,1,4.65-1.339,3.691,3.691,0,0,1,3,3.372c-.005.359,0,.718,0,1.018a17.268,17.268,0,0,1,4.167.791,32.513,32.513,0,0,1,4.93,3.166c2.184,1.564,3.6,3.788,6.325,4.888a7.921,7.921,0,0,0,2.13.483c-.7-1.185-1.2-2.314-.265-3.437a3.717,3.717,0,0,1,1.62-1.217c2.442-.751,4.08.188,5.126,2.876a4.168,4.168,0,0,1,3.476,1.81v1.3a3.644,3.644,0,0,1-3.459,2.02c-1.042,2.6-2.183,3.389-4.618,2.994a4.439,4.439,0,0,1-1.908-1.06c-1.357-1.106-.857-2.372.044-3.82a14.578,14.578,0,0,0-6.019,3.225c-1.242,1.058-2.324,2.242-3.6,3.268a10.5,10.5,0,0,1-6.219,2.746c-.871.044-1.458.334-1.481,1.285-.039,1.641-1.243,2.683-3.108,3.356a4.2,4.2,0,0,1-3.866-.658,8.488,8.488,0,0,1-1.5-1.447,3.291,3.291,0,0,0-.72.393,25.171,25.171,0,0,1-8.431,6.107,40.758,40.758,0,0,1-4.883,1.849c-2.239.6-4.576.956-6.871,1.417H642.979c-.66-.045-1.321-.129-1.981-.13q-22.134-.008-44.267.006c-1.06,0-2.121.081-3.181.124Zm95.67-43.1v0c-26.983,0-53.967-.055-80.949.038-7.043.024-14.123-.6-21.142.549a25.589,25.589,0,0,0-7.37,2.379,24.349,24.349,0,0,0-8.774,7.154,18.057,18.057,0,0,0-3.74,10.822,23.114,23.114,0,0,0,.92,5.415c.592,2.623,2.274,4.882,4.127,7a22.911,22.911,0,0,0,9.409,6.291,27.833,27.833,0,0,0,10,2.146q2.728-.015,5.456,0c4.806.029,9.611.095,14.416.09,8.4-.008,16.808-.067,25.211-.087q10.139-.024,20.279,0c4.269.014,8.537.1,12.806.126q7.195.037,14.389.01c12.36-.039,24.719-.1,37.079-.132,3.914-.009,7.829.091,11.743.1,2.712,0,5.424-.089,8.137-.1,5.409-.019,10.818-.012,16.228-.012,9.4,0,18.791-.034,28.186.023a28.307,28.307,0,0,0,12.1-2.633c7.99-3.68,12.389-9.421,13.249-16.8a16.2,16.2,0,0,0-2.138-9.731,23.108,23.108,0,0,0-9.986-9.45,28.611,28.611,0,0,0-13.462-3.184Q728.224,346.5,680.135,346.53Zm127.679,21.563a4.787,4.787,0,0,0-3.548.961,3.553,3.553,0,0,0-.661,5.3,5.823,5.823,0,0,0,7.188,1.634,49.543,49.543,0,0,0,6.01-4.118c1.765-1.371,3.076-3.133,5.446-3.976.152-.054.215-.736.044-.848-1.123-.734-2.319-1.4-3.5-2.066-.105-.06-.306-.008-.756-.008,1.028,1.521,1.52,2.842.192,4.352-1.393,1.585-3.286,1.4-5.231,1.419a3.163,3.163,0,0,1-3.3,2.754,3.537,3.537,0,0,1-3.172-1.211C805.315,370.613,806.067,369.285,807.814,368.093Zm-254.728-1.718c2.014-.018,3.3-.7,3.918-1.927a3.969,3.969,0,0,0-2.025-5.255c-1.949-.973-4.089-1.582-6.156-.28-2.02,1.272-3.93,2.667-5.79,4.093a16.584,16.584,0,0,0-2.028,2.2l6.148-1.332c.913-1.813,2.419-2.86,3.869-2.443a5.145,5.145,0,0,1,2.2,1.008C554.356,363.653,553.793,365.009,553.086,366.376Zm254.66.541.415-.4a5.326,5.326,0,0,1-1.164-.522,2.392,2.392,0,0,1-.869-2.9c.5-1.341,2.036-1.706,3.381-1.778a3.553,3.553,0,0,1,2.664,1.127c.69,1.244,1.293,2.035,3.192,1.738a10.268,10.268,0,0,1,2.636.389,7.713,7.713,0,0,0-.956-1.291c-1.459-1.228-2.87-2.511-4.472-3.608-3.395-2.324-8.462-1.27-9.783,2.249C801.869,364.367,804.568,367.184,807.746,366.917Zm-255.131,1.375c.413.545.757.986,1.085,1.435a2.4,2.4,0,0,1-.68,3.057c-2.26,1.384-4.907.761-5.891-1.167-.119-.234-.46-.586-.658-.569a6.939,6.939,0,0,1-3.859-.851c-.2-.1-.552-.014-1.269-.014a15.9,15.9,0,0,1,1.691,1.383,17.08,17.08,0,0,0,6.108,4.465c3.078,1.323,7.5-.45,8.014-3.254A3.8,3.8,0,0,0,552.615,368.291Zm7.784-12.042c-.009-1.645-1.273-2.661-3.3-2.65-1.958.012-3.333,1.181-3.3,2.808.026,1.3,1.808,2.646,3.482,2.56C558.685,358.9,560.711,357.937,560.4,356.249Zm257.591,11.178a3.209,3.209,0,0,0-3.115-2.719,3.384,3.384,0,0,0-3.28,2.991c.01,1,1.9,2.458,3.2,2.464C816.342,370.171,817.989,368.763,817.989,367.427ZM806.122,378.6c-.026-1.47-1.523-2.62-3.336-2.564a2.969,2.969,0,0,0-2.965,2.641c.02,1.156,1.713,2.594,3.033,2.575C804.712,381.226,806.148,380.06,806.122,378.6Zm-6.3-22.4c-.01,1.33,1.4,2.51,3.128,2.442a4.71,4.71,0,0,0,2.111-.69,1.9,1.9,0,0,0,.864-1.253c.168-1.566-1.466-3.033-3.243-3.043A3.127,3.127,0,0,0,799.819,356.2ZM547.093,368.052c.5-.345,1.193-.67,1.14-.811a3.54,3.54,0,0,0-1.056-1.641,3.915,3.915,0,0,0-3.792-.319c-1.263.77-1.5,1.684-.843,3.2a3.24,3.24,0,0,0,2.834,1.544C546.789,369.812,547.241,369.259,547.093,368.052Zm7,10.468c-.14,1.394,1.714,2.867,3.282,2.616,1.637-.262,2.99-1.63,2.726-2.755a3.112,3.112,0,0,0-3.8-2.133,4.2,4.2,0,0,0-1.691,1.063c-.089.075.329.542.561.9Zm-21.483-11.97c1.331-.015,2.633-1.041,2.586-2.04-.043-.891-1.484-1.917-2.673-1.9-1.323.018-2.483.973-2.433,2A2.457,2.457,0,0,0,532.612,366.55Zm-2.118,3.638c-.005,1.478.614,2.09,2.083,2.059,1.536-.032,2.647-.947,2.643-2.178,0-.77-1.481-1.721-2.668-1.7C531.2,368.386,530.278,368.939,530.495,370.188Zm19.823,2.489c1.32.006,2.589-.683,2.614-1.418a2.2,2.2,0,0,0-2.236-2.434c-1.223-.011-2.84,1.152-2.811,2.021C547.909,371.587,549.352,372.673,550.318,372.677Zm2.664-8.549c.03-1.107-.988-1.918-2.433-1.939-1.382-.02-2.378.74-2.412,1.839a2.072,2.072,0,0,0,2.235,2C551.589,366.053,552.957,365.055,552.982,364.127Zm276.487.635c-.021-1.525-.574-2-2.333-2a1.955,1.955,0,0,0-2.18,2c0,.934,1.176,1.773,2.479,1.774C828.834,366.531,829.485,365.965,829.469,364.762Zm-22.151,5.969a1.672,1.672,0,0,0,1.762,1.883c1.584-.032,2.644-.73,2.636-1.735a2.218,2.218,0,0,0-2.2-2.037C808.265,368.9,807.11,369.4,807.319,370.732Zm19.865,1.379c1.482.03,2.236-.49,2.288-1.571.077-1.56-.839-1.95-2.13-2.128a2.279,2.279,0,0,0-2.147,1.882C825.194,371.683,825.581,372.078,827.184,372.11Zm-17.666-6.331c1.389.016,2.269-.6,2.283-1.607a2.429,2.429,0,0,0-2.339-1.971c-1.028-.01-2.008.647-2.057,1.379A1.958,1.958,0,0,0,809.518,365.779ZM528.432,368.9c1.04.007,2-.714,2-1.5,0-.7-1.009-1.539-1.882-1.574a1.757,1.757,0,0,0-1.95,1.525A1.846,1.846,0,0,0,528.432,368.9Zm305.006-1.357c.017-.734-1.132-1.71-2.018-1.715-.779,0-2.161,1.016-1.829,1.519a4.266,4.266,0,0,0,2.105,1.534A1.519,1.519,0,0,0,833.437,367.545Zm-292.41,1.729v-3.6a3.635,3.635,0,0,0-3.285,2.2Z"
        transform="translate(-525.404 -345.374)" fill="#fd9434" />
    <path id="Path_246" d="M711.34,389.128q-47.688,0-95.376,0a26.67,26.67,0,0,1-17.868-6.26,19.1,19.1,0,0,1-3.571-3.925,14.349,14.349,0,0,1-1.9-4.446,14.95,14.95,0,0,1-.545-5.269,20.573,20.573,0,0,1,1.769-6.136,18.107,18.107,0,0,1,8.485-8.2,27.347,27.347,0,0,1,12.6-3.3q68.259-.03,136.518-.005,27.918,0,55.836-.011a28.406,28.406,0,0,1,16,4.739,17.209,17.209,0,0,1,5.493,5.508c2.589,4.417,3.463,8.991,1.569,13.819a19.35,19.35,0,0,1-7.012,8.754,22.513,22.513,0,0,1-8.064,3.718,37.179,37.179,0,0,1-8.16.981q-47.888.1-95.776.042Zm.267-36.859q-47.087,0-94.173.03a48.715,48.715,0,0,0-7.624.711,22.115,22.115,0,0,0-11.583,5.556,15.566,15.566,0,0,0-5.291,12.553,15.975,15.975,0,0,0,1.4,5.892,18.411,18.411,0,0,0,3.387,4.629c2.466,2.739,6.024,4.481,9.878,5.692a31.663,31.663,0,0,0,9.5,1.068c20.659-.037,41.318.008,61.977.008q29.654,0,59.307-.034,35.99-.039,71.981-.147a18.713,18.713,0,0,0,5.7-1.052,25.9,25.9,0,0,0,8.079-4.24,15.667,15.667,0,0,0,5.86-8.971,15.12,15.12,0,0,0-3.257-13.611,21.275,21.275,0,0,0-8.517-6.013,35.144,35.144,0,0,0-13.258-2.094Q758.294,352.318,711.608,352.269Z"
        transform="translate(-557.031 -348.316)" fill="#fd9434" />
</svg>
