<svg xmlns="http://www.w3.org/2000/svg" width="300.701" height="43.752" viewBox="0 0 300.701 43.752">
  <g id="Group_2672" data-name="Group 2672" transform="translate(0.5 0.052)">
    <g id="Group_2671" data-name="Group 2671" transform="translate(0)">
      <g id="Group_2645" data-name="Group 2645" transform="translate(225.387)">
        <g id="Group_2644" data-name="Group 2644">
          <g id="Group_2643" data-name="Group 2643">
            <path id="Path_2055" data-name="Path 2055" d="M538.852,466.884h-16.3a14.047,14.047,0,0,1,3.205-4.534,11.382,11.382,0,0,1,6.743-3.029C533.174,462.34,535.365,464.94,538.852,466.884Z" transform="translate(-521.41 -423.694)" fill="#fff9f2"/>
            <path id="Path_2056" data-name="Path 2056" d="M535.21,459.222c.9,3.617,4.1,5.88,6.667,7.155l-.17.458h33.2l-.426-.04a14.653,14.653,0,0,1,3.325-8.64,10.893,10.893,0,0,1,6.786-3.7l.085,1a10.051,10.051,0,0,0-6.274,3.418,13.2,13.2,0,0,0-3,7.285,6.659,6.659,0,0,1,3.137-3.867,4.27,4.27,0,0,1,2.873-.09,7.876,7.876,0,0,0,3.581.07c1.245-.269,3.325-.718,4.365-2.651a6.164,6.164,0,0,0,.009-5.571,4.819,4.819,0,0,0-3.257-1.983c-1.33-.369-2.694-.747-3.316-2.332a5.4,5.4,0,0,1-.239-2.372c.051-.757.06-1.2-.247-1.545a1.31,1.31,0,0,0-.963-.419,14.327,14.327,0,0,1-5.627,10.494A9.626,9.626,0,0,1,570,457.687a18.05,18.05,0,0,1-7.715-2.123c-.094.209-.179.419-.264.628a16.307,16.307,0,0,1-2.779,4.883,14.132,14.132,0,0,1-9.855,4.823,7.5,7.5,0,0,1-4.911-1.714c-3.095-2.581-3.981-7.454-3.538-11.351-2.37-.5-4.39.06-5.345,1.5a5.656,5.656,0,0,0-.588,3.9Z" transform="translate(-523.232 -423.645)" fill="#fff9f2"/>
            <path id="Path_2057" data-name="Path 2057" d="M561.847,454.745a26.566,26.566,0,0,1-10.2-10.015,4.622,4.622,0,0,1-3.939,1.046,5.78,5.78,0,0,1-1.228-.428,12.652,12.652,0,0,0-3.359,6.5,1.657,1.657,0,0,0-.034.219l-.145.987c-.384,3.578.418,8,3.2,10.314,3.785,3.139,10.247.937,13.674-3a15.367,15.367,0,0,0,2.617-4.614c.077-.189.162-.379.247-.578C562.384,455.024,562.1,454.875,561.847,454.745Zm-11.373,2.133a.918.918,0,1,1,.776-.907A.846.846,0,0,1,550.474,456.878Z" transform="translate(-524.404 -423.643)" fill="#fff9f2"/>
            <path id="Path_2058" data-name="Path 2058" d="M559.261,429.985c-2.293-2.4-7.843-6.218-12.438-3.488-2.643,1.575-4.45,5.152-4.911,9.417a4.374,4.374,0,0,1,1.168,2.93,7.945,7.945,0,0,0,1.262,3.687,6.81,6.81,0,0,0,1.859,1.595l.912.428a5.68,5.68,0,0,0,.614.179,4.1,4.1,0,0,0,3.649-1.166,27.706,27.706,0,0,0,2.864-2.94,29.337,29.337,0,0,1,7.7-6.707A16.232,16.232,0,0,0,559.261,429.985Zm-8.926,5.511a.918.918,0,1,1,.776-.907A.846.846,0,0,1,550.335,435.5Z" transform="translate(-524.265 -423.577)" fill="#fff9f2"/>
            <path id="Path_2059" data-name="Path 2059" d="M590.787,433.128c-.119.708-.273,1.584-.375,2.7a5.666,5.666,0,0,1-1.33,3.338,3.533,3.533,0,0,1-1.807,1.146,4.552,4.552,0,0,1-2.575-.4c-.887-.329-1.722-.628-2.4-.01-.588.528-.793,1.525-.631,3.039l-.273.219v-.04c-.852-7.594-7.783-10.464-8.568-10.773-4.322-1.644-8.159-.07-10,.688-.358.149-.7.3-1.031.468h-.009a17.178,17.178,0,0,0-2.881-4.265c-2.447-2.561-8.4-6.617-13.393-3.637-2.882,1.714-4.817,5.391-5.345,9.886a4.022,4.022,0,0,0-2.413.458c-.878.369-1.441.558-1.8.229-.46-.429-.324-1.525-.179-2.681a6.619,6.619,0,0,0-.162-3.528c1.04-1.006,2.114-1.963,3.214-2.84a41.83,41.83,0,0,1,3.862-2.681l-.2-.438h32.685l-.426.03c.256,4.445,2.123,8.142,5,9.906a7.591,7.591,0,0,0,4.032,1.136,9.785,9.785,0,0,0,.989-.06l-.085-1a7.033,7.033,0,0,1-4.544-.957c-2.6-1.6-4.305-4.983-4.544-9.059h.426l-.341.3a12.769,12.769,0,0,0,4.663,4.574,13.856,13.856,0,0,0,6.837,1.286c1.876.01,3.223,0,3.7,1.036A3.842,3.842,0,0,1,590.787,433.128Z" transform="translate(-523.336 -423.572)" fill="#fff9f2"/>
            <path id="Path_2060" data-name="Path 2060" d="M539.623,424.01a38.582,38.582,0,0,0-3.248,2.3q-1.688,1.345-3.291,2.9c-.767-.668-1.756-.478-2.8-.289a7.188,7.188,0,0,1-2.327.189c-1.978-.239-3.9-1.953-5.72-5.1Z" transform="translate(-521.362 -423.572)" fill="#fff9f2"/>
            <g id="Group_2624" data-name="Group 2624" transform="translate(0 0.169)">
              <g id="Group_2623" data-name="Group 2623">
                <path id="Path_2061" data-name="Path 2061" d="M579.268,443.163v-.04c-.852-7.594-7.783-10.464-8.568-10.773-4.322-1.644-8.159-.07-10,.688-.358.15-.7.3-1.031.468h-.009c-.273.13-.52.269-.776.409a29.337,29.337,0,0,0-7.7,6.707,27.706,27.706,0,0,1-2.864,2.94,4.1,4.1,0,0,1-3.649,1.166,5.694,5.694,0,0,1-.614-.179,5.514,5.514,0,0,1-.912-.428,6.811,6.811,0,0,1-1.859-1.595,7.945,7.945,0,0,1-1.262-3.687,4.374,4.374,0,0,0-1.168-2.93.842.842,0,0,0-.145-.11,2.259,2.259,0,0,0-.673-.309,4.022,4.022,0,0,0-2.413.458c-.878.369-1.441.558-1.8.229-.46-.428-.324-1.525-.179-2.681a6.619,6.619,0,0,0-.162-3.528,2.39,2.39,0,0,0-.349-.548,2.05,2.05,0,0,0-.2-.209c-.767-.668-1.756-.478-2.8-.289a7.187,7.187,0,0,1-2.327.189c-1.978-.239-3.9-1.953-5.712-5.092-.009,0-.009-.01-.009-.01l-.153-.269-.375.279-.341.259c2.012,3.588,4.194,5.551,6.5,5.83a8.058,8.058,0,0,0,2.549-.2,3.083,3.083,0,0,1,1.986-.01.925.925,0,0,1,.29.229,1.431,1.431,0,0,1,.273.518,6.837,6.837,0,0,1-.009,2.7c-.17,1.385-.35,2.82.495,3.607.759.708,1.7.309,2.609-.06a3.229,3.229,0,0,1,2.037-.409,1.81,1.81,0,0,1,.341.169,1.375,1.375,0,0,1,.477.568,6.557,6.557,0,0,1,.426,1.784,8.908,8.908,0,0,0,1.449,4.166,7.448,7.448,0,0,0,1.816,1.644,5.1,5.1,0,0,0,.835.458,5.782,5.782,0,0,0,1.228.428,4.622,4.622,0,0,0,3.939-1.046,26.566,26.566,0,0,0,10.2,10.015c.256.13.537.279.835.428.247.13.5.259.776.389a18.05,18.05,0,0,0,7.715,2.123,9.627,9.627,0,0,0,5.712-1.794,14.327,14.327,0,0,0,5.627-10.494,7.917,7.917,0,0,0,.017-1.007A10.649,10.649,0,0,0,579.268,443.163Zm-6.019,11.8c-4.271,3.049-9.318,1.236-12.592-.359-.273-.139-.529-.269-.776-.389-.315-.169-.614-.329-.887-.468a25.442,25.442,0,0,1-9.838-9.666,33.67,33.67,0,0,0,2.617-2.74,28.534,28.534,0,0,1,7.553-6.567c.256-.139.52-.279.793-.4a8.9,8.9,0,0,1,.87-.4c1.748-.717,5.4-2.212,9.437-.668.742.279,7.2,2.96,7.988,9.946.017.189.034.369.051.558a10.508,10.508,0,0,1-.009,1.555A13.181,13.181,0,0,1,573.25,454.962Z" transform="translate(-521.212 -423.74)" fill="#ead7bf"/>
                <g id="Group_2622" data-name="Group 2622" transform="translate(27.945 11.032)">
                  <g id="Group_2621" data-name="Group 2621">
                    <path id="Path_2062" data-name="Path 2062" d="M568.723,441.547a28.483,28.483,0,0,1-4.561-6.737,28.534,28.534,0,0,0-7.553,6.567,33.67,33.67,0,0,1-2.617,2.74,25.442,25.442,0,0,0,9.838,9.666c.273.139.571.3.887.468a21.9,21.9,0,0,1,3.419-5.451,25.112,25.112,0,0,1,4.16-3.906A31.075,31.075,0,0,1,568.723,441.547Zm-6.087,4.624a.958.958,0,1,1,.81-.947A.886.886,0,0,1,562.637,446.171Z" transform="translate(-553.992 -434.81)" fill="#fff9f2"/>
                  </g>
                </g>
              </g>
            </g>
            <g id="Group_2626" data-name="Group 2626" transform="translate(16.735 0.984)">
              <g id="Group_2625" data-name="Group 2625">
                <path id="Path_2063" data-name="Path 2063" d="M571.942,444.9l-.58.409a23.9,23.9,0,0,0-4.561,4.156,21.409,21.409,0,0,0-3.248,5.142c-.136.3-.264.6-.392.887-.094.209-.179.419-.264.628A16.307,16.307,0,0,1,560.117,461a14.132,14.132,0,0,1-9.855,4.823,7.5,7.5,0,0,1-4.911-1.714c-3.095-2.581-3.981-7.454-3.538-11.351.034-.339.085-.668.145-.987a1.638,1.638,0,0,1,.034-.219,13.79,13.79,0,0,1,3.359-6.737c.23-.249.46-.478.691-.7l.912.428c-.247.219-.5.458-.767.727a12.652,12.652,0,0,0-3.359,6.5,1.646,1.646,0,0,0-.034.219,9.08,9.08,0,0,0-.145.987c-.384,3.578.418,8,3.2,10.314,3.785,3.139,10.247.937,13.674-3a15.368,15.368,0,0,0,2.617-4.614c.077-.189.162-.379.247-.578.119-.289.247-.588.392-.887a21.9,21.9,0,0,1,3.419-5.451,25.111,25.111,0,0,1,4.16-3.906,31.062,31.062,0,0,1-3.572-3.348,28.483,28.483,0,0,1-4.561-6.737c-.051-.08-.094-.169-.136-.249-.1-.209-.213-.409-.307-.608a16.23,16.23,0,0,0-2.677-3.936c-2.293-2.4-7.843-6.218-12.438-3.488-2.643,1.575-4.45,5.152-4.911,9.417-.051.428-.085.867-.094,1.315a1.375,1.375,0,0,0-.477-.568,1.809,1.809,0,0,0-.341-.169c.017-.339.051-.668.094-1,.529-4.494,2.464-8.172,5.345-9.886,5-2.98,10.946,1.076,13.393,3.637a17.176,17.176,0,0,1,2.882,4.265h.009c.085.169.17.329.256.5.06.12.128.239.2.369a27,27,0,0,0,4.356,6.408,30.874,30.874,0,0,0,4,3.677Z" transform="translate(-540.842 -424.557)" fill="#ead7bf"/>
              </g>
            </g>
            <g id="Group_2628" data-name="Group 2628" transform="translate(10.826 28.014)">
              <g id="Group_2627" data-name="Group 2627">
                <path id="Path_2064" data-name="Path 2064" d="M541.729,466.4l-.17.458-.171.458c-.3-.15-.58-.3-.861-.458-3.487-1.943-5.678-4.544-6.351-7.564l-.026-.12-.06-.289a5.742,5.742,0,0,1-.085-.578,6.658,6.658,0,0,1,.767-4.564c1.142-1.734,3.487-2.432,6.164-1.874.136.03.281.06.426.1a3.166,3.166,0,0,1,.409.12,9.05,9.05,0,0,0-.145.987c-.153-.05-.3-.09-.443-.13l-.392-.09c-2.37-.5-4.391.06-5.345,1.5a5.656,5.656,0,0,0-.588,3.9c.026.14.043.269.068.4l.051.259c.026.11.051.219.085.329C535.966,462.861,539.163,465.123,541.729,466.4Z" transform="translate(-533.911 -451.681)" fill="#ead7bf"/>
              </g>
            </g>
            <g id="Group_2630" data-name="Group 2630" transform="translate(0.273 34.586)">
              <g id="Group_2629" data-name="Group 2629">
                <path id="Path_2065" data-name="Path 2065" d="M533.032,458.28a2.359,2.359,0,0,0-.375.01c-.153.01-.307.02-.477.04a12.09,12.09,0,0,0-7.1,3.239,15.061,15.061,0,0,0-3.547,5.082l.384.229.384.229c.034-.08.068-.159.1-.229a14.045,14.045,0,0,1,3.205-4.534,11.382,11.382,0,0,1,6.743-3.029l.358-.03c.17-.01.349-.02.529-.02Z" transform="translate(-521.532 -458.276)" fill="#ead7bf"/>
              </g>
            </g>
            <g id="Group_2631" data-name="Group 2631" transform="translate(11.04)">
              <path id="Path_2066" data-name="Path 2066" d="M542.474,424.447a41.824,41.824,0,0,0-3.862,2.681c-1.1.877-2.174,1.834-3.214,2.84l-.3.289c-.128.13-.256.249-.375.389a1.431,1.431,0,0,0-.273-.518.925.925,0,0,0-.29-.229l.392-.4c.094-.1.2-.189.29-.289q1.6-1.555,3.291-2.9a38.571,38.571,0,0,1,3.248-2.3c.23-.15.469-.3.7-.439Z" transform="translate(-534.162 -423.57)" fill="#ead7bf"/>
            </g>
            <g id="Group_2633" data-name="Group 2633" transform="translate(51.978 0.14)">
              <g id="Group_2632" data-name="Group 2632">
                <path id="Path_2067" data-name="Path 2067" d="M598.508,430.726c-.725-1.555-2.37-1.555-4.45-1.555a13.131,13.131,0,0,1-6.479-1.2,11.5,11.5,0,0,1-4.135-3.956l-.009-.01c-.068-.1-.128-.2-.2-.3l-.341.3-.008.01-.333.289a12.769,12.769,0,0,0,4.663,4.574,13.856,13.856,0,0,0,6.837,1.286c1.876.01,3.223,0,3.7,1.036a3.841,3.841,0,0,1-.1,1.923c-.119.708-.273,1.584-.375,2.7a5.665,5.665,0,0,1-1.33,3.338,3.532,3.532,0,0,1-1.807,1.146,4.552,4.552,0,0,1-2.575-.4c-.887-.329-1.722-.628-2.4-.01-.588.528-.793,1.525-.631,3.039l-.273.219-.605.488c-.068.05-.128.11-.2.159l-.2.162a6.745,6.745,0,0,1-.023,1.443c.073-.017.148-.039.217-.051a2.748,2.748,0,0,1,.477-.05,1.621,1.621,0,0,1,.384.01,1.31,1.31,0,0,1,.963.419c.307.349.3.787.247,1.545a5.4,5.4,0,0,0,.239,2.372c.622,1.585,1.986,1.963,3.316,2.332a4.819,4.819,0,0,1,3.257,1.983,6.164,6.164,0,0,1-.009,5.571c-1.04,1.933-3.12,2.382-4.365,2.651a7.876,7.876,0,0,1-3.581-.07,4.27,4.27,0,0,0-2.873.09,6.659,6.659,0,0,0-3.137,3.867c-.068.149-.128.309-.187.478l.136.07.256.13.017.01.375.189c.026-.07.051-.12.077-.189v-.01c.725-1.913,1.654-3.129,2.762-3.607a3.627,3.627,0,0,1,2.43-.05,8.553,8.553,0,0,0,3.879.07c1.381-.3,3.7-.787,4.928-3.109a7.2,7.2,0,0,0-.009-6.647,5.5,5.5,0,0,0-3.76-2.392c-1.228-.349-2.293-.638-2.737-1.784a4.316,4.316,0,0,1-.162-1.883,2.97,2.97,0,0,0-.5-2.332,2.142,2.142,0,0,0-1.543-.708l1.125-.9-.043-.319c-.17-1.266-.068-2.1.281-2.422.307-.279.818-.11,1.62.179a5.1,5.1,0,0,0,2.984.428,4.331,4.331,0,0,0,2.234-1.4,6.71,6.71,0,0,0,1.6-3.966c.094-1.066.239-1.913.358-2.6A4.4,4.4,0,0,0,598.508,430.726Z" transform="translate(-582.182 -423.71)" fill="#ead7bf"/>
              </g>
            </g>
            <g id="Group_2635" data-name="Group 2635" transform="translate(51.415 0.409)">
              <g id="Group_2634" data-name="Group 2634">
                <path id="Path_2068" data-name="Path 2068" d="M591.548,435.022a9.777,9.777,0,0,1-.989.06,7.591,7.591,0,0,1-4.032-1.136c-2.882-1.764-4.749-5.461-5-9.906l.426-.03.426-.03v.03c.239,4.076,1.944,7.454,4.544,9.059a7.033,7.033,0,0,0,4.544.957Z" transform="translate(-581.522 -423.98)" fill="#ead7bf"/>
              </g>
            </g>
            <g id="Group_2637" data-name="Group 2637" transform="translate(51.245 30.813)">
              <g id="Group_2636" data-name="Group 2636">
                <path id="Path_2069" data-name="Path 2069" d="M591.518,455.486a10.051,10.051,0,0,0-6.274,3.418,13.2,13.2,0,0,0-3,7.285c-.026.189-.043.369-.051.548-.009.05-.009.09-.017.13v.04l-.426-.04-.426-.04a14.653,14.653,0,0,1,3.325-8.64,10.893,10.893,0,0,1,6.786-3.7Z" transform="translate(-581.322 -454.49)" fill="#ead7bf"/>
              </g>
            </g>
            <g id="Group_2638" data-name="Group 2638" transform="translate(25.294 10.105)">
              <path id="Path_2070" data-name="Path 2070" d="M552.434,434.617a.785.785,0,1,1-1.552,0,.785.785,0,1,1,1.552,0Z" transform="translate(-550.882 -433.71)" fill="#ead7bf"/>
            </g>
            <g id="Group_2639" data-name="Group 2639" transform="translate(25.294 31.421)">
              <path id="Path_2071" data-name="Path 2071" d="M552.434,456.007a.785.785,0,1,1-.776-.907A.852.852,0,0,1,552.434,456.007Z" transform="translate(-550.882 -455.1)" fill="#ead7bf"/>
            </g>
            <g id="Group_2640" data-name="Group 2640" transform="translate(35.78 20.668)">
              <ellipse id="Ellipse_22" data-name="Ellipse 22" cx="0.81" cy="0.947" rx="0.81" ry="0.947" fill="#ead7bf"/>
            </g>
            <g id="Group_2641" data-name="Group 2641" transform="translate(50.111 20.888)">
              <path id="Path_2072" data-name="Path 2072" d="M581.237,445.257a.63.63,0,1,1-.622-.727A.679.679,0,0,1,581.237,445.257Z" transform="translate(-579.992 -444.53)" fill="#ead7bf"/>
            </g>
            <g id="Group_2642" data-name="Group 2642" transform="translate(63.214 20.336)">
              <path id="Path_2073" data-name="Path 2073" d="M597.536,445.253a1.1,1.1,0,1,1-1.083-1.276A1.2,1.2,0,0,1,597.536,445.253Z" transform="translate(-595.362 -443.977)" fill="#ead7bf"/>
            </g>
          </g>
          <path id="Path_2074" data-name="Path 2074" d="M583.584,424.007a11.548,11.548,0,0,0,4.143,3.966,13.131,13.131,0,0,0,6.479,1.2c2.08,0,3.725,0,4.45,1.555a4.4,4.4,0,0,1-.017,2.6c-.119.688-.264,1.535-.358,2.6a6.71,6.71,0,0,1-1.6,3.966,4.331,4.331,0,0,1-2.234,1.4,5.1,5.1,0,0,1-2.984-.428c-.8-.289-1.313-.458-1.62-.179-.35.319-.452,1.156-.281,2.422l.043.319-1.125.9a2.142,2.142,0,0,1,1.543.708,2.97,2.97,0,0,1,.5,2.332,4.316,4.316,0,0,0,.162,1.883c.443,1.146,1.509,1.435,2.737,1.784a5.5,5.5,0,0,1,3.76,2.392,7.2,7.2,0,0,1,.009,6.647c-1.228,2.322-3.546,2.81-4.928,3.109a8.552,8.552,0,0,1-3.879-.07,3.627,3.627,0,0,0-2.43.05c-1.108.478-2.038,1.694-2.762,3.608h21.475V424.007Zm11.074,22.452a1.293,1.293,0,1,1,1.083-1.276A1.2,1.2,0,0,1,594.658,446.459Z" transform="translate(-530.353 -423.572)" fill="#fff9f2"/>
        </g>
        <path id="Path_2075" data-name="Path 2075" d="M585.2,443.841c-.017-.189-.034-.369-.051-.558-.784-6.986-7.246-9.666-7.988-9.945-4.041-1.545-7.69-.05-9.437.668a8.9,8.9,0,0,0-.87.4,27,27,0,0,0,4.356,6.408,30.872,30.872,0,0,0,4,3.677l.571.438-.58.409a23.9,23.9,0,0,0-4.561,4.156,21.409,21.409,0,0,0-3.248,5.142c3.274,1.594,8.321,3.408,12.592.359a13.181,13.181,0,0,0,5.209-9.6m-6.513.548a.736.736,0,1,1,.622-.727A.685.685,0,0,1,578.676,445.944Z" transform="translate(-527.943 -423.601)" fill="#fff9f2"/>
      </g>
      <g id="Group_2670" data-name="Group 2670" transform="translate(0)">
        <g id="Group_2669" data-name="Group 2669">
          <g id="Group_2668" data-name="Group 2668" transform="translate(5.819)">
            <path id="Path_2076" data-name="Path 2076" d="M263.862,466.884h16.3a14.047,14.047,0,0,0-3.205-4.534,11.382,11.382,0,0,0-6.743-3.029C269.54,462.34,267.349,464.94,263.862,466.884Z" transform="translate(-212.81 -423.694)" fill="#fff9f2"/>
            <path id="Path_2077" data-name="Path 2077" d="M260.994,458.235a5.656,5.656,0,0,0-.588-3.9c-.955-1.445-2.975-2-5.345-1.5.443,3.9-.443,8.77-3.538,11.351a7.5,7.5,0,0,1-4.911,1.714,14.132,14.132,0,0,1-9.855-4.823,16.307,16.307,0,0,1-2.779-4.883c-.085-.209-.171-.419-.264-.628A18.049,18.049,0,0,1,226,457.687a9.627,9.627,0,0,1-5.712-1.794A14.327,14.327,0,0,1,214.66,445.4a1.31,1.31,0,0,0-.963.419c-.307.349-.3.787-.247,1.545a5.4,5.4,0,0,1-.239,2.372c-.622,1.585-1.986,1.963-3.316,2.332a4.819,4.819,0,0,0-3.257,1.983,6.164,6.164,0,0,0,.009,5.571c1.04,1.933,3.12,2.382,4.365,2.651a7.876,7.876,0,0,0,3.581-.07,4.269,4.269,0,0,1,2.873.09,6.659,6.659,0,0,1,3.137,3.867,13.2,13.2,0,0,0-3-7.285,10.051,10.051,0,0,0-6.275-3.418l.085-1a10.893,10.893,0,0,1,6.786,3.7,14.654,14.654,0,0,1,3.325,8.64l-.426.04h33.2l-.171-.458c2.566-1.276,5.763-3.538,6.667-7.155Z" transform="translate(-204.273 -423.645)" fill="#fff9f2"/>
            <path id="Path_2078" data-name="Path 2078" d="M239.422,455.174c.085.2.171.389.247.578a15.366,15.366,0,0,0,2.617,4.614c3.427,3.936,9.889,6.139,13.674,3,2.779-2.312,3.581-6.737,3.2-10.314l-.145-.987a1.651,1.651,0,0,0-.034-.219,12.651,12.651,0,0,0-3.359-6.5,5.78,5.78,0,0,1-1.228.428,4.622,4.622,0,0,1-3.939-1.046,26.566,26.566,0,0,1-10.2,10.015C240,454.875,239.72,455.024,239.422,455.174Zm11.432.8a.785.785,0,1,1,.776.907A.852.852,0,0,1,250.854,455.971Z" transform="translate(-209.205 -423.643)" fill="#fff9f2"/>
            <path id="Path_2079" data-name="Path 2079" d="M240.132,433.921a29.337,29.337,0,0,1,7.7,6.707,27.7,27.7,0,0,0,2.864,2.94,4.1,4.1,0,0,0,3.649,1.166,5.684,5.684,0,0,0,.614-.179l.912-.428a6.812,6.812,0,0,0,1.858-1.595,7.946,7.946,0,0,0,1.262-3.687,4.374,4.374,0,0,1,1.168-2.93c-.46-4.265-2.268-7.843-4.91-9.417-4.6-2.73-10.145,1.086-12.438,3.488A16.231,16.231,0,0,0,240.132,433.921Zm10.827.668a.785.785,0,1,1,.776.907A.846.846,0,0,1,250.959,434.589Z" transform="translate(-209.31 -423.577)" fill="#fff9f2"/>
            <path id="Path_2080" data-name="Path 2080" d="M205.169,433.128c.119.708.273,1.584.375,2.7a5.666,5.666,0,0,0,1.33,3.338,3.533,3.533,0,0,0,1.807,1.146,4.552,4.552,0,0,0,2.575-.4c.887-.329,1.722-.628,2.4-.01.588.528.793,1.525.631,3.039l.273.219v-.04c.853-7.594,7.783-10.464,8.568-10.773,4.322-1.644,8.159-.07,10,.688.358.149.7.3,1.032.468h.009a17.177,17.177,0,0,1,2.882-4.265c2.447-2.561,8.4-6.617,13.393-3.637,2.882,1.714,4.817,5.391,5.345,9.886a4.022,4.022,0,0,1,2.413.458c.878.369,1.441.558,1.8.229.46-.429.324-1.525.179-2.681a6.619,6.619,0,0,1,.162-3.528c-1.04-1.006-2.114-1.963-3.214-2.84a41.83,41.83,0,0,0-3.862-2.681l.2-.438H220.779l.426.03c-.256,4.445-2.123,8.142-5,9.906a7.591,7.591,0,0,1-4.032,1.136,9.785,9.785,0,0,1-.989-.06l.085-1a7.032,7.032,0,0,0,4.544-.957c2.6-1.6,4.305-4.983,4.544-9.059h-.426l.341.3a12.769,12.769,0,0,1-4.663,4.574,13.856,13.856,0,0,1-6.837,1.286c-1.876.01-3.223,0-3.7,1.036A3.842,3.842,0,0,0,205.169,433.128Z" transform="translate(-204.126 -423.572)" fill="#fff9f2"/>
            <path id="Path_2081" data-name="Path 2081" d="M262.9,424.01a38.576,38.576,0,0,1,3.248,2.3q1.688,1.345,3.291,2.9c.767-.668,1.756-.478,2.8-.289a7.187,7.187,0,0,0,2.327.189c1.978-.239,3.9-1.953,5.72-5.1Z" transform="translate(-212.668 -423.572)" fill="#fff9f2"/>
            <g id="Group_2649" data-name="Group 2649" transform="translate(10.361 0.169)">
              <g id="Group_2648" data-name="Group 2648">
                <path id="Path_2082" data-name="Path 2082" d="M216.14,444.319a7.9,7.9,0,0,0,.017,1.007,14.327,14.327,0,0,0,5.627,10.494,9.627,9.627,0,0,0,5.712,1.794,18.049,18.049,0,0,0,7.715-2.123c.273-.13.529-.259.776-.389.3-.15.58-.3.835-.428a26.566,26.566,0,0,0,10.2-10.015,4.622,4.622,0,0,0,3.939,1.046,5.782,5.782,0,0,0,1.228-.428,5.1,5.1,0,0,0,.835-.458,7.449,7.449,0,0,0,1.816-1.644,8.909,8.909,0,0,0,1.449-4.166,6.557,6.557,0,0,1,.426-1.784,1.375,1.375,0,0,1,.477-.568,1.809,1.809,0,0,1,.341-.169,3.229,3.229,0,0,1,2.038.409c.912.369,1.85.767,2.609.06.844-.787.665-2.222.494-3.607a6.837,6.837,0,0,1-.009-2.7,1.431,1.431,0,0,1,.273-.518.924.924,0,0,1,.29-.229,3.083,3.083,0,0,1,1.986.01,8.058,8.058,0,0,0,2.549.2c2.31-.279,4.493-2.242,6.5-5.83l-.341-.259-.375-.279-.153.269s0,.01-.009.01c-1.807,3.139-3.734,4.853-5.712,5.092a7.187,7.187,0,0,1-2.327-.189c-1.049-.189-2.038-.379-2.8.289a2.046,2.046,0,0,0-.2.209,2.389,2.389,0,0,0-.35.548,6.619,6.619,0,0,0-.162,3.528c.145,1.156.281,2.252-.179,2.681-.358.329-.921.14-1.8-.229a4.022,4.022,0,0,0-2.413-.458,2.258,2.258,0,0,0-.673.309.843.843,0,0,0-.145.11,4.374,4.374,0,0,0-1.168,2.93,7.945,7.945,0,0,1-1.262,3.687,6.812,6.812,0,0,1-1.858,1.595,5.518,5.518,0,0,1-.912.428,5.7,5.7,0,0,1-.614.179,4.1,4.1,0,0,1-3.649-1.166,27.7,27.7,0,0,1-2.864-2.94,29.337,29.337,0,0,0-7.7-6.707c-.256-.14-.5-.279-.776-.409h-.009c-.332-.169-.673-.319-1.032-.468-1.841-.757-5.678-2.332-10-.688-.784.309-7.715,3.179-8.568,10.773v.04A10.656,10.656,0,0,0,216.14,444.319Zm.878,1.046a10.5,10.5,0,0,1-.009-1.555c.017-.189.034-.369.051-.558.784-6.986,7.246-9.667,7.988-9.946,4.041-1.545,7.69-.05,9.437.668a8.9,8.9,0,0,1,.87.4c.273.12.537.259.793.4a28.535,28.535,0,0,1,7.553,6.567,33.67,33.67,0,0,0,2.617,2.74,25.442,25.442,0,0,1-9.838,9.666c-.273.139-.571.3-.887.468-.247.12-.5.249-.776.389-3.274,1.594-8.321,3.408-12.592.359A13.18,13.18,0,0,1,217.019,445.365Z" transform="translate(-216.132 -423.74)" fill="#ead7bf"/>
                <g id="Group_2647" data-name="Group 2647" transform="translate(11.884 11.032)">
                  <g id="Group_2646" data-name="Group 2646">
                    <path id="Path_2083" data-name="Path 2083" d="M230.072,444.895a25.108,25.108,0,0,1,4.16,3.906,21.9,21.9,0,0,1,3.419,5.451c.315-.169.614-.329.887-.468a25.442,25.442,0,0,0,9.838-9.666,33.67,33.67,0,0,1-2.617-2.74,28.536,28.536,0,0,0-7.553-6.567,28.484,28.484,0,0,1-4.561,6.737A31.065,31.065,0,0,1,230.072,444.895Zm8.849.329a.82.82,0,1,1,.81.947A.886.886,0,0,1,238.921,445.224Z" transform="translate(-230.072 -434.81)" fill="#fff9f2"/>
                  </g>
                </g>
              </g>
            </g>
            <g id="Group_2651" data-name="Group 2651" transform="translate(20.66 0.984)">
              <g id="Group_2650" data-name="Group 2650">
                <path id="Path_2084" data-name="Path 2084" d="M228.212,444.9l.58.409a23.894,23.894,0,0,1,4.561,4.156,21.41,21.41,0,0,1,3.248,5.142c.136.3.264.6.392.887.094.209.179.419.264.628A16.307,16.307,0,0,0,240.036,461a14.132,14.132,0,0,0,9.855,4.823,7.5,7.5,0,0,0,4.911-1.714c3.095-2.581,3.981-7.454,3.538-11.351-.034-.339-.085-.668-.145-.987a1.653,1.653,0,0,0-.034-.219,13.79,13.79,0,0,0-3.359-6.737c-.23-.249-.46-.478-.691-.7l-.912.428c.247.219.5.458.767.727a12.652,12.652,0,0,1,3.359,6.5,1.651,1.651,0,0,1,.034.219,9.05,9.05,0,0,1,.145.987c.384,3.578-.418,8-3.2,10.314-3.785,3.139-10.247.937-13.674-3a15.366,15.366,0,0,1-2.617-4.614c-.077-.189-.162-.379-.247-.578-.119-.289-.247-.588-.392-.887a21.9,21.9,0,0,0-3.419-5.451,25.109,25.109,0,0,0-4.16-3.906,31.061,31.061,0,0,0,3.572-3.348,28.483,28.483,0,0,0,4.561-6.737c.051-.08.094-.169.136-.249.1-.209.213-.409.307-.608a16.231,16.231,0,0,1,2.677-3.936c2.293-2.4,7.843-6.218,12.438-3.488,2.643,1.575,4.45,5.152,4.91,9.417.051.428.085.867.094,1.315a1.375,1.375,0,0,1,.477-.568,1.811,1.811,0,0,1,.341-.169c-.017-.339-.051-.668-.094-1-.529-4.494-2.464-8.172-5.345-9.886-5-2.98-10.946,1.076-13.393,3.637a17.177,17.177,0,0,0-2.882,4.265h-.009c-.085.169-.171.329-.256.5-.06.12-.128.239-.2.369a27,27,0,0,1-4.356,6.408,30.87,30.87,0,0,1-4,3.677Z" transform="translate(-228.212 -424.557)" fill="#ead7bf"/>
              </g>
            </g>
            <g id="Group_2653" data-name="Group 2653" transform="translate(49.807 28.014)">
              <g id="Group_2652" data-name="Group 2652">
                <path id="Path_2085" data-name="Path 2085" d="M262.445,466.4l.171.458.171.458c.3-.15.58-.3.861-.458,3.487-1.943,5.678-4.544,6.351-7.564l.026-.12.06-.289a5.752,5.752,0,0,0,.085-.578,6.658,6.658,0,0,0-.767-4.564c-1.142-1.734-3.487-2.432-6.164-1.874-.136.03-.281.06-.426.1a3.166,3.166,0,0,0-.409.12,9.05,9.05,0,0,1,.145.987c.153-.05.3-.09.443-.13l.392-.09c2.37-.5,4.39.06,5.345,1.5a5.656,5.656,0,0,1,.588,3.9c-.026.14-.043.269-.068.4l-.051.259c-.026.11-.051.219-.085.329C268.208,462.861,265.011,465.123,262.445,466.4Z" transform="translate(-262.402 -451.681)" fill="#ead7bf"/>
              </g>
            </g>
            <g id="Group_2655" data-name="Group 2655" transform="translate(56.517 34.586)">
              <g id="Group_2654" data-name="Group 2654">
                <path id="Path_2086" data-name="Path 2086" d="M270.272,459.267c.179,0,.358.01.529.02l.358.03a11.382,11.382,0,0,1,6.743,3.029,14.046,14.046,0,0,1,3.205,4.534c.034.07.068.149.1.229l.384-.229.384-.229a15.061,15.061,0,0,0-3.546-5.082,12.09,12.09,0,0,0-7.1-3.239c-.17-.02-.324-.03-.477-.04a2.36,2.36,0,0,0-.375-.01Z" transform="translate(-270.272 -458.276)" fill="#ead7bf"/>
              </g>
            </g>
            <g id="Group_2656" data-name="Group 2656" transform="translate(49.142)">
              <path id="Path_2087" data-name="Path 2087" d="M261.622,424.447a41.824,41.824,0,0,1,3.862,2.681c1.1.877,2.174,1.834,3.214,2.84l.3.289c.128.13.256.249.375.389a1.431,1.431,0,0,1,.273-.518.924.924,0,0,1,.29-.229l-.392-.4c-.094-.1-.2-.189-.29-.289q-1.6-1.555-3.291-2.9a38.576,38.576,0,0,0-3.248-2.3c-.23-.15-.469-.3-.7-.439Z" transform="translate(-261.622 -423.57)" fill="#ead7bf"/>
            </g>
            <g id="Group_2658" data-name="Group 2658" transform="translate(0 0.14)">
              <g id="Group_2657" data-name="Group 2657">
                <path id="Path_2088" data-name="Path 2088" d="M204.169,430.726c.725-1.555,2.37-1.555,4.45-1.555a13.131,13.131,0,0,0,6.479-1.2,11.5,11.5,0,0,0,4.135-3.956l.009-.01c.068-.1.128-.2.2-.3l.341.3.009.01.332.289a12.769,12.769,0,0,1-4.663,4.574,13.856,13.856,0,0,1-6.837,1.286c-1.876.01-3.223,0-3.7,1.036a3.842,3.842,0,0,0,.1,1.923c.119.708.273,1.584.375,2.7a5.666,5.666,0,0,0,1.33,3.338,3.532,3.532,0,0,0,1.807,1.146,4.552,4.552,0,0,0,2.575-.4c.887-.329,1.722-.628,2.4-.01.588.528.793,1.525.631,3.039l.273.219.605.488c.068.05.128.11.2.159l.2.162a6.749,6.749,0,0,0,.023,1.443c-.072-.017-.149-.039-.217-.051a2.748,2.748,0,0,0-.477-.05,1.621,1.621,0,0,0-.384.01,1.31,1.31,0,0,0-.963.419c-.307.349-.3.787-.247,1.545a5.4,5.4,0,0,1-.239,2.372c-.622,1.585-1.986,1.963-3.316,2.332a4.819,4.819,0,0,0-3.257,1.983,6.164,6.164,0,0,0,.009,5.571c1.04,1.933,3.12,2.382,4.365,2.651a7.876,7.876,0,0,0,3.581-.07,4.269,4.269,0,0,1,2.873.09,6.659,6.659,0,0,1,3.137,3.867c.068.149.128.309.188.478l-.136.07-.256.13-.017.01-.375.189c-.026-.07-.051-.12-.077-.189v-.01c-.725-1.913-1.654-3.129-2.762-3.607a3.627,3.627,0,0,0-2.43-.05,8.553,8.553,0,0,1-3.879.07c-1.381-.3-3.7-.787-4.928-3.109a7.2,7.2,0,0,1,.009-6.647,5.5,5.5,0,0,1,3.76-2.392c1.228-.349,2.293-.638,2.737-1.784a4.315,4.315,0,0,0,.162-1.883,2.969,2.969,0,0,1,.5-2.332,2.142,2.142,0,0,1,1.543-.708l-1.125-.9.043-.319c.171-1.266.068-2.1-.281-2.422-.307-.279-.818-.11-1.62.179a5.1,5.1,0,0,1-2.984.428,4.331,4.331,0,0,1-2.234-1.4,6.71,6.71,0,0,1-1.6-3.966c-.094-1.066-.239-1.913-.358-2.6A4.4,4.4,0,0,1,204.169,430.726Z" transform="translate(-203.978 -423.71)" fill="#ead7bf"/>
              </g>
            </g>
            <g id="Group_2660" data-name="Group 2660" transform="translate(7.054 0.409)">
              <g id="Group_2659" data-name="Group 2659">
                <path id="Path_2089" data-name="Path 2089" d="M212.252,435.022a9.777,9.777,0,0,0,.989.06,7.591,7.591,0,0,0,4.032-1.136c2.882-1.764,4.749-5.461,5-9.906l-.426-.03-.426-.03v.03c-.239,4.076-1.944,7.454-4.544,9.059a7.032,7.032,0,0,1-4.544.957Z" transform="translate(-212.252 -423.98)" fill="#ead7bf"/>
              </g>
            </g>
            <g id="Group_2662" data-name="Group 2662" transform="translate(7.054 30.813)">
              <g id="Group_2661" data-name="Group 2661">
                <path id="Path_2090" data-name="Path 2090" d="M212.252,455.486a10.051,10.051,0,0,1,6.275,3.418,13.2,13.2,0,0,1,3,7.285c.026.189.043.369.051.548.009.05.009.09.017.13v.04l.426-.04.426-.04a14.654,14.654,0,0,0-3.325-8.64,10.893,10.893,0,0,0-6.786-3.7Z" transform="translate(-212.252 -454.49)" fill="#ead7bf"/>
              </g>
            </g>
            <g id="Group_2663" data-name="Group 2663" transform="translate(41.649 10.105)">
              <path id="Path_2091" data-name="Path 2091" d="M252.832,434.617a.785.785,0,1,0,1.552,0,.785.785,0,1,0-1.552,0Z" transform="translate(-252.832 -433.71)" fill="#ead7bf"/>
            </g>
            <g id="Group_2664" data-name="Group 2664" transform="translate(41.649 31.421)">
              <path id="Path_2092" data-name="Path 2092" d="M252.832,456.007a.785.785,0,1,0,.776-.907A.852.852,0,0,0,252.832,456.007Z" transform="translate(-252.832 -455.1)" fill="#ead7bf"/>
            </g>
            <g id="Group_2665" data-name="Group 2665" transform="translate(31.095 20.668)">
              <ellipse id="Ellipse_23" data-name="Ellipse 23" cx="0.81" cy="0.947" rx="0.81" ry="0.947" fill="#ead7bf"/>
            </g>
            <g id="Group_2666" data-name="Group 2666" transform="translate(17.139 20.888)">
              <path id="Path_2093" data-name="Path 2093" d="M224.082,445.257a.63.63,0,1,0,.622-.727A.679.679,0,0,0,224.082,445.257Z" transform="translate(-224.082 -444.53)" fill="#ead7bf"/>
            </g>
            <g id="Group_2667" data-name="Group 2667" transform="translate(3.107 20.336)">
              <path id="Path_2094" data-name="Path 2094" d="M207.622,445.253a1.1,1.1,0,1,0,1.083-1.276A1.2,1.2,0,0,0,207.622,445.253Z" transform="translate(-207.622 -443.977)" fill="#ead7bf"/>
            </g>
          </g>
          <path id="Path_2095" data-name="Path 2095" d="M197.152,424.007v42.752h21.475c-.725-1.913-1.654-3.129-2.762-3.608a3.627,3.627,0,0,0-2.43-.05,8.553,8.553,0,0,1-3.879.07c-1.381-.3-3.7-.787-4.928-3.109a7.2,7.2,0,0,1,.009-6.647,5.5,5.5,0,0,1,3.76-2.392c1.228-.349,2.293-.638,2.737-1.784a4.315,4.315,0,0,0,.162-1.883,2.969,2.969,0,0,1,.5-2.332,2.142,2.142,0,0,1,1.543-.708l-1.125-.9.043-.319c.171-1.266.068-2.1-.281-2.422-.307-.279-.818-.11-1.62.179a5.1,5.1,0,0,1-2.984.428,4.331,4.331,0,0,1-2.234-1.4,6.71,6.71,0,0,1-1.6-3.966c-.094-1.066-.239-1.913-.358-2.6a4.4,4.4,0,0,1-.017-2.6c.725-1.555,2.37-1.555,4.45-1.555a13.131,13.131,0,0,0,6.479-1.2,11.549,11.549,0,0,0,4.143-3.966Zm8.926,21.177a1.1,1.1,0,1,1,1.083,1.276A1.19,1.19,0,0,1,206.078,445.183Z" transform="translate(-197.152 -423.572)" fill="#fff9f2"/>
        </g>
        <path id="Path_2096" data-name="Path 2096" d="M217.171,445.4a13.18,13.18,0,0,0,5.209,9.6c4.271,3.049,9.318,1.236,12.592-.359a21.41,21.41,0,0,0-3.248-5.142,23.9,23.9,0,0,0-4.561-4.156l-.58-.409.571-.438a30.87,30.87,0,0,0,4-3.677,27,27,0,0,0,4.356-6.408,8.9,8.9,0,0,0-.87-.4c-1.748-.718-5.4-2.212-9.437-.668-.742.279-7.2,2.96-7.988,9.945-.017.189-.034.369-.051.558m5.9,1.375a.63.63,0,1,1,.622.727A.679.679,0,0,1,223.061,445.216Z" transform="translate(-200.103 -423.601)" fill="#fff9f2"/>
      </g>
      <path id="Path_2097" data-name="Path 2097" d="M197.152,424.02v42.752h299.7V424.02ZM475.4,433.308a12.233,12.233,0,0,1,6.829,9.945c.015.189.029.369.044.558-.3.279-.6.548-.882.827l-1.632,1.565,1.931-.678a5.174,5.174,0,0,1,.576-.159,13.857,13.857,0,0,1-4.453,9.6c-3.651,3.049-7.966,1.236-10.764-.359a22.238,22.238,0,0,1,2.777-5.142,22.014,22.014,0,0,1,3.9-4.156l.5-.409-.488-.438a28.5,28.5,0,0,1-3.418-3.677,27.688,27.688,0,0,1-3.724-6.408,7.15,7.15,0,0,1,.743-.4C468.824,433.258,471.943,431.763,475.4,433.308Zm1.3,12.606c.3,0,.532-.329.532-.727s-.233-.727-.532-.727-.532.329-.532.727S476.4,445.914,476.694,445.914Z" transform="translate(-197.152 -423.572)" fill="none" stroke="#ead7bf" stroke-miterlimit="10" stroke-width="1"/>
    </g>
  </g>
</svg>
